<svg width="21" height="19" viewBox="0 0 21 19" fill="none" xmlns="http://www.w3.org/2000/svg">
<mask id="path-1-outside-1_933_11422" maskUnits="userSpaceOnUse" x="-0.900391" y="-0.900391" width="22" height="20" fill="black">
<rect fill="white" x="-0.900391" y="-0.900391" width="22" height="20"/>
<path d="M2.87999 0.371885C3.27565 0.649865 3.52438 1.00652 3.63651 1.46562C3.64687 1.57687 3.64743 1.687 3.64625 1.79862C3.6467 1.84109 3.6467 1.84109 3.64716 1.88442C3.64647 2.07915 3.61471 2.24715 3.55859 2.43435C3.86608 2.70646 3.86608 2.70646 4.17951 2.97227C4.34247 3.10729 4.49997 3.24779 4.65804 3.38798C4.79492 3.50916 4.9336 3.62781 5.07467 3.74451C5.20073 3.8506 5.32388 3.95971 5.44743 4.06846C5.62116 4.22122 5.79704 4.37159 5.9741 4.52082C6.02713 4.47702 6.02713 4.47702 6.08124 4.43233C6.10635 4.41187 6.13146 4.39141 6.15733 4.37033C6.22134 4.31807 6.28502 4.26544 6.34848 4.21256C7.41441 3.3392 8.67046 2.87328 10.0795 2.87213C10.1073 2.87211 10.1351 2.87208 10.1638 2.87206C10.5943 2.87267 11.0099 2.88987 11.4285 2.99322C11.4545 2.99962 11.4805 3.00601 11.5073 3.0126C12.5856 3.288 13.4935 3.84013 14.2725 4.59534C14.6066 4.45342 14.8835 4.16664 15.1488 3.93167C15.2806 3.82175 15.4231 3.72758 15.5684 3.63462C15.652 3.55146 15.652 3.55146 15.6279 3.41427C15.6229 3.38829 15.6178 3.36231 15.6126 3.33554C15.5196 2.84471 15.593 2.35669 15.8796 1.93834C16.169 1.57164 16.5315 1.34841 16.9997 1.24207C17.5438 1.18607 18.0265 1.25962 18.4706 1.58104C18.7893 1.83917 19.0746 2.21487 19.1104 2.62494C19.1261 3.17732 19.0804 3.58799 18.7139 4.03646C18.6953 4.05942 18.6767 4.08238 18.6575 4.10603C18.3424 4.4476 17.884 4.5974 17.4217 4.62969C17.0788 4.63637 16.7739 4.55837 16.4543 4.4463C16.4311 4.46662 16.408 4.48694 16.3841 4.50787C16.1756 4.68933 15.9623 4.86274 15.7431 5.03225C15.602 5.14397 15.4667 5.26126 15.3319 5.3798C15.2542 5.44577 15.1748 5.5058 15.0907 5.56406C15.1161 5.74534 15.1953 5.8942 15.2757 6.05773C15.8422 7.25008 15.9393 8.64746 15.5065 9.89536C15.4785 10.0048 15.4745 10.0445 15.5192 10.1469C15.601 10.2068 15.601 10.2068 15.7057 10.2556C15.7446 10.2753 15.7835 10.2949 15.8236 10.3152C15.8654 10.3357 15.9072 10.3563 15.9502 10.3774C16.0358 10.4202 16.1213 10.4631 16.2068 10.506C16.2489 10.5271 16.2911 10.5482 16.3345 10.5699C16.4408 10.6243 16.5447 10.6809 16.6482 10.7401C16.6903 10.7641 16.6903 10.7641 16.7334 10.7885C16.7847 10.818 16.8357 10.8479 16.8863 10.8784C16.9974 10.9415 17.054 10.9718 17.1826 10.9433C17.2623 10.8978 17.34 10.8519 17.4161 10.8012C17.8338 10.5517 18.3341 10.5324 18.8104 10.6184C19.2514 10.7448 19.6293 11.014 19.862 11.3957C20.0983 11.8339 20.1523 12.2854 20.0507 12.7712C20.0151 12.8712 19.9743 12.9602 19.9217 13.053C19.9052 13.0822 19.8887 13.1114 19.8716 13.1415C19.6298 13.5229 19.2453 13.8047 18.796 13.9307C18.3251 14.0257 17.8161 13.9719 17.4036 13.7407C16.9672 13.4685 16.6849 13.0952 16.5712 12.6059C16.5825 12.5174 16.5939 12.4289 16.6052 12.3404C16.5979 12.1826 16.5979 12.1826 16.5322 12.047C16.2978 11.8561 16.0005 11.7433 15.7234 11.6206C15.5322 11.5329 15.3508 11.431 15.1686 11.3275C15.1077 11.2935 15.0469 11.2594 14.986 11.2255C14.9221 11.1895 14.9221 11.1895 14.8569 11.1528C14.8479 11.1786 14.8388 11.2044 14.8295 11.231C14.7685 11.3616 14.6863 11.4678 14.5939 11.579C14.5752 11.6016 14.5565 11.6241 14.5372 11.6474C14.1757 12.0739 13.7634 12.4345 13.2985 12.7549C13.3524 12.9262 13.4255 13.074 13.5163 13.2301C13.5298 13.2534 13.5432 13.2766 13.5571 13.3005C13.5998 13.3741 13.6427 13.4476 13.6857 13.5211C13.7144 13.5705 13.7431 13.62 13.7718 13.6695C13.9153 13.9185 13.9153 13.9185 14.0673 14.1629C14.1167 14.2453 14.1167 14.2453 14.1167 14.3198C14.1619 14.3181 14.2071 14.3163 14.2537 14.3146C14.832 14.299 15.2934 14.3862 15.7288 14.7752C16.1089 15.1531 16.2375 15.5568 16.2595 16.071C16.2415 16.535 16.0232 16.9245 15.6915 17.2561C15.3445 17.5564 14.941 17.6951 14.4771 17.6917C14.4431 17.6915 14.4091 17.6913 14.3741 17.691C13.8773 17.678 13.5066 17.4907 13.1541 17.1644C12.8437 16.845 12.6986 16.439 12.6995 16.0081C12.6996 15.9787 12.6997 15.9494 12.6997 15.9192C12.7063 15.6174 12.77 15.3352 12.9601 15.0883C13.0368 14.9954 13.0368 14.9954 13.0188 14.888C12.9824 14.75 12.9264 14.6445 12.8535 14.5205C12.8402 14.4976 12.8269 14.4748 12.8132 14.4512C12.7708 14.3785 12.7278 14.3061 12.6849 14.2336C12.6567 14.1855 12.6285 14.1373 12.6003 14.089C12.5462 13.9965 12.4919 13.9041 12.4374 13.8118C12.3471 13.6586 12.2577 13.5049 12.1687 13.3511C12.143 13.3581 12.1173 13.3652 12.0908 13.3725C11.8555 13.4365 11.6185 13.491 11.3798 13.542C11.3503 13.5484 11.3209 13.5547 11.2905 13.5613C11.2619 13.5673 11.2333 13.5734 11.2038 13.5796C11.1786 13.5849 11.1534 13.5903 11.1274 13.5958C10.7947 13.6564 10.4654 13.6582 10.1282 13.6585C10.0984 13.6585 10.0685 13.6585 10.0378 13.6585C9.6073 13.658 9.19705 13.646 8.7792 13.5374C8.74 13.5272 8.74 13.5272 8.70001 13.5168C8.20599 13.3856 7.74485 13.2034 7.29819 12.9632C7.15176 12.8853 7.15176 12.8853 6.98705 12.8667C6.92352 12.9096 6.92352 12.9096 6.86154 12.9703C6.83668 12.9933 6.81182 13.0162 6.78621 13.0399C6.75919 13.0655 6.73216 13.091 6.70432 13.1173C6.67567 13.144 6.64703 13.1706 6.61752 13.1981C6.52257 13.2867 6.4281 13.3757 6.33371 13.4649C6.30149 13.4953 6.26926 13.5256 6.23606 13.5569C6.06553 13.7177 5.8954 13.8788 5.72555 14.0401C5.54987 14.2069 5.37288 14.3723 5.19555 14.5375C5.05958 14.6646 4.92466 14.7927 4.79 14.9211C4.72519 14.9825 4.65999 15.0435 4.5944 15.1042C4.50266 15.1892 4.41251 15.2755 4.3226 15.3623C4.28147 15.3995 4.28147 15.3995 4.23951 15.4374C4.09886 15.575 4.09886 15.575 4.06605 15.7582C4.08556 15.853 4.11196 15.9419 4.14299 16.0337C4.22633 16.5443 4.14433 17.0212 3.83131 17.4495C3.54942 17.7829 3.1399 18.0379 2.68937 18.0941C2.59809 18.0991 2.508 18.1004 2.41658 18.0992C2.38432 18.0989 2.35205 18.0986 2.31881 18.0983C1.83438 18.0856 1.45673 17.9199 1.10413 17.6031C0.724691 17.216 0.608563 16.7607 0.62215 16.2443C0.650117 15.7805 0.877807 15.4144 1.2274 15.1012C1.57568 14.8229 1.95034 14.723 2.39467 14.7203C2.44167 14.7192 2.44167 14.7192 2.48963 14.718C2.75145 14.7164 2.90083 14.7645 3.16899 14.8414C4.12039 13.9316 5.07179 13.0217 6.05202 12.0843C5.97488 11.9982 5.89774 11.9122 5.81826 11.8235C4.81532 10.6324 4.31591 9.21067 4.47278 7.67644C4.55591 6.99428 4.74723 6.2315 5.14696 5.65007C5.20302 5.56937 5.20302 5.56937 5.18543 5.49112C5.15163 5.40389 5.1156 5.36574 5.04378 5.30369C5.0209 5.28365 4.99802 5.26362 4.97445 5.24299C4.94997 5.22214 4.92549 5.2013 4.90027 5.17983C4.86276 5.14724 4.86276 5.14724 4.82449 5.11398C4.67841 4.98743 4.53073 4.86267 4.38146 4.73957C4.26774 4.64363 4.15677 4.54493 4.04559 4.4463C3.88654 4.30525 3.72636 4.16614 3.56209 4.03064C3.4762 3.95817 3.39227 3.88382 3.30837 3.80925C3.11419 3.63687 2.91762 3.47563 2.70148 3.32855C2.6605 3.34622 2.61951 3.3639 2.57729 3.38211C2.20288 3.54359 1.6434 3.54326 1.25753 3.41937C0.768652 3.21238 0.413644 2.88473 0.20455 2.41499C0.042816 1.99346 0.0720133 1.45109 0.264664 1.0469C0.513758 0.621602 0.871161 0.296966 1.36421 0.158667C1.88494 0.0395524 2.42661 0.0957311 2.87999 0.371885ZM1.38171 1.50754C1.31588 1.66844 1.31219 1.81685 1.33788 1.98724C1.42215 2.15141 1.50918 2.25546 1.68852 2.32257C1.88501 2.34806 2.03257 2.34396 2.21204 2.2597C2.34291 2.14675 2.41682 2.0714 2.44108 1.90036C2.45144 1.68733 2.42753 1.55495 2.27292 1.39111C2.12342 1.26496 1.9755 1.26022 1.78349 1.26623C1.60183 1.29129 1.49949 1.37989 1.38171 1.50754ZM16.8487 2.6253C16.7829 2.7862 16.7792 2.9346 16.8049 3.105C16.89 3.2708 16.9786 3.36556 17.1556 3.44032C17.3238 3.48586 17.4338 3.48661 17.5914 3.41937C17.7415 3.33714 17.8241 3.25919 17.8958 3.105C17.9266 2.91662 17.9184 2.77646 17.83 2.60434C17.7119 2.47918 17.6331 2.4085 17.4543 2.3853C17.1852 2.37334 17.0308 2.42803 16.8487 2.6253ZM6.77656 5.43553C5.98231 6.31316 5.59241 7.42339 5.66242 8.582C5.77137 9.7223 6.32153 10.7301 7.20255 11.4998C8.11724 12.2269 9.27446 12.6084 10.4625 12.5148C11.6601 12.4001 12.7679 11.8728 13.5405 10.9786C14.3044 10.0374 14.6751 8.89526 14.5273 7.70584C14.3492 6.5401 13.6976 5.52688 12.7141 4.81889C10.8469 3.58607 8.3206 3.80369 6.77656 5.43553ZM17.8227 11.9772C17.7566 12.1388 17.7488 12.2859 17.7789 12.4569C17.8572 12.6191 17.954 12.7264 18.1295 12.7922C18.3229 12.8184 18.4768 12.8121 18.6531 12.7293C18.8175 12.5875 18.8765 12.4865 18.8893 12.2752C18.884 12.1064 18.8404 12.0068 18.7328 11.8747C18.5791 11.7386 18.4274 11.7329 18.2259 11.7372C18.043 11.7596 17.9408 11.8492 17.8227 11.9772ZM13.9657 15.703C13.8999 15.8639 13.8962 16.0123 13.9219 16.1827C14.0062 16.3469 14.0932 16.4509 14.2725 16.5181C14.469 16.5435 14.6166 16.5394 14.7961 16.4552C14.9224 16.3461 14.9857 16.2493 15.0469 16.0989C15.0544 15.9395 15.0081 15.8037 14.9348 15.6611C14.7515 15.49 14.6205 15.4616 14.3716 15.4643C14.1868 15.4839 14.0847 15.5741 13.9657 15.703ZM1.96124 16.0337C1.84374 16.1985 1.8087 16.359 1.84436 16.5553C1.89652 16.6899 1.9714 16.791 2.08299 16.8883C2.2516 16.9479 2.40716 16.9524 2.5846 16.9279C2.75828 16.8464 2.85544 16.7612 2.93523 16.5926C2.99146 16.4197 2.96792 16.3019 2.89734 16.1392C2.82393 16.014 2.71589 15.9474 2.5846 15.8847C2.33588 15.8586 2.15262 15.8641 1.96124 16.0337Z"/>
<path d="M9.6249 7.40995C10.0116 7.65223 10.319 7.9926 10.4343 8.42962C10.5439 8.94658 10.4787 9.39872 10.1818 9.84878C9.87974 10.2398 9.49225 10.4862 8.9915 10.5742C8.46853 10.6379 8.00375 10.519 7.58073 10.2198C7.23449 9.94012 6.98241 9.58026 6.94107 9.14076C6.9075 8.62035 6.98412 8.20377 7.32734 7.78254C7.90699 7.16034 8.85969 6.99284 9.6249 7.40995ZM8.22159 8.58665C8.13641 8.74392 8.12313 8.89287 8.15584 9.06636C8.24217 9.23146 8.33041 9.32551 8.50648 9.40168C8.68714 9.45543 8.81105 9.43361 8.9807 9.36457C9.14042 9.28069 9.20889 9.15907 9.26376 8.99883C9.30143 8.82528 9.26772 8.69362 9.1688 8.54474C9.06221 8.42845 8.95883 8.36818 8.79853 8.34331C8.52976 8.33412 8.38546 8.37488 8.22159 8.58665Z"/>
<path d="M11.8181 6.6073C12.2166 6.6073 12.6152 6.6073 13.0258 6.6073C13.0258 6.98845 13.0258 7.3696 13.0258 7.76231C12.6273 7.76231 12.2287 7.76231 11.8181 7.76231C11.8181 7.38115 11.8181 7 11.8181 6.6073Z"/>
<path d="M9.44152 5.11696C9.84008 5.11696 10.2386 5.11696 10.6493 5.11696C10.6493 5.49811 10.6493 5.87927 10.6493 6.27197C10.2507 6.27197 9.85215 6.27197 9.44152 6.27197C9.44152 5.89082 9.44152 5.50966 9.44152 5.11696Z"/>
<path d="M11.6233 9.06636C12.0218 9.06636 12.4204 9.06636 12.831 9.06636C12.8318 9.25002 12.8326 9.43368 12.8335 9.6229C12.8338 9.68092 12.8342 9.73894 12.8345 9.79871C12.8346 9.844 12.8347 9.8893 12.8348 9.93596C12.8351 10.0059 12.8351 10.0059 12.8354 10.0773C12.831 10.1841 12.831 10.1841 12.7921 10.2214C12.7056 10.2246 12.6191 10.2254 12.5326 10.225C12.4852 10.2249 12.4379 10.2248 12.3891 10.2247C12.3284 10.2244 12.2677 10.224 12.2052 10.2237C12.0132 10.2229 11.8211 10.2222 11.6233 10.2214C11.6233 9.84021 11.6233 9.45906 11.6233 9.06636Z"/>
</mask>
<path d="M2.87999 0.371885C3.27565 0.649865 3.52438 1.00652 3.63651 1.46562C3.64687 1.57687 3.64743 1.687 3.64625 1.79862C3.6467 1.84109 3.6467 1.84109 3.64716 1.88442C3.64647 2.07915 3.61471 2.24715 3.55859 2.43435C3.86608 2.70646 3.86608 2.70646 4.17951 2.97227C4.34247 3.10729 4.49997 3.24779 4.65804 3.38798C4.79492 3.50916 4.9336 3.62781 5.07467 3.74451C5.20073 3.8506 5.32388 3.95971 5.44743 4.06846C5.62116 4.22122 5.79704 4.37159 5.9741 4.52082C6.02713 4.47702 6.02713 4.47702 6.08124 4.43233C6.10635 4.41187 6.13146 4.39141 6.15733 4.37033C6.22134 4.31807 6.28502 4.26544 6.34848 4.21256C7.41441 3.3392 8.67046 2.87328 10.0795 2.87213C10.1073 2.87211 10.1351 2.87208 10.1638 2.87206C10.5943 2.87267 11.0099 2.88987 11.4285 2.99322C11.4545 2.99962 11.4805 3.00601 11.5073 3.0126C12.5856 3.288 13.4935 3.84013 14.2725 4.59534C14.6066 4.45342 14.8835 4.16664 15.1488 3.93167C15.2806 3.82175 15.4231 3.72758 15.5684 3.63462C15.652 3.55146 15.652 3.55146 15.6279 3.41427C15.6229 3.38829 15.6178 3.36231 15.6126 3.33554C15.5196 2.84471 15.593 2.35669 15.8796 1.93834C16.169 1.57164 16.5315 1.34841 16.9997 1.24207C17.5438 1.18607 18.0265 1.25962 18.4706 1.58104C18.7893 1.83917 19.0746 2.21487 19.1104 2.62494C19.1261 3.17732 19.0804 3.58799 18.7139 4.03646C18.6953 4.05942 18.6767 4.08238 18.6575 4.10603C18.3424 4.4476 17.884 4.5974 17.4217 4.62969C17.0788 4.63637 16.7739 4.55837 16.4543 4.4463C16.4311 4.46662 16.408 4.48694 16.3841 4.50787C16.1756 4.68933 15.9623 4.86274 15.7431 5.03225C15.602 5.14397 15.4667 5.26126 15.3319 5.3798C15.2542 5.44577 15.1748 5.5058 15.0907 5.56406C15.1161 5.74534 15.1953 5.8942 15.2757 6.05773C15.8422 7.25008 15.9393 8.64746 15.5065 9.89536C15.4785 10.0048 15.4745 10.0445 15.5192 10.1469C15.601 10.2068 15.601 10.2068 15.7057 10.2556C15.7446 10.2753 15.7835 10.2949 15.8236 10.3152C15.8654 10.3357 15.9072 10.3563 15.9502 10.3774C16.0358 10.4202 16.1213 10.4631 16.2068 10.506C16.2489 10.5271 16.2911 10.5482 16.3345 10.5699C16.4408 10.6243 16.5447 10.6809 16.6482 10.7401C16.6903 10.7641 16.6903 10.7641 16.7334 10.7885C16.7847 10.818 16.8357 10.8479 16.8863 10.8784C16.9974 10.9415 17.054 10.9718 17.1826 10.9433C17.2623 10.8978 17.34 10.8519 17.4161 10.8012C17.8338 10.5517 18.3341 10.5324 18.8104 10.6184C19.2514 10.7448 19.6293 11.014 19.862 11.3957C20.0983 11.8339 20.1523 12.2854 20.0507 12.7712C20.0151 12.8712 19.9743 12.9602 19.9217 13.053C19.9052 13.0822 19.8887 13.1114 19.8716 13.1415C19.6298 13.5229 19.2453 13.8047 18.796 13.9307C18.3251 14.0257 17.8161 13.9719 17.4036 13.7407C16.9672 13.4685 16.6849 13.0952 16.5712 12.6059C16.5825 12.5174 16.5939 12.4289 16.6052 12.3404C16.5979 12.1826 16.5979 12.1826 16.5322 12.047C16.2978 11.8561 16.0005 11.7433 15.7234 11.6206C15.5322 11.5329 15.3508 11.431 15.1686 11.3275C15.1077 11.2935 15.0469 11.2594 14.986 11.2255C14.9221 11.1895 14.9221 11.1895 14.8569 11.1528C14.8479 11.1786 14.8388 11.2044 14.8295 11.231C14.7685 11.3616 14.6863 11.4678 14.5939 11.579C14.5752 11.6016 14.5565 11.6241 14.5372 11.6474C14.1757 12.0739 13.7634 12.4345 13.2985 12.7549C13.3524 12.9262 13.4255 13.074 13.5163 13.2301C13.5298 13.2534 13.5432 13.2766 13.5571 13.3005C13.5998 13.3741 13.6427 13.4476 13.6857 13.5211C13.7144 13.5705 13.7431 13.62 13.7718 13.6695C13.9153 13.9185 13.9153 13.9185 14.0673 14.1629C14.1167 14.2453 14.1167 14.2453 14.1167 14.3198C14.1619 14.3181 14.2071 14.3163 14.2537 14.3146C14.832 14.299 15.2934 14.3862 15.7288 14.7752C16.1089 15.1531 16.2375 15.5568 16.2595 16.071C16.2415 16.535 16.0232 16.9245 15.6915 17.2561C15.3445 17.5564 14.941 17.6951 14.4771 17.6917C14.4431 17.6915 14.4091 17.6913 14.3741 17.691C13.8773 17.678 13.5066 17.4907 13.1541 17.1644C12.8437 16.845 12.6986 16.439 12.6995 16.0081C12.6996 15.9787 12.6997 15.9494 12.6997 15.9192C12.7063 15.6174 12.77 15.3352 12.9601 15.0883C13.0368 14.9954 13.0368 14.9954 13.0188 14.888C12.9824 14.75 12.9264 14.6445 12.8535 14.5205C12.8402 14.4976 12.8269 14.4748 12.8132 14.4512C12.7708 14.3785 12.7278 14.3061 12.6849 14.2336C12.6567 14.1855 12.6285 14.1373 12.6003 14.089C12.5462 13.9965 12.4919 13.9041 12.4374 13.8118C12.3471 13.6586 12.2577 13.5049 12.1687 13.3511C12.143 13.3581 12.1173 13.3652 12.0908 13.3725C11.8555 13.4365 11.6185 13.491 11.3798 13.542C11.3503 13.5484 11.3209 13.5547 11.2905 13.5613C11.2619 13.5673 11.2333 13.5734 11.2038 13.5796C11.1786 13.5849 11.1534 13.5903 11.1274 13.5958C10.7947 13.6564 10.4654 13.6582 10.1282 13.6585C10.0984 13.6585 10.0685 13.6585 10.0378 13.6585C9.6073 13.658 9.19705 13.646 8.7792 13.5374C8.74 13.5272 8.74 13.5272 8.70001 13.5168C8.20599 13.3856 7.74485 13.2034 7.29819 12.9632C7.15176 12.8853 7.15176 12.8853 6.98705 12.8667C6.92352 12.9096 6.92352 12.9096 6.86154 12.9703C6.83668 12.9933 6.81182 13.0162 6.78621 13.0399C6.75919 13.0655 6.73216 13.091 6.70432 13.1173C6.67567 13.144 6.64703 13.1706 6.61752 13.1981C6.52257 13.2867 6.4281 13.3757 6.33371 13.4649C6.30149 13.4953 6.26926 13.5256 6.23606 13.5569C6.06553 13.7177 5.8954 13.8788 5.72555 14.0401C5.54987 14.2069 5.37288 14.3723 5.19555 14.5375C5.05958 14.6646 4.92466 14.7927 4.79 14.9211C4.72519 14.9825 4.65999 15.0435 4.5944 15.1042C4.50266 15.1892 4.41251 15.2755 4.3226 15.3623C4.28147 15.3995 4.28147 15.3995 4.23951 15.4374C4.09886 15.575 4.09886 15.575 4.06605 15.7582C4.08556 15.853 4.11196 15.9419 4.14299 16.0337C4.22633 16.5443 4.14433 17.0212 3.83131 17.4495C3.54942 17.7829 3.1399 18.0379 2.68937 18.0941C2.59809 18.0991 2.508 18.1004 2.41658 18.0992C2.38432 18.0989 2.35205 18.0986 2.31881 18.0983C1.83438 18.0856 1.45673 17.9199 1.10413 17.6031C0.724691 17.216 0.608563 16.7607 0.62215 16.2443C0.650117 15.7805 0.877807 15.4144 1.2274 15.1012C1.57568 14.8229 1.95034 14.723 2.39467 14.7203C2.44167 14.7192 2.44167 14.7192 2.48963 14.718C2.75145 14.7164 2.90083 14.7645 3.16899 14.8414C4.12039 13.9316 5.07179 13.0217 6.05202 12.0843C5.97488 11.9982 5.89774 11.9122 5.81826 11.8235C4.81532 10.6324 4.31591 9.21067 4.47278 7.67644C4.55591 6.99428 4.74723 6.2315 5.14696 5.65007C5.20302 5.56937 5.20302 5.56937 5.18543 5.49112C5.15163 5.40389 5.1156 5.36574 5.04378 5.30369C5.0209 5.28365 4.99802 5.26362 4.97445 5.24299C4.94997 5.22214 4.92549 5.2013 4.90027 5.17983C4.86276 5.14724 4.86276 5.14724 4.82449 5.11398C4.67841 4.98743 4.53073 4.86267 4.38146 4.73957C4.26774 4.64363 4.15677 4.54493 4.04559 4.4463C3.88654 4.30525 3.72636 4.16614 3.56209 4.03064C3.4762 3.95817 3.39227 3.88382 3.30837 3.80925C3.11419 3.63687 2.91762 3.47563 2.70148 3.32855C2.6605 3.34622 2.61951 3.3639 2.57729 3.38211C2.20288 3.54359 1.6434 3.54326 1.25753 3.41937C0.768652 3.21238 0.413644 2.88473 0.20455 2.41499C0.042816 1.99346 0.0720133 1.45109 0.264664 1.0469C0.513758 0.621602 0.871161 0.296966 1.36421 0.158667C1.88494 0.0395524 2.42661 0.0957311 2.87999 0.371885ZM1.38171 1.50754C1.31588 1.66844 1.31219 1.81685 1.33788 1.98724C1.42215 2.15141 1.50918 2.25546 1.68852 2.32257C1.88501 2.34806 2.03257 2.34396 2.21204 2.2597C2.34291 2.14675 2.41682 2.0714 2.44108 1.90036C2.45144 1.68733 2.42753 1.55495 2.27292 1.39111C2.12342 1.26496 1.9755 1.26022 1.78349 1.26623C1.60183 1.29129 1.49949 1.37989 1.38171 1.50754ZM16.8487 2.6253C16.7829 2.7862 16.7792 2.9346 16.8049 3.105C16.89 3.2708 16.9786 3.36556 17.1556 3.44032C17.3238 3.48586 17.4338 3.48661 17.5914 3.41937C17.7415 3.33714 17.8241 3.25919 17.8958 3.105C17.9266 2.91662 17.9184 2.77646 17.83 2.60434C17.7119 2.47918 17.6331 2.4085 17.4543 2.3853C17.1852 2.37334 17.0308 2.42803 16.8487 2.6253ZM6.77656 5.43553C5.98231 6.31316 5.59241 7.42339 5.66242 8.582C5.77137 9.7223 6.32153 10.7301 7.20255 11.4998C8.11724 12.2269 9.27446 12.6084 10.4625 12.5148C11.6601 12.4001 12.7679 11.8728 13.5405 10.9786C14.3044 10.0374 14.6751 8.89526 14.5273 7.70584C14.3492 6.5401 13.6976 5.52688 12.7141 4.81889C10.8469 3.58607 8.3206 3.80369 6.77656 5.43553ZM17.8227 11.9772C17.7566 12.1388 17.7488 12.2859 17.7789 12.4569C17.8572 12.6191 17.954 12.7264 18.1295 12.7922C18.3229 12.8184 18.4768 12.8121 18.6531 12.7293C18.8175 12.5875 18.8765 12.4865 18.8893 12.2752C18.884 12.1064 18.8404 12.0068 18.7328 11.8747C18.5791 11.7386 18.4274 11.7329 18.2259 11.7372C18.043 11.7596 17.9408 11.8492 17.8227 11.9772ZM13.9657 15.703C13.8999 15.8639 13.8962 16.0123 13.9219 16.1827C14.0062 16.3469 14.0932 16.4509 14.2725 16.5181C14.469 16.5435 14.6166 16.5394 14.7961 16.4552C14.9224 16.3461 14.9857 16.2493 15.0469 16.0989C15.0544 15.9395 15.0081 15.8037 14.9348 15.6611C14.7515 15.49 14.6205 15.4616 14.3716 15.4643C14.1868 15.4839 14.0847 15.5741 13.9657 15.703ZM1.96124 16.0337C1.84374 16.1985 1.8087 16.359 1.84436 16.5553C1.89652 16.6899 1.9714 16.791 2.08299 16.8883C2.2516 16.9479 2.40716 16.9524 2.5846 16.9279C2.75828 16.8464 2.85544 16.7612 2.93523 16.5926C2.99146 16.4197 2.96792 16.3019 2.89734 16.1392C2.82393 16.014 2.71589 15.9474 2.5846 15.8847C2.33588 15.8586 2.15262 15.8641 1.96124 16.0337Z" fill="#00529C"/>
<path d="M9.6249 7.40995C10.0116 7.65223 10.319 7.9926 10.4343 8.42962C10.5439 8.94658 10.4787 9.39872 10.1818 9.84878C9.87974 10.2398 9.49225 10.4862 8.9915 10.5742C8.46853 10.6379 8.00375 10.519 7.58073 10.2198C7.23449 9.94012 6.98241 9.58026 6.94107 9.14076C6.9075 8.62035 6.98412 8.20377 7.32734 7.78254C7.90699 7.16034 8.85969 6.99284 9.6249 7.40995ZM8.22159 8.58665C8.13641 8.74392 8.12313 8.89287 8.15584 9.06636C8.24217 9.23146 8.33041 9.32551 8.50648 9.40168C8.68714 9.45543 8.81105 9.43361 8.9807 9.36457C9.14042 9.28069 9.20889 9.15907 9.26376 8.99883C9.30143 8.82528 9.26772 8.69362 9.1688 8.54474C9.06221 8.42845 8.95883 8.36818 8.79853 8.34331C8.52976 8.33412 8.38546 8.37488 8.22159 8.58665Z" fill="#00529C"/>
<path d="M11.8181 6.6073C12.2166 6.6073 12.6152 6.6073 13.0258 6.6073C13.0258 6.98845 13.0258 7.3696 13.0258 7.76231C12.6273 7.76231 12.2287 7.76231 11.8181 7.76231C11.8181 7.38115 11.8181 7 11.8181 6.6073Z" fill="#00529C"/>
<path d="M9.44152 5.11696C9.84008 5.11696 10.2386 5.11696 10.6493 5.11696C10.6493 5.49811 10.6493 5.87927 10.6493 6.27197C10.2507 6.27197 9.85215 6.27197 9.44152 6.27197C9.44152 5.89082 9.44152 5.50966 9.44152 5.11696Z" fill="#00529C"/>
<path d="M11.6233 9.06636C12.0218 9.06636 12.4204 9.06636 12.831 9.06636C12.8318 9.25002 12.8326 9.43368 12.8335 9.6229C12.8338 9.68092 12.8342 9.73894 12.8345 9.79871C12.8346 9.844 12.8347 9.8893 12.8348 9.93596C12.8351 10.0059 12.8351 10.0059 12.8354 10.0773C12.831 10.1841 12.831 10.1841 12.7921 10.2214C12.7056 10.2246 12.6191 10.2254 12.5326 10.225C12.4852 10.2249 12.4379 10.2248 12.3891 10.2247C12.3284 10.2244 12.2677 10.224 12.2052 10.2237C12.0132 10.2229 11.8211 10.2222 11.6233 10.2214C11.6233 9.84021 11.6233 9.45906 11.6233 9.06636Z" fill="#00529C"/>
<path d="M2.87999 0.371885C3.27565 0.649865 3.52438 1.00652 3.63651 1.46562C3.64687 1.57687 3.64743 1.687 3.64625 1.79862C3.6467 1.84109 3.6467 1.84109 3.64716 1.88442C3.64647 2.07915 3.61471 2.24715 3.55859 2.43435C3.86608 2.70646 3.86608 2.70646 4.17951 2.97227C4.34247 3.10729 4.49997 3.24779 4.65804 3.38798C4.79492 3.50916 4.9336 3.62781 5.07467 3.74451C5.20073 3.8506 5.32388 3.95971 5.44743 4.06846C5.62116 4.22122 5.79704 4.37159 5.9741 4.52082C6.02713 4.47702 6.02713 4.47702 6.08124 4.43233C6.10635 4.41187 6.13146 4.39141 6.15733 4.37033C6.22134 4.31807 6.28502 4.26544 6.34848 4.21256C7.41441 3.3392 8.67046 2.87328 10.0795 2.87213C10.1073 2.87211 10.1351 2.87208 10.1638 2.87206C10.5943 2.87267 11.0099 2.88987 11.4285 2.99322C11.4545 2.99962 11.4805 3.00601 11.5073 3.0126C12.5856 3.288 13.4935 3.84013 14.2725 4.59534C14.6066 4.45342 14.8835 4.16664 15.1488 3.93167C15.2806 3.82175 15.4231 3.72758 15.5684 3.63462C15.652 3.55146 15.652 3.55146 15.6279 3.41427C15.6229 3.38829 15.6178 3.36231 15.6126 3.33554C15.5196 2.84471 15.593 2.35669 15.8796 1.93834C16.169 1.57164 16.5315 1.34841 16.9997 1.24207C17.5438 1.18607 18.0265 1.25962 18.4706 1.58104C18.7893 1.83917 19.0746 2.21487 19.1104 2.62494C19.1261 3.17732 19.0804 3.58799 18.7139 4.03646C18.6953 4.05942 18.6767 4.08238 18.6575 4.10603C18.3424 4.4476 17.884 4.5974 17.4217 4.62969C17.0788 4.63637 16.7739 4.55837 16.4543 4.4463C16.4311 4.46662 16.408 4.48694 16.3841 4.50787C16.1756 4.68933 15.9623 4.86274 15.7431 5.03225C15.602 5.14397 15.4667 5.26126 15.3319 5.3798C15.2542 5.44577 15.1748 5.5058 15.0907 5.56406C15.1161 5.74534 15.1953 5.8942 15.2757 6.05773C15.8422 7.25008 15.9393 8.64746 15.5065 9.89536C15.4785 10.0048 15.4745 10.0445 15.5192 10.1469C15.601 10.2068 15.601 10.2068 15.7057 10.2556C15.7446 10.2753 15.7835 10.2949 15.8236 10.3152C15.8654 10.3357 15.9072 10.3563 15.9502 10.3774C16.0358 10.4202 16.1213 10.4631 16.2068 10.506C16.2489 10.5271 16.2911 10.5482 16.3345 10.5699C16.4408 10.6243 16.5447 10.6809 16.6482 10.7401C16.6903 10.7641 16.6903 10.7641 16.7334 10.7885C16.7847 10.818 16.8357 10.8479 16.8863 10.8784C16.9974 10.9415 17.054 10.9718 17.1826 10.9433C17.2623 10.8978 17.34 10.8519 17.4161 10.8012C17.8338 10.5517 18.3341 10.5324 18.8104 10.6184C19.2514 10.7448 19.6293 11.014 19.862 11.3957C20.0983 11.8339 20.1523 12.2854 20.0507 12.7712C20.0151 12.8712 19.9743 12.9602 19.9217 13.053C19.9052 13.0822 19.8887 13.1114 19.8716 13.1415C19.6298 13.5229 19.2453 13.8047 18.796 13.9307C18.3251 14.0257 17.8161 13.9719 17.4036 13.7407C16.9672 13.4685 16.6849 13.0952 16.5712 12.6059C16.5825 12.5174 16.5939 12.4289 16.6052 12.3404C16.5979 12.1826 16.5979 12.1826 16.5322 12.047C16.2978 11.8561 16.0005 11.7433 15.7234 11.6206C15.5322 11.5329 15.3508 11.431 15.1686 11.3275C15.1077 11.2935 15.0469 11.2594 14.986 11.2255C14.9221 11.1895 14.9221 11.1895 14.8569 11.1528C14.8479 11.1786 14.8388 11.2044 14.8295 11.231C14.7685 11.3616 14.6863 11.4678 14.5939 11.579C14.5752 11.6016 14.5565 11.6241 14.5372 11.6474C14.1757 12.0739 13.7634 12.4345 13.2985 12.7549C13.3524 12.9262 13.4255 13.074 13.5163 13.2301C13.5298 13.2534 13.5432 13.2766 13.5571 13.3005C13.5998 13.3741 13.6427 13.4476 13.6857 13.5211C13.7144 13.5705 13.7431 13.62 13.7718 13.6695C13.9153 13.9185 13.9153 13.9185 14.0673 14.1629C14.1167 14.2453 14.1167 14.2453 14.1167 14.3198C14.1619 14.3181 14.2071 14.3163 14.2537 14.3146C14.832 14.299 15.2934 14.3862 15.7288 14.7752C16.1089 15.1531 16.2375 15.5568 16.2595 16.071C16.2415 16.535 16.0232 16.9245 15.6915 17.2561C15.3445 17.5564 14.941 17.6951 14.4771 17.6917C14.4431 17.6915 14.4091 17.6913 14.3741 17.691C13.8773 17.678 13.5066 17.4907 13.1541 17.1644C12.8437 16.845 12.6986 16.439 12.6995 16.0081C12.6996 15.9787 12.6997 15.9494 12.6997 15.9192C12.7063 15.6174 12.77 15.3352 12.9601 15.0883C13.0368 14.9954 13.0368 14.9954 13.0188 14.888C12.9824 14.75 12.9264 14.6445 12.8535 14.5205C12.8402 14.4976 12.8269 14.4748 12.8132 14.4512C12.7708 14.3785 12.7278 14.3061 12.6849 14.2336C12.6567 14.1855 12.6285 14.1373 12.6003 14.089C12.5462 13.9965 12.4919 13.9041 12.4374 13.8118C12.3471 13.6586 12.2577 13.5049 12.1687 13.3511C12.143 13.3581 12.1173 13.3652 12.0908 13.3725C11.8555 13.4365 11.6185 13.491 11.3798 13.542C11.3503 13.5484 11.3209 13.5547 11.2905 13.5613C11.2619 13.5673 11.2333 13.5734 11.2038 13.5796C11.1786 13.5849 11.1534 13.5903 11.1274 13.5958C10.7947 13.6564 10.4654 13.6582 10.1282 13.6585C10.0984 13.6585 10.0685 13.6585 10.0378 13.6585C9.6073 13.658 9.19705 13.646 8.7792 13.5374C8.74 13.5272 8.74 13.5272 8.70001 13.5168C8.20599 13.3856 7.74485 13.2034 7.29819 12.9632C7.15176 12.8853 7.15176 12.8853 6.98705 12.8667C6.92352 12.9096 6.92352 12.9096 6.86154 12.9703C6.83668 12.9933 6.81182 13.0162 6.78621 13.0399C6.75919 13.0655 6.73216 13.091 6.70432 13.1173C6.67567 13.144 6.64703 13.1706 6.61752 13.1981C6.52257 13.2867 6.4281 13.3757 6.33371 13.4649C6.30149 13.4953 6.26926 13.5256 6.23606 13.5569C6.06553 13.7177 5.8954 13.8788 5.72555 14.0401C5.54987 14.2069 5.37288 14.3723 5.19555 14.5375C5.05958 14.6646 4.92466 14.7927 4.79 14.9211C4.72519 14.9825 4.65999 15.0435 4.5944 15.1042C4.50266 15.1892 4.41251 15.2755 4.3226 15.3623C4.28147 15.3995 4.28147 15.3995 4.23951 15.4374C4.09886 15.575 4.09886 15.575 4.06605 15.7582C4.08556 15.853 4.11196 15.9419 4.14299 16.0337C4.22633 16.5443 4.14433 17.0212 3.83131 17.4495C3.54942 17.7829 3.1399 18.0379 2.68937 18.0941C2.59809 18.0991 2.508 18.1004 2.41658 18.0992C2.38432 18.0989 2.35205 18.0986 2.31881 18.0983C1.83438 18.0856 1.45673 17.9199 1.10413 17.6031C0.724691 17.216 0.608563 16.7607 0.62215 16.2443C0.650117 15.7805 0.877807 15.4144 1.2274 15.1012C1.57568 14.8229 1.95034 14.723 2.39467 14.7203C2.44167 14.7192 2.44167 14.7192 2.48963 14.718C2.75145 14.7164 2.90083 14.7645 3.16899 14.8414C4.12039 13.9316 5.07179 13.0217 6.05202 12.0843C5.97488 11.9982 5.89774 11.9122 5.81826 11.8235C4.81532 10.6324 4.31591 9.21067 4.47278 7.67644C4.55591 6.99428 4.74723 6.2315 5.14696 5.65007C5.20302 5.56937 5.20302 5.56937 5.18543 5.49112C5.15163 5.40389 5.1156 5.36574 5.04378 5.30369C5.0209 5.28365 4.99802 5.26362 4.97445 5.24299C4.94997 5.22214 4.92549 5.2013 4.90027 5.17983C4.86276 5.14724 4.86276 5.14724 4.82449 5.11398C4.67841 4.98743 4.53073 4.86267 4.38146 4.73957C4.26774 4.64363 4.15677 4.54493 4.04559 4.4463C3.88654 4.30525 3.72636 4.16614 3.56209 4.03064C3.4762 3.95817 3.39227 3.88382 3.30837 3.80925C3.11419 3.63687 2.91762 3.47563 2.70148 3.32855C2.6605 3.34622 2.61951 3.3639 2.57729 3.38211C2.20288 3.54359 1.6434 3.54326 1.25753 3.41937C0.768652 3.21238 0.413644 2.88473 0.20455 2.41499C0.042816 1.99346 0.0720133 1.45109 0.264664 1.0469C0.513758 0.621602 0.871161 0.296966 1.36421 0.158667C1.88494 0.0395524 2.42661 0.0957311 2.87999 0.371885ZM1.38171 1.50754C1.31588 1.66844 1.31219 1.81685 1.33788 1.98724C1.42215 2.15141 1.50918 2.25546 1.68852 2.32257C1.88501 2.34806 2.03257 2.34396 2.21204 2.2597C2.34291 2.14675 2.41682 2.0714 2.44108 1.90036C2.45144 1.68733 2.42753 1.55495 2.27292 1.39111C2.12342 1.26496 1.9755 1.26022 1.78349 1.26623C1.60183 1.29129 1.49949 1.37989 1.38171 1.50754ZM16.8487 2.6253C16.7829 2.7862 16.7792 2.9346 16.8049 3.105C16.89 3.2708 16.9786 3.36556 17.1556 3.44032C17.3238 3.48586 17.4338 3.48661 17.5914 3.41937C17.7415 3.33714 17.8241 3.25919 17.8958 3.105C17.9266 2.91662 17.9184 2.77646 17.83 2.60434C17.7119 2.47918 17.6331 2.4085 17.4543 2.3853C17.1852 2.37334 17.0308 2.42803 16.8487 2.6253ZM6.77656 5.43553C5.98231 6.31316 5.59241 7.42339 5.66242 8.582C5.77137 9.7223 6.32153 10.7301 7.20255 11.4998C8.11724 12.2269 9.27446 12.6084 10.4625 12.5148C11.6601 12.4001 12.7679 11.8728 13.5405 10.9786C14.3044 10.0374 14.6751 8.89526 14.5273 7.70584C14.3492 6.5401 13.6976 5.52688 12.7141 4.81889C10.8469 3.58607 8.3206 3.80369 6.77656 5.43553ZM17.8227 11.9772C17.7566 12.1388 17.7488 12.2859 17.7789 12.4569C17.8572 12.6191 17.954 12.7264 18.1295 12.7922C18.3229 12.8184 18.4768 12.8121 18.6531 12.7293C18.8175 12.5875 18.8765 12.4865 18.8893 12.2752C18.884 12.1064 18.8404 12.0068 18.7328 11.8747C18.5791 11.7386 18.4274 11.7329 18.2259 11.7372C18.043 11.7596 17.9408 11.8492 17.8227 11.9772ZM13.9657 15.703C13.8999 15.8639 13.8962 16.0123 13.9219 16.1827C14.0062 16.3469 14.0932 16.4509 14.2725 16.5181C14.469 16.5435 14.6166 16.5394 14.7961 16.4552C14.9224 16.3461 14.9857 16.2493 15.0469 16.0989C15.0544 15.9395 15.0081 15.8037 14.9348 15.6611C14.7515 15.49 14.6205 15.4616 14.3716 15.4643C14.1868 15.4839 14.0847 15.5741 13.9657 15.703ZM1.96124 16.0337C1.84374 16.1985 1.8087 16.359 1.84436 16.5553C1.89652 16.6899 1.9714 16.791 2.08299 16.8883C2.2516 16.9479 2.40716 16.9524 2.5846 16.9279C2.75828 16.8464 2.85544 16.7612 2.93523 16.5926C2.99146 16.4197 2.96792 16.3019 2.89734 16.1392C2.82393 16.014 2.71589 15.9474 2.5846 15.8847C2.33588 15.8586 2.15262 15.8641 1.96124 16.0337Z" stroke="#00529C" stroke-width="0.2" mask="url(#path-1-outside-1_933_11422)"/>
<path d="M9.6249 7.40995C10.0116 7.65223 10.319 7.9926 10.4343 8.42962C10.5439 8.94658 10.4787 9.39872 10.1818 9.84878C9.87974 10.2398 9.49225 10.4862 8.9915 10.5742C8.46853 10.6379 8.00375 10.519 7.58073 10.2198C7.23449 9.94012 6.98241 9.58026 6.94107 9.14076C6.9075 8.62035 6.98412 8.20377 7.32734 7.78254C7.90699 7.16034 8.85969 6.99284 9.6249 7.40995ZM8.22159 8.58665C8.13641 8.74392 8.12313 8.89287 8.15584 9.06636C8.24217 9.23146 8.33041 9.32551 8.50648 9.40168C8.68714 9.45543 8.81105 9.43361 8.9807 9.36457C9.14042 9.28069 9.20889 9.15907 9.26376 8.99883C9.30143 8.82528 9.26772 8.69362 9.1688 8.54474C9.06221 8.42845 8.95883 8.36818 8.79853 8.34331C8.52976 8.33412 8.38546 8.37488 8.22159 8.58665Z" stroke="#00529C" stroke-width="0.2" mask="url(#path-1-outside-1_933_11422)"/>
<path d="M11.8181 6.6073C12.2166 6.6073 12.6152 6.6073 13.0258 6.6073C13.0258 6.98845 13.0258 7.3696 13.0258 7.76231C12.6273 7.76231 12.2287 7.76231 11.8181 7.76231C11.8181 7.38115 11.8181 7 11.8181 6.6073Z" stroke="#00529C" stroke-width="0.2" mask="url(#path-1-outside-1_933_11422)"/>
<path d="M9.44152 5.11696C9.84008 5.11696 10.2386 5.11696 10.6493 5.11696C10.6493 5.49811 10.6493 5.87927 10.6493 6.27197C10.2507 6.27197 9.85215 6.27197 9.44152 6.27197C9.44152 5.89082 9.44152 5.50966 9.44152 5.11696Z" stroke="#00529C" stroke-width="0.2" mask="url(#path-1-outside-1_933_11422)"/>
<path d="M11.6233 9.06636C12.0218 9.06636 12.4204 9.06636 12.831 9.06636C12.8318 9.25002 12.8326 9.43368 12.8335 9.6229C12.8338 9.68092 12.8342 9.73894 12.8345 9.79871C12.8346 9.844 12.8347 9.8893 12.8348 9.93596C12.8351 10.0059 12.8351 10.0059 12.8354 10.0773C12.831 10.1841 12.831 10.1841 12.7921 10.2214C12.7056 10.2246 12.6191 10.2254 12.5326 10.225C12.4852 10.2249 12.4379 10.2248 12.3891 10.2247C12.3284 10.2244 12.2677 10.224 12.2052 10.2237C12.0132 10.2229 11.8211 10.2222 11.6233 10.2214C11.6233 9.84021 11.6233 9.45906 11.6233 9.06636Z" stroke="#00529C" stroke-width="0.2" mask="url(#path-1-outside-1_933_11422)"/>
</svg>
