<svg width="99" height="33" viewBox="0 0 99 33" fill="none" xmlns="http://www.w3.org/2000/svg">
<rect width="99" height="33" rx="16.5" fill="#00529C"/>
<path d="M73.5599 25.3966C70.4741 25.9887 67.3622 26.3492 64.1979 26.4779C61.0336 26.6324 57.8693 26.6066 54.7312 26.4007C51.5669 26.2204 48.4288 25.9115 45.3169 25.4738C43.7478 25.2678 42.231 25.0104 40.662 24.7529C39.0929 24.5212 37.5239 24.2895 35.9287 24.0835C34.8565 23.9548 33.6535 23.826 32.5552 23.7488C32.5552 23.7488 32.5552 23.7488 32.5552 23.7231C33.2351 22.2813 33.6797 21.0712 33.732 20.9682L37.0793 12.8324H35.5887L32.7382 19.9641L32.1106 18.4193L29.8878 12.8066H28.3972L32.006 21.5604L31.9275 21.7663C31.8491 21.9466 31.7968 22.1268 31.7183 22.3328C31.5091 22.8477 31.2215 23.4913 31.1692 23.6201C30.7246 23.6201 30.28 23.6201 29.8355 23.6201C29.5217 23.6201 29.2078 23.6458 28.894 23.6973C28.5802 23.7231 28.2664 23.7746 27.9526 23.826C27.325 23.929 26.7235 24.0835 26.122 24.2895C25.4944 24.4697 24.9191 24.8559 24.5007 25.3451C24.2915 25.6025 24.1607 25.9372 24.1084 26.2719C24.1084 26.3492 24.1084 26.4264 24.1084 26.5037V26.6324C24.1084 26.6839 24.1084 26.7354 24.1084 26.7869C24.1345 26.9671 24.1869 27.1216 24.2915 27.276C24.4484 27.585 24.7099 27.8425 25.0237 28.0227C25.3113 28.2029 25.6513 28.3059 25.9913 28.3574C26.3312 28.4089 26.645 28.4346 26.985 28.4089C27.1419 28.4089 27.325 28.4089 27.4819 28.3574C27.6388 28.3574 27.8218 28.3059 27.9787 28.2801C28.6325 28.1257 29.2601 27.8425 29.8093 27.482C30.3585 27.1473 30.8292 26.7096 31.2476 26.2462C31.666 25.757 31.9014 25.3193 32.1106 24.8816C33.3136 25.0104 34.5427 25.1134 35.7456 25.2678C37.3147 25.4481 38.8576 25.654 40.4266 25.9115C41.9695 26.1432 43.5647 26.4007 45.1338 26.6066C48.2981 27.0186 51.4885 27.3018 54.7051 27.4305C57.9216 27.5593 61.1382 27.5335 64.3286 27.3275C67.5191 27.1216 70.6833 26.6581 73.7953 25.963C76.855 25.2421 80.2285 24.238 82.8697 22.8734V22.719C80.1238 23.929 76.6719 24.8044 73.6123 25.4223L73.5599 25.3966ZM29.1294 26.6839C28.711 27.0701 28.2403 27.3533 27.7172 27.5593C27.5865 27.6107 27.4557 27.6365 27.325 27.688C27.1681 27.7137 27.0373 27.7395 26.9066 27.7652C26.6973 27.791 26.4881 27.8167 26.2789 27.8167C26.2005 27.8167 26.122 27.8167 26.0436 27.8167C25.8082 27.8167 25.5729 27.7652 25.3636 27.6622C25.3113 27.6622 25.259 27.6107 25.2067 27.585C24.9975 27.4563 24.8145 27.3018 24.6837 27.0958C24.6053 26.9928 24.5791 26.8641 24.5268 26.7354C24.5268 26.6066 24.5268 26.4779 24.5268 26.3492C24.5268 26.2977 24.5268 26.2204 24.553 26.169C24.6053 25.963 24.6837 25.7828 24.8145 25.6025C25.1806 25.1648 25.6775 24.8301 26.2528 24.7014C26.8281 24.5469 27.4296 24.4697 28.0311 24.444C28.3187 24.444 28.6325 24.444 28.9202 24.444C29.234 24.444 29.5217 24.4954 29.8355 24.5212C30.097 24.5212 30.5154 24.5727 30.7769 24.6242C30.3846 25.3966 29.8355 26.0917 29.1555 26.6839H29.1294Z" fill="white"/>
<path d="M49.3699 22.5132C50.5206 21.8438 51.462 20.8654 52.0373 19.6553H50.4683C49.9452 20.4792 49.213 21.1486 48.35 21.5863C47.4609 22.0755 46.441 22.333 45.4211 22.333C43.7736 22.3587 42.2045 21.715 41.0801 20.5822C39.9033 19.4494 39.2756 17.8788 39.3018 16.2568C39.2756 14.6348 39.9033 13.0643 41.0801 11.9315C42.9891 10.052 45.918 9.6143 48.2716 10.9016C49.1346 11.3393 49.8406 11.983 50.3375 12.7811H51.9066C51.3574 11.5968 50.4421 10.6184 49.2915 9.97474C48.1408 9.25385 46.781 8.86765 45.4211 8.86765C43.4075 8.81616 41.4462 9.58855 40.034 11.0046C38.5957 12.3691 37.785 14.2744 37.8112 16.2311C37.785 18.1878 38.5696 20.093 40.034 21.4576C42.5445 23.852 46.4149 24.2897 49.3961 22.4617L49.3699 22.5132Z" fill="white"/>
<path d="M54.1557 17.7754C54.1557 16.5138 54.4434 15.5355 55.0187 14.8403C55.5941 14.1452 56.457 13.8105 57.4769 13.8105C58.4968 13.8105 59.3336 14.1452 59.909 14.8146C60.4843 15.484 60.7981 16.4366 60.7981 17.6209V23.3881H62.1841V17.6724C62.1841 16.0761 61.7657 14.8403 60.955 13.9392C60.1443 13.0381 58.9675 12.6004 57.5031 12.6004C56.0386 12.6004 55.1233 13.0638 54.3911 13.9649L54.1819 14.2224V9.15039H52.7959V23.3881H54.1819V17.7754H54.1557Z" fill="white"/>
<path d="M68.9573 23.6198C70.4479 23.6456 71.8862 23.0791 72.9061 22.0235C73.0369 21.8948 73.1415 21.7661 73.2722 21.6116V23.3623H74.6582V12.8579H73.2722V14.6344L72.9061 14.2224C71.8862 13.1668 70.4479 12.5747 68.9573 12.6261C65.8976 12.6004 63.361 15.0206 63.3348 18.0329C63.3348 18.0586 63.3348 18.1101 63.3348 18.1358C63.3087 19.6034 63.884 21.0194 64.9562 22.0493C66.0022 23.1049 67.4405 23.6713 68.9573 23.6456V23.6198ZM65.9499 15.072C67.6236 13.3985 70.3433 13.3985 72.0431 15.0463C72.0431 15.0463 72.0431 15.0463 72.0693 15.072C72.9061 15.8959 73.3507 17.003 73.3245 18.1358C73.3245 19.2944 72.9061 20.4015 72.0693 21.2254C70.3956 22.8989 67.6759 22.8989 65.9761 21.2511C65.9761 21.2511 65.9761 21.2511 65.9499 21.2254C65.1131 20.4015 64.6685 19.2944 64.6947 18.1616C64.6947 17.003 65.1131 15.8959 65.9499 15.072Z" fill="white"/>
<path d="M78.1892 23.3889V18.0337C78.1892 16.9523 78.4768 15.7937 79.0783 15.2273C79.6013 14.7124 80.3335 14.1975 81.2488 14.1202V12.9359C80.0459 12.9874 79.1568 13.3478 78.6076 14.0687C78.4507 14.2747 78.3199 14.4807 78.2153 14.7381V12.9102H76.8555V23.4404H78.2415L78.1892 23.3889Z" fill="white"/>
<path d="M85.0145 12.8585V9.17676H83.6285V12.8585H81.6934V14.0685H83.6285V23.3887H85.0145V14.0685H87.5512V12.8585H85.0145Z" fill="white"/>
<path d="M25.7299 13.013C25.7299 13.013 25.6515 14.0686 25.6515 14.7895V23.3888H27.2728V9.38281H27.0113L19.7936 18.3425L12.5498 9.38281H12.3145V23.3888H13.9358V14.7895C13.9358 14.0944 13.8312 13.013 13.8312 13.013C14.1712 13.5795 14.5634 14.0944 14.9557 14.6351L19.6367 20.5309H19.9244L24.6577 14.6351C25.05 14.1201 25.4161 13.5795 25.7561 13.0388L25.7299 13.013Z" fill="white"/>
</svg>
