<svg width="21" height="23" viewBox="0 0 21 23" fill="none" xmlns="http://www.w3.org/2000/svg">
<mask id="path-1-outside-1_933_11425" maskUnits="userSpaceOnUse" x="-0.799805" y="-0.800781" width="22" height="24" fill="black">
<rect fill="white" x="-0.799805" y="-0.800781" width="22" height="24"/>
<path d="M10.865 0.410822C10.934 0.446161 11.0029 0.481734 11.0717 0.51752C11.2555 0.61313 11.4407 0.70592 11.6256 0.799203C11.6817 0.82762 11.6817 0.82762 11.7389 0.85661C12.092 1.03522 12.4498 1.20232 12.81 1.36586C12.8687 1.39258 12.9275 1.41929 12.9862 1.44601C13.0707 1.48448 13.1553 1.52292 13.24 1.5613C13.4395 1.65183 13.6379 1.74449 13.8361 1.83784C15.416 2.57985 17.0297 3.25876 18.6534 3.89645C18.6863 3.90941 18.7192 3.92238 18.7531 3.93573C18.9059 3.99582 19.0588 4.05548 19.2121 4.11428C19.2655 4.13512 19.319 4.15598 19.3724 4.17684C19.441 4.20322 19.441 4.20322 19.511 4.23013C19.6736 4.30738 19.8137 4.38856 19.8909 4.55697C20.1375 5.67737 20.204 6.8378 20.2 7.98246C20.2 8.02782 20.1999 8.07318 20.1998 8.11992C20.1979 8.9125 20.1602 9.69201 20.0592 10.4781C20.05 10.5504 20.05 10.5504 20.0406 10.6242C19.6281 13.7364 18.3012 16.6684 16.0933 18.8865C16.0701 18.91 16.0469 18.9334 16.023 18.9575C15.6865 19.2964 15.3441 19.6098 14.959 19.8913C14.8936 19.944 14.8282 19.9967 14.763 20.0497C13.6493 20.9449 12.3113 21.5997 10.9665 22.0484C10.8929 22.0734 10.8929 22.0734 10.8178 22.0988C10.2585 22.2779 9.87271 22.1987 9.32756 22.0081C9.29694 21.9976 9.26632 21.9871 9.23478 21.9763C8.62907 21.7679 8.04952 21.517 7.47874 21.2237C7.44347 21.2056 7.4082 21.1875 7.37186 21.1689C6.37506 20.6493 5.43877 19.9743 4.62681 19.1926C4.51178 19.0824 4.39421 18.9762 4.27517 18.8704C4.12368 18.733 3.98719 18.5905 3.85613 18.4332C3.77257 18.3337 3.68532 18.2383 3.5978 18.1424C2.91266 17.3693 2.33454 16.4737 1.86852 15.55C1.84243 15.4985 1.84243 15.4985 1.81583 15.446C0.917483 13.6516 0.445326 11.6974 0.253452 9.70444C0.249069 9.6591 0.244686 9.61376 0.24017 9.56704C0.198873 9.07202 0.200636 8.57563 0.200325 8.07917C0.200282 8.03175 0.200239 7.98432 0.200195 7.93546C0.200805 6.93355 0.263462 5.95603 0.420803 4.96564C0.42698 4.92568 0.433157 4.88572 0.439522 4.84455C0.477281 4.6318 0.50967 4.47639 0.678469 4.33165C0.837721 4.24862 1.00271 4.18419 1.16989 4.11942C1.2471 4.08855 1.3243 4.05769 1.40149 4.02679C1.48473 3.99358 1.56808 3.96067 1.65146 3.92783C1.95477 3.80821 2.25689 3.68557 2.55917 3.56334C2.60645 3.54424 2.60645 3.54424 2.65469 3.52476C4.63551 2.72456 6.59455 1.85949 8.51472 0.919923C8.56491 0.895412 8.6151 0.870902 8.66681 0.845648C8.89672 0.73302 9.12583 0.619125 9.35363 0.502188C9.3939 0.481875 9.43418 0.461561 9.47568 0.440632C9.54896 0.403637 9.62192 0.365993 9.69445 0.32751C10.1393 0.104794 10.4392 0.19764 10.865 0.410822ZM9.94815 1.29652C9.88307 1.32998 9.88307 1.32998 9.81666 1.36412C9.76922 1.38863 9.72177 1.41314 9.67289 1.4384C9.10477 1.72844 8.53033 2.00265 7.95135 2.26987C7.8553 2.31423 7.75931 2.35869 7.66331 2.40317C6.18403 3.08812 4.69233 3.73929 3.18607 4.3612C3.14253 4.37918 3.09898 4.39715 3.05412 4.41568C2.30474 4.72471 2.30474 4.72471 1.98058 4.85022C1.9272 4.87091 1.9272 4.87091 1.87275 4.89202C1.80631 4.91764 1.7398 4.94305 1.67319 4.9682C1.50112 5.03378 1.50112 5.03379 1.3585 5.14831C1.33551 5.24719 1.33551 5.24719 1.3238 5.36272C1.31587 5.42833 1.31587 5.42833 1.30778 5.49528C1.3026 5.54123 1.29742 5.58719 1.29209 5.63455C1.28675 5.67868 1.2814 5.72281 1.2759 5.76828C1.21627 6.27373 1.18189 6.7763 1.17986 7.28534C1.17956 7.33558 1.17926 7.38583 1.17896 7.4376C1.17822 7.59862 1.17795 7.75964 1.17786 7.92067C1.17782 7.97562 1.17778 8.03056 1.17773 8.08717C1.17815 8.87913 1.19704 9.65132 1.31599 10.4351C1.32748 10.52 1.33894 10.6048 1.35036 10.6897C1.56391 12.187 2.01625 13.6354 2.67605 14.9913C2.70103 15.0427 2.70103 15.0427 2.72652 15.0952C3.08677 15.8279 3.53743 16.4974 4.0361 17.1404C4.06969 17.1841 4.10327 17.2278 4.13787 17.2729C4.69756 17.9705 5.35628 18.6342 6.07618 19.1606C6.11607 19.1921 6.15595 19.2236 6.19705 19.2561C7.08595 19.9562 8.10538 20.5057 9.15272 20.9202C9.266 20.9667 9.37618 21.0182 9.48711 21.0701C10.024 21.3029 10.388 21.2649 10.9317 21.0567C11.0709 20.9998 11.2087 20.9403 11.3464 20.8798C11.4158 20.8513 11.4853 20.8228 11.5549 20.7946C12.2965 20.4845 13.0241 20.0951 13.684 19.6334C13.7087 19.6162 13.7333 19.599 13.7587 19.5814C14.795 18.8577 15.7931 17.9619 16.5316 16.9255C16.5625 16.8828 16.5625 16.8828 16.5941 16.8392C16.8948 16.4235 17.176 16 17.4241 15.55C17.4534 15.4971 17.4534 15.4971 17.4832 15.443C18.3025 13.9427 18.7871 12.323 19.0498 10.6339C19.0562 10.5927 19.0627 10.5514 19.0693 10.5089C19.0896 10.3699 19.1074 10.2308 19.1242 10.0913C19.1279 10.0608 19.1316 10.0303 19.1354 9.99887C19.2144 9.32868 19.2243 8.66216 19.2225 7.98783C19.2225 7.90717 19.2225 7.90717 19.2224 7.82488C19.2215 7.06289 19.2054 6.30999 19.0965 5.55492C19.0872 5.4888 19.0795 5.42243 19.074 5.35588C19.0614 5.20397 19.0614 5.20397 18.9745 5.085C18.829 4.99429 18.6764 4.93568 18.5171 4.87413C18.4438 4.84529 18.3706 4.81644 18.2974 4.7876C18.2587 4.77244 18.2199 4.75729 18.18 4.74167C17.9719 4.66021 17.7643 4.57765 17.5568 4.49501C17.5139 4.47794 17.471 4.46086 17.4268 4.44327C15.7112 3.75834 14.0184 3.00757 12.35 2.21267C12.2062 2.14421 12.0624 2.076 11.9185 2.00787C11.788 1.9461 11.6576 1.88424 11.5272 1.82237C11.4646 1.79262 11.4019 1.76288 11.3391 1.73315C11.2512 1.69144 11.1633 1.64965 11.0754 1.60781C11.0339 1.58801 11.0339 1.58801 10.9914 1.56782C10.7712 1.46245 10.5538 1.352 10.3373 1.23892C10.1732 1.16197 10.103 1.21621 9.94815 1.29652Z"/>
<path d="M9.82961 5.67854C9.87369 5.67823 9.87369 5.67823 9.91866 5.67791C9.98052 5.67777 10.0424 5.67816 10.1043 5.67906C10.1986 5.68021 10.2928 5.67907 10.3871 5.6777C10.4474 5.67784 10.5078 5.67812 10.5681 5.67854C10.6226 5.67878 10.6771 5.67902 10.7333 5.67927C10.9146 5.71391 10.9771 5.77867 11.0914 5.92199C11.1397 6.05158 11.1463 6.17117 11.1339 6.30883C11.0637 6.45333 11.0084 6.53669 10.8762 6.62583C10.7939 6.65269 10.7939 6.65269 10.6664 6.65269C10.6664 6.95056 10.6664 7.24843 10.6664 7.55532C10.7926 7.5695 10.9188 7.58369 11.0489 7.5983C11.4557 7.7004 11.8015 7.86457 12.1571 8.08521C12.2976 8.16686 12.2976 8.16686 12.4514 8.20006C12.5255 8.15482 12.5255 8.15482 12.5889 8.08202C12.6133 8.05667 12.6377 8.03133 12.6628 8.00521C12.7002 7.96469 12.7002 7.96469 12.7383 7.92336C12.7767 7.88309 12.7767 7.88309 12.8159 7.84201C12.879 7.77557 12.9416 7.70849 13.004 7.64129C12.9903 7.60843 12.9766 7.57557 12.9625 7.54172C12.9104 7.40369 12.9012 7.31534 12.919 7.16848C12.9921 7.02608 13.0503 6.93554 13.1846 6.8488C13.3505 6.81448 13.4825 6.81011 13.6415 6.8676C13.8056 6.98877 13.9438 7.13138 14.0851 7.27862C14.1237 7.31655 14.1624 7.35447 14.2022 7.39355C14.5108 7.70887 14.5108 7.70887 14.5412 7.91832C14.5309 8.13794 14.4769 8.26406 14.3162 8.41228C14.1643 8.46904 14.0578 8.45421 13.9001 8.4289C13.8054 8.41167 13.8054 8.41167 13.684 8.41497C13.59 8.49489 13.5046 8.57446 13.4184 8.66212C13.3942 8.68528 13.3701 8.70844 13.3453 8.7323C13.2676 8.808 13.2676 8.808 13.174 8.93076C13.1945 9.10172 13.2879 9.22908 13.3758 9.37401C13.6306 9.80987 13.7558 10.229 13.8115 10.736C14.106 10.736 14.4006 10.736 14.704 10.736C14.7181 10.6651 14.7321 10.5942 14.7465 10.5211C14.8398 10.4147 14.9178 10.3271 15.044 10.2632C15.1285 10.2609 15.1285 10.2609 15.2273 10.2686C15.2596 10.2705 15.2919 10.2723 15.3251 10.2743C15.4751 10.3215 15.5399 10.3991 15.6391 10.5211C15.6666 10.6684 15.6666 10.6684 15.6673 10.8354C15.6675 10.8651 15.6677 10.8948 15.6679 10.9255C15.668 10.988 15.6677 11.0506 15.6668 11.1132C15.6656 11.2086 15.6668 11.3038 15.6681 11.3992C15.668 11.4602 15.6677 11.5212 15.6673 11.5822C15.667 11.6374 15.6668 11.6925 15.6666 11.7493C15.6323 11.9327 15.5683 11.9959 15.4266 12.1114C15.2984 12.1604 15.1802 12.167 15.044 12.1544C14.9012 12.0835 14.8187 12.0276 14.7306 11.8938C14.704 11.8106 14.704 11.8106 14.704 11.6816C14.4095 11.6816 14.115 11.6816 13.8115 11.6816C13.7975 11.8093 13.7834 11.9369 13.769 12.0685C13.668 12.4799 13.5057 12.8296 13.2875 13.1892C13.2068 13.3313 13.2068 13.3313 13.174 13.4869C13.2187 13.5617 13.2187 13.5617 13.2907 13.6259C13.3157 13.6506 13.3408 13.6752 13.3666 13.7006C13.4067 13.7384 13.4067 13.7384 13.4476 13.777C13.4741 13.8029 13.5007 13.8288 13.528 13.8554C13.5937 13.9193 13.66 13.9826 13.7265 14.0457C13.759 14.0318 13.7915 14.018 13.8249 14.0037C13.9614 13.951 14.0488 13.9417 14.194 13.9597C14.3348 14.0336 14.4243 14.0926 14.5101 14.2283C14.544 14.3961 14.5484 14.5296 14.4915 14.6904C14.3717 14.8564 14.2307 14.9962 14.0851 15.139C14.0476 15.1781 14.0101 15.2172 13.9715 15.2575C13.6597 15.5695 13.6597 15.5695 13.4526 15.6002C13.2354 15.5899 13.1107 15.5353 12.9641 15.3727C12.908 15.2192 12.9227 15.1115 12.9477 14.952C12.9647 14.8562 12.9647 14.8562 12.9615 14.7334C12.8824 14.6384 12.8037 14.552 12.7171 14.4647C12.6942 14.4404 12.6713 14.416 12.6477 14.3909C12.5728 14.3122 12.5728 14.3122 12.4514 14.2176C12.2824 14.2384 12.1564 14.3328 12.0131 14.4217C11.5822 14.6794 11.1677 14.806 10.6664 14.8623C10.6664 15.1602 10.6664 15.4581 10.6664 15.7649C10.7365 15.7791 10.8066 15.7933 10.8789 15.8079C10.9841 15.9022 11.0708 15.9811 11.1339 16.1088C11.1362 16.1943 11.1362 16.1943 11.1286 16.2942C11.1258 16.3431 11.1258 16.3431 11.1229 16.3931C11.0763 16.5447 10.9995 16.6103 10.8789 16.7106C10.7333 16.7384 10.7333 16.7384 10.5681 16.7391C10.524 16.7394 10.524 16.7394 10.479 16.7397C10.4172 16.7399 10.3553 16.7395 10.2934 16.7386C10.1991 16.7374 10.1049 16.7386 10.0106 16.7399C9.95026 16.7398 9.88994 16.7395 9.82961 16.7391C9.74784 16.7387 9.74784 16.7387 9.66442 16.7384C9.48308 16.7037 9.42061 16.639 9.30631 16.4956C9.25795 16.3661 9.25135 16.2465 9.26381 16.1088C9.33395 15.9643 9.38927 15.8809 9.52148 15.7918C9.60382 15.7649 9.60382 15.7649 9.73133 15.7649C9.73133 15.4671 9.73133 15.1692 9.73133 14.8623C9.6051 14.8481 9.47887 14.8339 9.34881 14.8193C8.94195 14.7172 8.59618 14.5531 8.24062 14.3324C8.10012 14.2508 8.10012 14.2508 7.94626 14.2176C7.87223 14.2628 7.87223 14.2628 7.80879 14.3356C7.78441 14.361 7.76003 14.3863 7.73491 14.4124C7.70998 14.4394 7.68506 14.4665 7.65937 14.4943C7.63379 14.5211 7.6082 14.548 7.58184 14.5756C7.51865 14.6421 7.45613 14.7092 7.39374 14.7764C7.40743 14.8092 7.42113 14.8421 7.43524 14.8759C7.4873 15.014 7.49652 15.1023 7.47874 15.2492C7.40563 15.3916 7.34735 15.4821 7.2131 15.5688C7.04721 15.6032 6.91523 15.6075 6.75621 15.55C6.59206 15.4289 6.45386 15.2863 6.3126 15.139C6.27395 15.1011 6.23529 15.0632 6.19547 15.0241C5.8869 14.7088 5.8869 14.7088 5.85654 14.4993C5.8668 14.2797 5.92075 14.1536 6.0815 14.0054C6.23336 13.9486 6.33985 13.9634 6.49755 13.9887C6.59225 14.006 6.59225 14.006 6.71371 14.0027C6.80765 13.9227 6.89307 13.8432 6.97934 13.7555C7.00345 13.7324 7.02756 13.7092 7.05239 13.6853C7.13014 13.6096 7.13015 13.6096 7.22373 13.4869C7.20315 13.3159 7.10978 13.1886 7.02185 13.0436C6.76705 12.6078 6.64191 12.1887 6.5862 11.6816C6.29167 11.6816 5.99713 11.6816 5.69367 11.6816C5.67964 11.7525 5.66562 11.8235 5.65117 11.8965C5.55793 12.0029 5.47992 12.0906 5.35365 12.1544C5.26915 12.1568 5.26915 12.1568 5.17037 12.1491C5.12196 12.1462 5.12196 12.1462 5.07258 12.1433C4.9226 12.0962 4.85778 12.0185 4.75863 11.8965C4.73113 11.7493 4.73113 11.7493 4.73041 11.5822C4.7302 11.5525 4.73 11.5228 4.72979 11.4922C4.72965 11.4296 4.73004 11.367 4.73093 11.3045C4.73207 11.2091 4.73094 11.1138 4.72958 11.0184C4.72972 10.9574 4.72999 10.8964 4.73041 10.8354C4.73065 10.7803 4.73089 10.7252 4.73113 10.6683C4.76538 10.485 4.82942 10.4218 4.97114 10.3062C5.09928 10.2573 5.21753 10.2506 5.35365 10.2632C5.49654 10.3341 5.57896 10.3901 5.66711 10.5238C5.69367 10.6071 5.69367 10.6071 5.69367 10.736C5.9882 10.736 6.28274 10.736 6.5862 10.736C6.60023 10.6084 6.61426 10.4807 6.62871 10.3492C6.72966 9.93771 6.89199 9.58803 7.11017 9.22844C7.1909 9.08636 7.1909 9.08635 7.22373 8.93076C7.179 8.85589 7.179 8.85589 7.10702 8.79173C7.08195 8.76708 7.05689 8.74242 7.03106 8.71702C7.00435 8.69181 6.97764 8.6666 6.95012 8.64062C6.91031 8.60181 6.91031 8.60181 6.86969 8.56222C6.80399 8.49831 6.73766 8.43508 6.67121 8.37199C6.63872 8.38584 6.60623 8.39969 6.57276 8.41396C6.43626 8.4666 6.3489 8.47593 6.20369 8.45795C6.06288 8.38401 5.97335 8.32507 5.88758 8.18931C5.85365 8.02154 5.84933 7.88807 5.90618 7.72725C6.02599 7.56125 6.167 7.42148 6.3126 7.27862C6.3501 7.23953 6.3876 7.20044 6.42624 7.16017C6.73804 6.84811 6.73804 6.84811 6.94514 6.8174C7.16231 6.82778 7.28702 6.88234 7.43358 7.04491C7.48971 7.19849 7.47504 7.30618 7.45002 7.46566C7.43297 7.56143 7.43297 7.56143 7.43624 7.68427C7.51527 7.77927 7.59395 7.86566 7.68062 7.95291C7.70352 7.97729 7.72643 8.00167 7.75002 8.02678C7.82488 8.10541 7.82487 8.10541 7.94626 8.20006C8.11531 8.17924 8.24125 8.08482 8.38456 7.99589C8.81554 7.73822 9.22996 7.61166 9.73133 7.55532C9.73133 7.25745 9.73133 6.95959 9.73133 6.65269C9.6612 6.63851 9.59107 6.62432 9.51882 6.60971C9.41363 6.51542 9.32694 6.43653 9.26381 6.30883C9.26149 6.22337 9.26149 6.22337 9.26912 6.12347C9.27099 6.09084 9.27285 6.0582 9.27477 6.02458C9.36212 5.74049 9.5587 5.67974 9.82961 5.67854ZM8.2544 9.28267C7.68666 9.90539 7.46782 10.6147 7.50082 11.4514C7.55114 12.172 7.89777 12.7803 8.41378 13.272C8.98876 13.7511 9.66042 13.9783 10.4037 13.9545C11.1852 13.8745 11.8153 13.5124 12.3254 12.908C12.8291 12.2518 12.9403 11.5468 12.8765 10.736C12.7609 9.99859 12.307 9.37448 11.7209 8.93882C10.6054 8.17434 9.21909 8.39678 8.2544 9.28267Z"/>
<path d="M10.7939 11.6386C10.9626 11.7305 11.0647 11.8012 11.1339 11.9825C11.1476 12.1814 11.1143 12.3326 11.009 12.501C10.8246 12.619 10.6666 12.6235 10.4539 12.5843C10.3291 12.507 10.2638 12.4577 10.1988 12.3264C10.1716 12.1041 10.1606 11.9477 10.2971 11.7649C10.4642 11.6431 10.5908 11.6185 10.7939 11.6386Z"/>
<path d="M9.51882 11.2088C9.65536 11.2962 9.71145 11.3586 9.75922 11.5151C9.79086 11.6972 9.78417 11.7893 9.70211 11.9583C9.58987 12.0841 9.51033 12.149 9.34101 12.161C9.17149 12.1446 9.06734 12.1217 8.92114 12.0282C8.80443 11.8416 8.80001 11.6819 8.83879 11.4667C9.00958 11.1846 9.2101 11.1671 9.51882 11.2088Z"/>
<path d="M11.3464 10.3062C11.4766 10.3895 11.4766 10.3895 11.5589 10.5211C11.5978 10.7348 11.5923 10.8957 11.4792 11.0826C11.3211 11.2284 11.1924 11.2264 10.9845 11.2231C10.8789 11.2088 10.8789 11.2088 10.7487 11.1255C10.641 10.9533 10.6055 10.8104 10.6239 10.6071C10.7877 10.2695 11.0037 10.2137 11.3464 10.3062Z"/>
<path d="M9.94384 9.83339C10.0685 9.9106 10.1339 9.95993 10.1988 10.0913C10.225 10.3048 10.2321 10.4679 10.1165 10.6527C9.94622 10.7617 9.80493 10.7976 9.60382 10.779C9.4292 10.6923 9.33449 10.6175 9.26381 10.4351C9.25009 10.2362 9.28335 10.085 9.38866 9.91666C9.57313 9.79864 9.73105 9.79416 9.94384 9.83339Z"/>
</mask>
<path d="M10.865 0.410822C10.934 0.446161 11.0029 0.481734 11.0717 0.51752C11.2555 0.61313 11.4407 0.70592 11.6256 0.799203C11.6817 0.82762 11.6817 0.82762 11.7389 0.85661C12.092 1.03522 12.4498 1.20232 12.81 1.36586C12.8687 1.39258 12.9275 1.41929 12.9862 1.44601C13.0707 1.48448 13.1553 1.52292 13.24 1.5613C13.4395 1.65183 13.6379 1.74449 13.8361 1.83784C15.416 2.57985 17.0297 3.25876 18.6534 3.89645C18.6863 3.90941 18.7192 3.92238 18.7531 3.93573C18.9059 3.99582 19.0588 4.05548 19.2121 4.11428C19.2655 4.13512 19.319 4.15598 19.3724 4.17684C19.441 4.20322 19.441 4.20322 19.511 4.23013C19.6736 4.30738 19.8137 4.38856 19.8909 4.55697C20.1375 5.67737 20.204 6.8378 20.2 7.98246C20.2 8.02782 20.1999 8.07318 20.1998 8.11992C20.1979 8.9125 20.1602 9.69201 20.0592 10.4781C20.05 10.5504 20.05 10.5504 20.0406 10.6242C19.6281 13.7364 18.3012 16.6684 16.0933 18.8865C16.0701 18.91 16.0469 18.9334 16.023 18.9575C15.6865 19.2964 15.3441 19.6098 14.959 19.8913C14.8936 19.944 14.8282 19.9967 14.763 20.0497C13.6493 20.9449 12.3113 21.5997 10.9665 22.0484C10.8929 22.0734 10.8929 22.0734 10.8178 22.0988C10.2585 22.2779 9.87271 22.1987 9.32756 22.0081C9.29694 21.9976 9.26632 21.9871 9.23478 21.9763C8.62907 21.7679 8.04952 21.517 7.47874 21.2237C7.44347 21.2056 7.4082 21.1875 7.37186 21.1689C6.37506 20.6493 5.43877 19.9743 4.62681 19.1926C4.51178 19.0824 4.39421 18.9762 4.27517 18.8704C4.12368 18.733 3.98719 18.5905 3.85613 18.4332C3.77257 18.3337 3.68532 18.2383 3.5978 18.1424C2.91266 17.3693 2.33454 16.4737 1.86852 15.55C1.84243 15.4985 1.84243 15.4985 1.81583 15.446C0.917483 13.6516 0.445326 11.6974 0.253452 9.70444C0.249069 9.6591 0.244686 9.61376 0.24017 9.56704C0.198873 9.07202 0.200636 8.57563 0.200325 8.07917C0.200282 8.03175 0.200239 7.98432 0.200195 7.93546C0.200805 6.93355 0.263462 5.95603 0.420803 4.96564C0.42698 4.92568 0.433157 4.88572 0.439522 4.84455C0.477281 4.6318 0.50967 4.47639 0.678469 4.33165C0.837721 4.24862 1.00271 4.18419 1.16989 4.11942C1.2471 4.08855 1.3243 4.05769 1.40149 4.02679C1.48473 3.99358 1.56808 3.96067 1.65146 3.92783C1.95477 3.80821 2.25689 3.68557 2.55917 3.56334C2.60645 3.54424 2.60645 3.54424 2.65469 3.52476C4.63551 2.72456 6.59455 1.85949 8.51472 0.919923C8.56491 0.895412 8.6151 0.870902 8.66681 0.845648C8.89672 0.73302 9.12583 0.619125 9.35363 0.502188C9.3939 0.481875 9.43418 0.461561 9.47568 0.440632C9.54896 0.403637 9.62192 0.365993 9.69445 0.32751C10.1393 0.104794 10.4392 0.19764 10.865 0.410822ZM9.94815 1.29652C9.88307 1.32998 9.88307 1.32998 9.81666 1.36412C9.76922 1.38863 9.72177 1.41314 9.67289 1.4384C9.10477 1.72844 8.53033 2.00265 7.95135 2.26987C7.8553 2.31423 7.75931 2.35869 7.66331 2.40317C6.18403 3.08812 4.69233 3.73929 3.18607 4.3612C3.14253 4.37918 3.09898 4.39715 3.05412 4.41568C2.30474 4.72471 2.30474 4.72471 1.98058 4.85022C1.9272 4.87091 1.9272 4.87091 1.87275 4.89202C1.80631 4.91764 1.7398 4.94305 1.67319 4.9682C1.50112 5.03378 1.50112 5.03379 1.3585 5.14831C1.33551 5.24719 1.33551 5.24719 1.3238 5.36272C1.31587 5.42833 1.31587 5.42833 1.30778 5.49528C1.3026 5.54123 1.29742 5.58719 1.29209 5.63455C1.28675 5.67868 1.2814 5.72281 1.2759 5.76828C1.21627 6.27373 1.18189 6.7763 1.17986 7.28534C1.17956 7.33558 1.17926 7.38583 1.17896 7.4376C1.17822 7.59862 1.17795 7.75964 1.17786 7.92067C1.17782 7.97562 1.17778 8.03056 1.17773 8.08717C1.17815 8.87913 1.19704 9.65132 1.31599 10.4351C1.32748 10.52 1.33894 10.6048 1.35036 10.6897C1.56391 12.187 2.01625 13.6354 2.67605 14.9913C2.70103 15.0427 2.70103 15.0427 2.72652 15.0952C3.08677 15.8279 3.53743 16.4974 4.0361 17.1404C4.06969 17.1841 4.10327 17.2278 4.13787 17.2729C4.69756 17.9705 5.35628 18.6342 6.07618 19.1606C6.11607 19.1921 6.15595 19.2236 6.19705 19.2561C7.08595 19.9562 8.10538 20.5057 9.15272 20.9202C9.266 20.9667 9.37618 21.0182 9.48711 21.0701C10.024 21.3029 10.388 21.2649 10.9317 21.0567C11.0709 20.9998 11.2087 20.9403 11.3464 20.8798C11.4158 20.8513 11.4853 20.8228 11.5549 20.7946C12.2965 20.4845 13.0241 20.0951 13.684 19.6334C13.7087 19.6162 13.7333 19.599 13.7587 19.5814C14.795 18.8577 15.7931 17.9619 16.5316 16.9255C16.5625 16.8828 16.5625 16.8828 16.5941 16.8392C16.8948 16.4235 17.176 16 17.4241 15.55C17.4534 15.4971 17.4534 15.4971 17.4832 15.443C18.3025 13.9427 18.7871 12.323 19.0498 10.6339C19.0562 10.5927 19.0627 10.5514 19.0693 10.5089C19.0896 10.3699 19.1074 10.2308 19.1242 10.0913C19.1279 10.0608 19.1316 10.0303 19.1354 9.99887C19.2144 9.32868 19.2243 8.66216 19.2225 7.98783C19.2225 7.90717 19.2225 7.90717 19.2224 7.82488C19.2215 7.06289 19.2054 6.30999 19.0965 5.55492C19.0872 5.4888 19.0795 5.42243 19.074 5.35588C19.0614 5.20397 19.0614 5.20397 18.9745 5.085C18.829 4.99429 18.6764 4.93568 18.5171 4.87413C18.4438 4.84529 18.3706 4.81644 18.2974 4.7876C18.2587 4.77244 18.2199 4.75729 18.18 4.74167C17.9719 4.66021 17.7643 4.57765 17.5568 4.49501C17.5139 4.47794 17.471 4.46086 17.4268 4.44327C15.7112 3.75834 14.0184 3.00757 12.35 2.21267C12.2062 2.14421 12.0624 2.076 11.9185 2.00787C11.788 1.9461 11.6576 1.88424 11.5272 1.82237C11.4646 1.79262 11.4019 1.76288 11.3391 1.73315C11.2512 1.69144 11.1633 1.64965 11.0754 1.60781C11.0339 1.58801 11.0339 1.58801 10.9914 1.56782C10.7712 1.46245 10.5538 1.352 10.3373 1.23892C10.1732 1.16197 10.103 1.21621 9.94815 1.29652Z" fill="#00529C"/>
<path d="M9.82961 5.67854C9.87369 5.67823 9.87369 5.67823 9.91866 5.67791C9.98052 5.67777 10.0424 5.67816 10.1043 5.67906C10.1986 5.68021 10.2928 5.67907 10.3871 5.6777C10.4474 5.67784 10.5078 5.67812 10.5681 5.67854C10.6226 5.67878 10.6771 5.67902 10.7333 5.67927C10.9146 5.71391 10.9771 5.77867 11.0914 5.92199C11.1397 6.05158 11.1463 6.17117 11.1339 6.30883C11.0637 6.45333 11.0084 6.53669 10.8762 6.62583C10.7939 6.65269 10.7939 6.65269 10.6664 6.65269C10.6664 6.95056 10.6664 7.24843 10.6664 7.55532C10.7926 7.5695 10.9188 7.58369 11.0489 7.5983C11.4557 7.7004 11.8015 7.86457 12.1571 8.08521C12.2976 8.16686 12.2976 8.16686 12.4514 8.20006C12.5255 8.15482 12.5255 8.15482 12.5889 8.08202C12.6133 8.05667 12.6377 8.03133 12.6628 8.00521C12.7002 7.96469 12.7002 7.96469 12.7383 7.92336C12.7767 7.88309 12.7767 7.88309 12.8159 7.84201C12.879 7.77557 12.9416 7.70849 13.004 7.64129C12.9903 7.60843 12.9766 7.57557 12.9625 7.54172C12.9104 7.40369 12.9012 7.31534 12.919 7.16848C12.9921 7.02608 13.0503 6.93554 13.1846 6.8488C13.3505 6.81448 13.4825 6.81011 13.6415 6.8676C13.8056 6.98877 13.9438 7.13138 14.0851 7.27862C14.1237 7.31655 14.1624 7.35447 14.2022 7.39355C14.5108 7.70887 14.5108 7.70887 14.5412 7.91832C14.5309 8.13794 14.4769 8.26406 14.3162 8.41228C14.1643 8.46904 14.0578 8.45421 13.9001 8.4289C13.8054 8.41167 13.8054 8.41167 13.684 8.41497C13.59 8.49489 13.5046 8.57446 13.4184 8.66212C13.3942 8.68528 13.3701 8.70844 13.3453 8.7323C13.2676 8.808 13.2676 8.808 13.174 8.93076C13.1945 9.10172 13.2879 9.22908 13.3758 9.37401C13.6306 9.80987 13.7558 10.229 13.8115 10.736C14.106 10.736 14.4006 10.736 14.704 10.736C14.7181 10.6651 14.7321 10.5942 14.7465 10.5211C14.8398 10.4147 14.9178 10.3271 15.044 10.2632C15.1285 10.2609 15.1285 10.2609 15.2273 10.2686C15.2596 10.2705 15.2919 10.2723 15.3251 10.2743C15.4751 10.3215 15.5399 10.3991 15.6391 10.5211C15.6666 10.6684 15.6666 10.6684 15.6673 10.8354C15.6675 10.8651 15.6677 10.8948 15.6679 10.9255C15.668 10.988 15.6677 11.0506 15.6668 11.1132C15.6656 11.2086 15.6668 11.3038 15.6681 11.3992C15.668 11.4602 15.6677 11.5212 15.6673 11.5822C15.667 11.6374 15.6668 11.6925 15.6666 11.7493C15.6323 11.9327 15.5683 11.9959 15.4266 12.1114C15.2984 12.1604 15.1802 12.167 15.044 12.1544C14.9012 12.0835 14.8187 12.0276 14.7306 11.8938C14.704 11.8106 14.704 11.8106 14.704 11.6816C14.4095 11.6816 14.115 11.6816 13.8115 11.6816C13.7975 11.8093 13.7834 11.9369 13.769 12.0685C13.668 12.4799 13.5057 12.8296 13.2875 13.1892C13.2068 13.3313 13.2068 13.3313 13.174 13.4869C13.2187 13.5617 13.2187 13.5617 13.2907 13.6259C13.3157 13.6506 13.3408 13.6752 13.3666 13.7006C13.4067 13.7384 13.4067 13.7384 13.4476 13.777C13.4741 13.8029 13.5007 13.8288 13.528 13.8554C13.5937 13.9193 13.66 13.9826 13.7265 14.0457C13.759 14.0318 13.7915 14.018 13.8249 14.0037C13.9614 13.951 14.0488 13.9417 14.194 13.9597C14.3348 14.0336 14.4243 14.0926 14.5101 14.2283C14.544 14.3961 14.5484 14.5296 14.4915 14.6904C14.3717 14.8564 14.2307 14.9962 14.0851 15.139C14.0476 15.1781 14.0101 15.2172 13.9715 15.2575C13.6597 15.5695 13.6597 15.5695 13.4526 15.6002C13.2354 15.5899 13.1107 15.5353 12.9641 15.3727C12.908 15.2192 12.9227 15.1115 12.9477 14.952C12.9647 14.8562 12.9647 14.8562 12.9615 14.7334C12.8824 14.6384 12.8037 14.552 12.7171 14.4647C12.6942 14.4404 12.6713 14.416 12.6477 14.3909C12.5728 14.3122 12.5728 14.3122 12.4514 14.2176C12.2824 14.2384 12.1564 14.3328 12.0131 14.4217C11.5822 14.6794 11.1677 14.806 10.6664 14.8623C10.6664 15.1602 10.6664 15.4581 10.6664 15.7649C10.7365 15.7791 10.8066 15.7933 10.8789 15.8079C10.9841 15.9022 11.0708 15.9811 11.1339 16.1088C11.1362 16.1943 11.1362 16.1943 11.1286 16.2942C11.1258 16.3431 11.1258 16.3431 11.1229 16.3931C11.0763 16.5447 10.9995 16.6103 10.8789 16.7106C10.7333 16.7384 10.7333 16.7384 10.5681 16.7391C10.524 16.7394 10.524 16.7394 10.479 16.7397C10.4172 16.7399 10.3553 16.7395 10.2934 16.7386C10.1991 16.7374 10.1049 16.7386 10.0106 16.7399C9.95026 16.7398 9.88994 16.7395 9.82961 16.7391C9.74784 16.7387 9.74784 16.7387 9.66442 16.7384C9.48308 16.7037 9.42061 16.639 9.30631 16.4956C9.25795 16.3661 9.25135 16.2465 9.26381 16.1088C9.33395 15.9643 9.38927 15.8809 9.52148 15.7918C9.60382 15.7649 9.60382 15.7649 9.73133 15.7649C9.73133 15.4671 9.73133 15.1692 9.73133 14.8623C9.6051 14.8481 9.47887 14.8339 9.34881 14.8193C8.94195 14.7172 8.59618 14.5531 8.24062 14.3324C8.10012 14.2508 8.10012 14.2508 7.94626 14.2176C7.87223 14.2628 7.87223 14.2628 7.80879 14.3356C7.78441 14.361 7.76003 14.3863 7.73491 14.4124C7.70998 14.4394 7.68506 14.4665 7.65937 14.4943C7.63379 14.5211 7.6082 14.548 7.58184 14.5756C7.51865 14.6421 7.45613 14.7092 7.39374 14.7764C7.40743 14.8092 7.42113 14.8421 7.43524 14.8759C7.4873 15.014 7.49652 15.1023 7.47874 15.2492C7.40563 15.3916 7.34735 15.4821 7.2131 15.5688C7.04721 15.6032 6.91523 15.6075 6.75621 15.55C6.59206 15.4289 6.45386 15.2863 6.3126 15.139C6.27395 15.1011 6.23529 15.0632 6.19547 15.0241C5.8869 14.7088 5.8869 14.7088 5.85654 14.4993C5.8668 14.2797 5.92075 14.1536 6.0815 14.0054C6.23336 13.9486 6.33985 13.9634 6.49755 13.9887C6.59225 14.006 6.59225 14.006 6.71371 14.0027C6.80765 13.9227 6.89307 13.8432 6.97934 13.7555C7.00345 13.7324 7.02756 13.7092 7.05239 13.6853C7.13014 13.6096 7.13015 13.6096 7.22373 13.4869C7.20315 13.3159 7.10978 13.1886 7.02185 13.0436C6.76705 12.6078 6.64191 12.1887 6.5862 11.6816C6.29167 11.6816 5.99713 11.6816 5.69367 11.6816C5.67964 11.7525 5.66562 11.8235 5.65117 11.8965C5.55793 12.0029 5.47992 12.0906 5.35365 12.1544C5.26915 12.1568 5.26915 12.1568 5.17037 12.1491C5.12196 12.1462 5.12196 12.1462 5.07258 12.1433C4.9226 12.0962 4.85778 12.0185 4.75863 11.8965C4.73113 11.7493 4.73113 11.7493 4.73041 11.5822C4.7302 11.5525 4.73 11.5228 4.72979 11.4922C4.72965 11.4296 4.73004 11.367 4.73093 11.3045C4.73207 11.2091 4.73094 11.1138 4.72958 11.0184C4.72972 10.9574 4.72999 10.8964 4.73041 10.8354C4.73065 10.7803 4.73089 10.7252 4.73113 10.6683C4.76538 10.485 4.82942 10.4218 4.97114 10.3062C5.09928 10.2573 5.21753 10.2506 5.35365 10.2632C5.49654 10.3341 5.57896 10.3901 5.66711 10.5238C5.69367 10.6071 5.69367 10.6071 5.69367 10.736C5.9882 10.736 6.28274 10.736 6.5862 10.736C6.60023 10.6084 6.61426 10.4807 6.62871 10.3492C6.72966 9.93771 6.89199 9.58803 7.11017 9.22844C7.1909 9.08636 7.1909 9.08635 7.22373 8.93076C7.179 8.85589 7.179 8.85589 7.10702 8.79173C7.08195 8.76708 7.05689 8.74242 7.03106 8.71702C7.00435 8.69181 6.97764 8.6666 6.95012 8.64062C6.91031 8.60181 6.91031 8.60181 6.86969 8.56222C6.80399 8.49831 6.73766 8.43508 6.67121 8.37199C6.63872 8.38584 6.60623 8.39969 6.57276 8.41396C6.43626 8.4666 6.3489 8.47593 6.20369 8.45795C6.06288 8.38401 5.97335 8.32507 5.88758 8.18931C5.85365 8.02154 5.84933 7.88807 5.90618 7.72725C6.02599 7.56125 6.167 7.42148 6.3126 7.27862C6.3501 7.23953 6.3876 7.20044 6.42624 7.16017C6.73804 6.84811 6.73804 6.84811 6.94514 6.8174C7.16231 6.82778 7.28702 6.88234 7.43358 7.04491C7.48971 7.19849 7.47504 7.30618 7.45002 7.46566C7.43297 7.56143 7.43297 7.56143 7.43624 7.68427C7.51527 7.77927 7.59395 7.86566 7.68062 7.95291C7.70352 7.97729 7.72643 8.00167 7.75002 8.02678C7.82488 8.10541 7.82487 8.10541 7.94626 8.20006C8.11531 8.17924 8.24125 8.08482 8.38456 7.99589C8.81554 7.73822 9.22996 7.61166 9.73133 7.55532C9.73133 7.25745 9.73133 6.95959 9.73133 6.65269C9.6612 6.63851 9.59107 6.62432 9.51882 6.60971C9.41363 6.51542 9.32694 6.43653 9.26381 6.30883C9.26149 6.22337 9.26149 6.22337 9.26912 6.12347C9.27099 6.09084 9.27285 6.0582 9.27477 6.02458C9.36212 5.74049 9.5587 5.67974 9.82961 5.67854ZM8.2544 9.28267C7.68666 9.90539 7.46782 10.6147 7.50082 11.4514C7.55114 12.172 7.89777 12.7803 8.41378 13.272C8.98876 13.7511 9.66042 13.9783 10.4037 13.9545C11.1852 13.8745 11.8153 13.5124 12.3254 12.908C12.8291 12.2518 12.9403 11.5468 12.8765 10.736C12.7609 9.99859 12.307 9.37448 11.7209 8.93882C10.6054 8.17434 9.21909 8.39678 8.2544 9.28267Z" fill="#00529C"/>
<path d="M10.7939 11.6386C10.9626 11.7305 11.0647 11.8012 11.1339 11.9825C11.1476 12.1814 11.1143 12.3326 11.009 12.501C10.8246 12.619 10.6666 12.6235 10.4539 12.5843C10.3291 12.507 10.2638 12.4577 10.1988 12.3264C10.1716 12.1041 10.1606 11.9477 10.2971 11.7649C10.4642 11.6431 10.5908 11.6185 10.7939 11.6386Z" fill="#00529C"/>
<path d="M9.51882 11.2088C9.65536 11.2962 9.71145 11.3586 9.75922 11.5151C9.79086 11.6972 9.78417 11.7893 9.70211 11.9583C9.58987 12.0841 9.51033 12.149 9.34101 12.161C9.17149 12.1446 9.06734 12.1217 8.92114 12.0282C8.80443 11.8416 8.80001 11.6819 8.83879 11.4667C9.00958 11.1846 9.2101 11.1671 9.51882 11.2088Z" fill="#00529C"/>
<path d="M11.3464 10.3062C11.4766 10.3895 11.4766 10.3895 11.5589 10.5211C11.5978 10.7348 11.5923 10.8957 11.4792 11.0826C11.3211 11.2284 11.1924 11.2264 10.9845 11.2231C10.8789 11.2088 10.8789 11.2088 10.7487 11.1255C10.641 10.9533 10.6055 10.8104 10.6239 10.6071C10.7877 10.2695 11.0037 10.2137 11.3464 10.3062Z" fill="#00529C"/>
<path d="M9.94384 9.83339C10.0685 9.9106 10.1339 9.95993 10.1988 10.0913C10.225 10.3048 10.2321 10.4679 10.1165 10.6527C9.94622 10.7617 9.80493 10.7976 9.60382 10.779C9.4292 10.6923 9.33449 10.6175 9.26381 10.4351C9.25009 10.2362 9.28335 10.085 9.38866 9.91666C9.57313 9.79864 9.73105 9.79416 9.94384 9.83339Z" fill="#00529C"/>
<path d="M10.865 0.410822C10.934 0.446161 11.0029 0.481734 11.0717 0.51752C11.2555 0.61313 11.4407 0.70592 11.6256 0.799203C11.6817 0.82762 11.6817 0.82762 11.7389 0.85661C12.092 1.03522 12.4498 1.20232 12.81 1.36586C12.8687 1.39258 12.9275 1.41929 12.9862 1.44601C13.0707 1.48448 13.1553 1.52292 13.24 1.5613C13.4395 1.65183 13.6379 1.74449 13.8361 1.83784C15.416 2.57985 17.0297 3.25876 18.6534 3.89645C18.6863 3.90941 18.7192 3.92238 18.7531 3.93573C18.9059 3.99582 19.0588 4.05548 19.2121 4.11428C19.2655 4.13512 19.319 4.15598 19.3724 4.17684C19.441 4.20322 19.441 4.20322 19.511 4.23013C19.6736 4.30738 19.8137 4.38856 19.8909 4.55697C20.1375 5.67737 20.204 6.8378 20.2 7.98246C20.2 8.02782 20.1999 8.07318 20.1998 8.11992C20.1979 8.9125 20.1602 9.69201 20.0592 10.4781C20.05 10.5504 20.05 10.5504 20.0406 10.6242C19.6281 13.7364 18.3012 16.6684 16.0933 18.8865C16.0701 18.91 16.0469 18.9334 16.023 18.9575C15.6865 19.2964 15.3441 19.6098 14.959 19.8913C14.8936 19.944 14.8282 19.9967 14.763 20.0497C13.6493 20.9449 12.3113 21.5997 10.9665 22.0484C10.8929 22.0734 10.8929 22.0734 10.8178 22.0988C10.2585 22.2779 9.87271 22.1987 9.32756 22.0081C9.29694 21.9976 9.26632 21.9871 9.23478 21.9763C8.62907 21.7679 8.04952 21.517 7.47874 21.2237C7.44347 21.2056 7.4082 21.1875 7.37186 21.1689C6.37506 20.6493 5.43877 19.9743 4.62681 19.1926C4.51178 19.0824 4.39421 18.9762 4.27517 18.8704C4.12368 18.733 3.98719 18.5905 3.85613 18.4332C3.77257 18.3337 3.68532 18.2383 3.5978 18.1424C2.91266 17.3693 2.33454 16.4737 1.86852 15.55C1.84243 15.4985 1.84243 15.4985 1.81583 15.446C0.917483 13.6516 0.445326 11.6974 0.253452 9.70444C0.249069 9.6591 0.244686 9.61376 0.24017 9.56704C0.198873 9.07202 0.200636 8.57563 0.200325 8.07917C0.200282 8.03175 0.200239 7.98432 0.200195 7.93546C0.200805 6.93355 0.263462 5.95603 0.420803 4.96564C0.42698 4.92568 0.433157 4.88572 0.439522 4.84455C0.477281 4.6318 0.50967 4.47639 0.678469 4.33165C0.837721 4.24862 1.00271 4.18419 1.16989 4.11942C1.2471 4.08855 1.3243 4.05769 1.40149 4.02679C1.48473 3.99358 1.56808 3.96067 1.65146 3.92783C1.95477 3.80821 2.25689 3.68557 2.55917 3.56334C2.60645 3.54424 2.60645 3.54424 2.65469 3.52476C4.63551 2.72456 6.59455 1.85949 8.51472 0.919923C8.56491 0.895412 8.6151 0.870902 8.66681 0.845648C8.89672 0.73302 9.12583 0.619125 9.35363 0.502188C9.3939 0.481875 9.43418 0.461561 9.47568 0.440632C9.54896 0.403637 9.62192 0.365993 9.69445 0.32751C10.1393 0.104794 10.4392 0.19764 10.865 0.410822ZM9.94815 1.29652C9.88307 1.32998 9.88307 1.32998 9.81666 1.36412C9.76922 1.38863 9.72177 1.41314 9.67289 1.4384C9.10477 1.72844 8.53033 2.00265 7.95135 2.26987C7.8553 2.31423 7.75931 2.35869 7.66331 2.40317C6.18403 3.08812 4.69233 3.73929 3.18607 4.3612C3.14253 4.37918 3.09898 4.39715 3.05412 4.41568C2.30474 4.72471 2.30474 4.72471 1.98058 4.85022C1.9272 4.87091 1.9272 4.87091 1.87275 4.89202C1.80631 4.91764 1.7398 4.94305 1.67319 4.9682C1.50112 5.03378 1.50112 5.03379 1.3585 5.14831C1.33551 5.24719 1.33551 5.24719 1.3238 5.36272C1.31587 5.42833 1.31587 5.42833 1.30778 5.49528C1.3026 5.54123 1.29742 5.58719 1.29209 5.63455C1.28675 5.67868 1.2814 5.72281 1.2759 5.76828C1.21627 6.27373 1.18189 6.7763 1.17986 7.28534C1.17956 7.33558 1.17926 7.38583 1.17896 7.4376C1.17822 7.59862 1.17795 7.75964 1.17786 7.92067C1.17782 7.97562 1.17778 8.03056 1.17773 8.08717C1.17815 8.87913 1.19704 9.65132 1.31599 10.4351C1.32748 10.52 1.33894 10.6048 1.35036 10.6897C1.56391 12.187 2.01625 13.6354 2.67605 14.9913C2.70103 15.0427 2.70103 15.0427 2.72652 15.0952C3.08677 15.8279 3.53743 16.4974 4.0361 17.1404C4.06969 17.1841 4.10327 17.2278 4.13787 17.2729C4.69756 17.9705 5.35628 18.6342 6.07618 19.1606C6.11607 19.1921 6.15595 19.2236 6.19705 19.2561C7.08595 19.9562 8.10538 20.5057 9.15272 20.9202C9.266 20.9667 9.37618 21.0182 9.48711 21.0701C10.024 21.3029 10.388 21.2649 10.9317 21.0567C11.0709 20.9998 11.2087 20.9403 11.3464 20.8798C11.4158 20.8513 11.4853 20.8228 11.5549 20.7946C12.2965 20.4845 13.0241 20.0951 13.684 19.6334C13.7087 19.6162 13.7333 19.599 13.7587 19.5814C14.795 18.8577 15.7931 17.9619 16.5316 16.9255C16.5625 16.8828 16.5625 16.8828 16.5941 16.8392C16.8948 16.4235 17.176 16 17.4241 15.55C17.4534 15.4971 17.4534 15.4971 17.4832 15.443C18.3025 13.9427 18.7871 12.323 19.0498 10.6339C19.0562 10.5927 19.0627 10.5514 19.0693 10.5089C19.0896 10.3699 19.1074 10.2308 19.1242 10.0913C19.1279 10.0608 19.1316 10.0303 19.1354 9.99887C19.2144 9.32868 19.2243 8.66216 19.2225 7.98783C19.2225 7.90717 19.2225 7.90717 19.2224 7.82488C19.2215 7.06289 19.2054 6.30999 19.0965 5.55492C19.0872 5.4888 19.0795 5.42243 19.074 5.35588C19.0614 5.20397 19.0614 5.20397 18.9745 5.085C18.829 4.99429 18.6764 4.93568 18.5171 4.87413C18.4438 4.84529 18.3706 4.81644 18.2974 4.7876C18.2587 4.77244 18.2199 4.75729 18.18 4.74167C17.9719 4.66021 17.7643 4.57765 17.5568 4.49501C17.5139 4.47794 17.471 4.46086 17.4268 4.44327C15.7112 3.75834 14.0184 3.00757 12.35 2.21267C12.2062 2.14421 12.0624 2.076 11.9185 2.00787C11.788 1.9461 11.6576 1.88424 11.5272 1.82237C11.4646 1.79262 11.4019 1.76288 11.3391 1.73315C11.2512 1.69144 11.1633 1.64965 11.0754 1.60781C11.0339 1.58801 11.0339 1.58801 10.9914 1.56782C10.7712 1.46245 10.5538 1.352 10.3373 1.23892C10.1732 1.16197 10.103 1.21621 9.94815 1.29652Z" stroke="#00529C" stroke-width="0.4" mask="url(#path-1-outside-1_933_11425)"/>
<path d="M9.82961 5.67854C9.87369 5.67823 9.87369 5.67823 9.91866 5.67791C9.98052 5.67777 10.0424 5.67816 10.1043 5.67906C10.1986 5.68021 10.2928 5.67907 10.3871 5.6777C10.4474 5.67784 10.5078 5.67812 10.5681 5.67854C10.6226 5.67878 10.6771 5.67902 10.7333 5.67927C10.9146 5.71391 10.9771 5.77867 11.0914 5.92199C11.1397 6.05158 11.1463 6.17117 11.1339 6.30883C11.0637 6.45333 11.0084 6.53669 10.8762 6.62583C10.7939 6.65269 10.7939 6.65269 10.6664 6.65269C10.6664 6.95056 10.6664 7.24843 10.6664 7.55532C10.7926 7.5695 10.9188 7.58369 11.0489 7.5983C11.4557 7.7004 11.8015 7.86457 12.1571 8.08521C12.2976 8.16686 12.2976 8.16686 12.4514 8.20006C12.5255 8.15482 12.5255 8.15482 12.5889 8.08202C12.6133 8.05667 12.6377 8.03133 12.6628 8.00521C12.7002 7.96469 12.7002 7.96469 12.7383 7.92336C12.7767 7.88309 12.7767 7.88309 12.8159 7.84201C12.879 7.77557 12.9416 7.70849 13.004 7.64129C12.9903 7.60843 12.9766 7.57557 12.9625 7.54172C12.9104 7.40369 12.9012 7.31534 12.919 7.16848C12.9921 7.02608 13.0503 6.93554 13.1846 6.8488C13.3505 6.81448 13.4825 6.81011 13.6415 6.8676C13.8056 6.98877 13.9438 7.13138 14.0851 7.27862C14.1237 7.31655 14.1624 7.35447 14.2022 7.39355C14.5108 7.70887 14.5108 7.70887 14.5412 7.91832C14.5309 8.13794 14.4769 8.26406 14.3162 8.41228C14.1643 8.46904 14.0578 8.45421 13.9001 8.4289C13.8054 8.41167 13.8054 8.41167 13.684 8.41497C13.59 8.49489 13.5046 8.57446 13.4184 8.66212C13.3942 8.68528 13.3701 8.70844 13.3453 8.7323C13.2676 8.808 13.2676 8.808 13.174 8.93076C13.1945 9.10172 13.2879 9.22908 13.3758 9.37401C13.6306 9.80987 13.7558 10.229 13.8115 10.736C14.106 10.736 14.4006 10.736 14.704 10.736C14.7181 10.6651 14.7321 10.5942 14.7465 10.5211C14.8398 10.4147 14.9178 10.3271 15.044 10.2632C15.1285 10.2609 15.1285 10.2609 15.2273 10.2686C15.2596 10.2705 15.2919 10.2723 15.3251 10.2743C15.4751 10.3215 15.5399 10.3991 15.6391 10.5211C15.6666 10.6684 15.6666 10.6684 15.6673 10.8354C15.6675 10.8651 15.6677 10.8948 15.6679 10.9255C15.668 10.988 15.6677 11.0506 15.6668 11.1132C15.6656 11.2086 15.6668 11.3038 15.6681 11.3992C15.668 11.4602 15.6677 11.5212 15.6673 11.5822C15.667 11.6374 15.6668 11.6925 15.6666 11.7493C15.6323 11.9327 15.5683 11.9959 15.4266 12.1114C15.2984 12.1604 15.1802 12.167 15.044 12.1544C14.9012 12.0835 14.8187 12.0276 14.7306 11.8938C14.704 11.8106 14.704 11.8106 14.704 11.6816C14.4095 11.6816 14.115 11.6816 13.8115 11.6816C13.7975 11.8093 13.7834 11.9369 13.769 12.0685C13.668 12.4799 13.5057 12.8296 13.2875 13.1892C13.2068 13.3313 13.2068 13.3313 13.174 13.4869C13.2187 13.5617 13.2187 13.5617 13.2907 13.6259C13.3157 13.6506 13.3408 13.6752 13.3666 13.7006C13.4067 13.7384 13.4067 13.7384 13.4476 13.777C13.4741 13.8029 13.5007 13.8288 13.528 13.8554C13.5937 13.9193 13.66 13.9826 13.7265 14.0457C13.759 14.0318 13.7915 14.018 13.8249 14.0037C13.9614 13.951 14.0488 13.9417 14.194 13.9597C14.3348 14.0336 14.4243 14.0926 14.5101 14.2283C14.544 14.3961 14.5484 14.5296 14.4915 14.6904C14.3717 14.8564 14.2307 14.9962 14.0851 15.139C14.0476 15.1781 14.0101 15.2172 13.9715 15.2575C13.6597 15.5695 13.6597 15.5695 13.4526 15.6002C13.2354 15.5899 13.1107 15.5353 12.9641 15.3727C12.908 15.2192 12.9227 15.1115 12.9477 14.952C12.9647 14.8562 12.9647 14.8562 12.9615 14.7334C12.8824 14.6384 12.8037 14.552 12.7171 14.4647C12.6942 14.4404 12.6713 14.416 12.6477 14.3909C12.5728 14.3122 12.5728 14.3122 12.4514 14.2176C12.2824 14.2384 12.1564 14.3328 12.0131 14.4217C11.5822 14.6794 11.1677 14.806 10.6664 14.8623C10.6664 15.1602 10.6664 15.4581 10.6664 15.7649C10.7365 15.7791 10.8066 15.7933 10.8789 15.8079C10.9841 15.9022 11.0708 15.9811 11.1339 16.1088C11.1362 16.1943 11.1362 16.1943 11.1286 16.2942C11.1258 16.3431 11.1258 16.3431 11.1229 16.3931C11.0763 16.5447 10.9995 16.6103 10.8789 16.7106C10.7333 16.7384 10.7333 16.7384 10.5681 16.7391C10.524 16.7394 10.524 16.7394 10.479 16.7397C10.4172 16.7399 10.3553 16.7395 10.2934 16.7386C10.1991 16.7374 10.1049 16.7386 10.0106 16.7399C9.95026 16.7398 9.88994 16.7395 9.82961 16.7391C9.74784 16.7387 9.74784 16.7387 9.66442 16.7384C9.48308 16.7037 9.42061 16.639 9.30631 16.4956C9.25795 16.3661 9.25135 16.2465 9.26381 16.1088C9.33395 15.9643 9.38927 15.8809 9.52148 15.7918C9.60382 15.7649 9.60382 15.7649 9.73133 15.7649C9.73133 15.4671 9.73133 15.1692 9.73133 14.8623C9.6051 14.8481 9.47887 14.8339 9.34881 14.8193C8.94195 14.7172 8.59618 14.5531 8.24062 14.3324C8.10012 14.2508 8.10012 14.2508 7.94626 14.2176C7.87223 14.2628 7.87223 14.2628 7.80879 14.3356C7.78441 14.361 7.76003 14.3863 7.73491 14.4124C7.70998 14.4394 7.68506 14.4665 7.65937 14.4943C7.63379 14.5211 7.6082 14.548 7.58184 14.5756C7.51865 14.6421 7.45613 14.7092 7.39374 14.7764C7.40743 14.8092 7.42113 14.8421 7.43524 14.8759C7.4873 15.014 7.49652 15.1023 7.47874 15.2492C7.40563 15.3916 7.34735 15.4821 7.2131 15.5688C7.04721 15.6032 6.91523 15.6075 6.75621 15.55C6.59206 15.4289 6.45386 15.2863 6.3126 15.139C6.27395 15.1011 6.23529 15.0632 6.19547 15.0241C5.8869 14.7088 5.8869 14.7088 5.85654 14.4993C5.8668 14.2797 5.92075 14.1536 6.0815 14.0054C6.23336 13.9486 6.33985 13.9634 6.49755 13.9887C6.59225 14.006 6.59225 14.006 6.71371 14.0027C6.80765 13.9227 6.89307 13.8432 6.97934 13.7555C7.00345 13.7324 7.02756 13.7092 7.05239 13.6853C7.13014 13.6096 7.13015 13.6096 7.22373 13.4869C7.20315 13.3159 7.10978 13.1886 7.02185 13.0436C6.76705 12.6078 6.64191 12.1887 6.5862 11.6816C6.29167 11.6816 5.99713 11.6816 5.69367 11.6816C5.67964 11.7525 5.66562 11.8235 5.65117 11.8965C5.55793 12.0029 5.47992 12.0906 5.35365 12.1544C5.26915 12.1568 5.26915 12.1568 5.17037 12.1491C5.12196 12.1462 5.12196 12.1462 5.07258 12.1433C4.9226 12.0962 4.85778 12.0185 4.75863 11.8965C4.73113 11.7493 4.73113 11.7493 4.73041 11.5822C4.7302 11.5525 4.73 11.5228 4.72979 11.4922C4.72965 11.4296 4.73004 11.367 4.73093 11.3045C4.73207 11.2091 4.73094 11.1138 4.72958 11.0184C4.72972 10.9574 4.72999 10.8964 4.73041 10.8354C4.73065 10.7803 4.73089 10.7252 4.73113 10.6683C4.76538 10.485 4.82942 10.4218 4.97114 10.3062C5.09928 10.2573 5.21753 10.2506 5.35365 10.2632C5.49654 10.3341 5.57896 10.3901 5.66711 10.5238C5.69367 10.6071 5.69367 10.6071 5.69367 10.736C5.9882 10.736 6.28274 10.736 6.5862 10.736C6.60023 10.6084 6.61426 10.4807 6.62871 10.3492C6.72966 9.93771 6.89199 9.58803 7.11017 9.22844C7.1909 9.08636 7.1909 9.08635 7.22373 8.93076C7.179 8.85589 7.179 8.85589 7.10702 8.79173C7.08195 8.76708 7.05689 8.74242 7.03106 8.71702C7.00435 8.69181 6.97764 8.6666 6.95012 8.64062C6.91031 8.60181 6.91031 8.60181 6.86969 8.56222C6.80399 8.49831 6.73766 8.43508 6.67121 8.37199C6.63872 8.38584 6.60623 8.39969 6.57276 8.41396C6.43626 8.4666 6.3489 8.47593 6.20369 8.45795C6.06288 8.38401 5.97335 8.32507 5.88758 8.18931C5.85365 8.02154 5.84933 7.88807 5.90618 7.72725C6.02599 7.56125 6.167 7.42148 6.3126 7.27862C6.3501 7.23953 6.3876 7.20044 6.42624 7.16017C6.73804 6.84811 6.73804 6.84811 6.94514 6.8174C7.16231 6.82778 7.28702 6.88234 7.43358 7.04491C7.48971 7.19849 7.47504 7.30618 7.45002 7.46566C7.43297 7.56143 7.43297 7.56143 7.43624 7.68427C7.51527 7.77927 7.59395 7.86566 7.68062 7.95291C7.70352 7.97729 7.72643 8.00167 7.75002 8.02678C7.82488 8.10541 7.82487 8.10541 7.94626 8.20006C8.11531 8.17924 8.24125 8.08482 8.38456 7.99589C8.81554 7.73822 9.22996 7.61166 9.73133 7.55532C9.73133 7.25745 9.73133 6.95959 9.73133 6.65269C9.6612 6.63851 9.59107 6.62432 9.51882 6.60971C9.41363 6.51542 9.32694 6.43653 9.26381 6.30883C9.26149 6.22337 9.26149 6.22337 9.26912 6.12347C9.27099 6.09084 9.27285 6.0582 9.27477 6.02458C9.36212 5.74049 9.5587 5.67974 9.82961 5.67854ZM8.2544 9.28267C7.68666 9.90539 7.46782 10.6147 7.50082 11.4514C7.55114 12.172 7.89777 12.7803 8.41378 13.272C8.98876 13.7511 9.66042 13.9783 10.4037 13.9545C11.1852 13.8745 11.8153 13.5124 12.3254 12.908C12.8291 12.2518 12.9403 11.5468 12.8765 10.736C12.7609 9.99859 12.307 9.37448 11.7209 8.93882C10.6054 8.17434 9.21909 8.39678 8.2544 9.28267Z" stroke="#00529C" stroke-width="0.4" mask="url(#path-1-outside-1_933_11425)"/>
<path d="M10.7939 11.6386C10.9626 11.7305 11.0647 11.8012 11.1339 11.9825C11.1476 12.1814 11.1143 12.3326 11.009 12.501C10.8246 12.619 10.6666 12.6235 10.4539 12.5843C10.3291 12.507 10.2638 12.4577 10.1988 12.3264C10.1716 12.1041 10.1606 11.9477 10.2971 11.7649C10.4642 11.6431 10.5908 11.6185 10.7939 11.6386Z" stroke="#00529C" stroke-width="0.4" mask="url(#path-1-outside-1_933_11425)"/>
<path d="M9.51882 11.2088C9.65536 11.2962 9.71145 11.3586 9.75922 11.5151C9.79086 11.6972 9.78417 11.7893 9.70211 11.9583C9.58987 12.0841 9.51033 12.149 9.34101 12.161C9.17149 12.1446 9.06734 12.1217 8.92114 12.0282C8.80443 11.8416 8.80001 11.6819 8.83879 11.4667C9.00958 11.1846 9.2101 11.1671 9.51882 11.2088Z" stroke="#00529C" stroke-width="0.4" mask="url(#path-1-outside-1_933_11425)"/>
<path d="M11.3464 10.3062C11.4766 10.3895 11.4766 10.3895 11.5589 10.5211C11.5978 10.7348 11.5923 10.8957 11.4792 11.0826C11.3211 11.2284 11.1924 11.2264 10.9845 11.2231C10.8789 11.2088 10.8789 11.2088 10.7487 11.1255C10.641 10.9533 10.6055 10.8104 10.6239 10.6071C10.7877 10.2695 11.0037 10.2137 11.3464 10.3062Z" stroke="#00529C" stroke-width="0.4" mask="url(#path-1-outside-1_933_11425)"/>
<path d="M9.94384 9.83339C10.0685 9.9106 10.1339 9.95993 10.1988 10.0913C10.225 10.3048 10.2321 10.4679 10.1165 10.6527C9.94622 10.7617 9.80493 10.7976 9.60382 10.779C9.4292 10.6923 9.33449 10.6175 9.26381 10.4351C9.25009 10.2362 9.28335 10.085 9.38866 9.91666C9.57313 9.79864 9.73105 9.79416 9.94384 9.83339Z" stroke="#00529C" stroke-width="0.4" mask="url(#path-1-outside-1_933_11425)"/>
</svg>
