<svg width="288" height="76" viewBox="0 0 288 76" fill="none" xmlns="http://www.w3.org/2000/svg">
<path d="M234.2 64.2096C222.4 66.5096 210.5 67.9096 198.4 68.4096C186.3 69.0096 174.2 68.9096 162.2 68.1096C150.1 67.4096 138.1 66.2096 126.2 64.5096C120.2 63.7096 114.4 62.7096 108.4 61.7096C102.4 60.8096 96.4001 59.9096 90.3001 59.1096C86.2001 58.6096 81.6001 58.1096 77.4001 57.8096C77.4001 57.8096 77.4001 57.8096 77.4001 57.7096C80.0001 52.1096 81.7001 47.4096 81.9001 47.0096L94.7001 15.4096H89.0001L78.1001 43.1096L75.7001 37.1096L67.2001 15.3096H61.5001L75.3001 49.3096L75.0001 50.1096C74.7001 50.8096 74.5001 51.5096 74.2001 52.3096C73.4001 54.3096 72.3001 56.8096 72.1001 57.3096C70.4001 57.3096 68.7001 57.3096 67.0001 57.3096C65.8001 57.3096 64.6001 57.4096 63.4001 57.6096C62.2001 57.7096 61.0001 57.9096 59.8001 58.1096C57.4001 58.5096 55.1001 59.1096 52.8001 59.9096C50.4001 60.6096 48.2001 62.1096 46.6001 64.0096C45.8001 65.0096 45.3001 66.3096 45.1001 67.6096C45.1001 67.9096 45.1001 68.2096 45.1001 68.5096V69.0096C45.1001 69.2096 45.1001 69.4096 45.1001 69.6096C45.2001 70.3096 45.4001 70.9096 45.8001 71.5096C46.4001 72.7096 47.4001 73.7096 48.6001 74.4096C49.7001 75.1096 51.0001 75.5096 52.3001 75.7096C53.6001 75.9096 54.8001 76.0096 56.1001 75.9096C56.7001 75.9096 57.4001 75.9096 58.0001 75.7096C58.6001 75.7096 59.3001 75.5096 59.9001 75.4096C62.4001 74.8096 64.8001 73.7096 66.9001 72.3096C69.0001 71.0096 70.8001 69.3096 72.4001 67.5096C74.0001 65.6096 74.9001 63.9096 75.7001 62.2096C80.3001 62.7096 85.0001 63.1096 89.6001 63.7096C95.6001 64.4096 101.5 65.2096 107.5 66.2096C113.4 67.1096 119.5 68.1096 125.5 68.9096C137.6 70.5096 149.8 71.6096 162.1 72.1096C174.4 72.6096 186.7 72.5096 198.9 71.7096C211.1 70.9096 223.2 69.1096 235.1 66.4096C246.8 63.6096 259.7 59.7096 269.8 54.4096V53.8096C259.3 58.5096 246.1 61.9096 234.4 64.3096L234.2 64.2096ZM64.3001 69.2096C62.7001 70.7096 60.9001 71.8096 58.9001 72.6096C58.4001 72.8096 57.9001 72.9096 57.4001 73.1096C56.8001 73.2096 56.3001 73.3096 55.8001 73.4096C55.0001 73.5096 54.2001 73.6096 53.4001 73.6096C53.1001 73.6096 52.8001 73.6096 52.5001 73.6096C51.6001 73.6096 50.7001 73.4096 49.9001 73.0096C49.7001 73.0096 49.5001 72.8096 49.3001 72.7096C48.5001 72.2096 47.8001 71.6096 47.3001 70.8096C47.0001 70.4096 46.9001 69.9096 46.7001 69.4096C46.7001 68.9096 46.7001 68.4096 46.7001 67.9096C46.7001 67.7096 46.7001 67.4096 46.8001 67.2096C47.0001 66.4096 47.3001 65.7096 47.8001 65.0096C49.2001 63.3096 51.1001 62.0096 53.3001 61.5096C55.5001 60.9096 57.8001 60.6096 60.1001 60.5096C61.2001 60.5096 62.4001 60.5096 63.5001 60.5096C64.7001 60.5096 65.8001 60.7096 67.0001 60.8096C68.0001 60.8096 69.6001 61.0096 70.6001 61.2096C69.1001 64.2096 67.0001 66.9096 64.4001 69.2096H64.3001Z" fill="white"/>
<path d="M141.7 53.0094C146.1 50.4094 149.7 46.6094 151.9 41.9094H145.9C143.9 45.1094 141.1 47.7094 137.8 49.4094C134.4 51.3094 130.5 52.3094 126.6 52.3094C120.3 52.4094 114.3 49.9094 110 45.5094C105.5 41.1094 103.1 35.0094 103.2 28.7094C103.1 22.4094 105.5 16.3094 110 11.9094C117.3 4.6094 128.5 2.9094 137.5 7.9094C140.8 9.6094 143.5 12.1094 145.4 15.2094H151.4C149.3 10.6094 145.8 6.8094 141.4 4.3094C137 1.5094 131.8 0.00939647 126.6 0.00939647C118.9 -0.190604 111.4 2.8094 106 8.3094C100.5 13.6094 97.4 21.0094 97.5 28.6094C97.4 36.2094 100.4 43.6094 106 48.9094C115.6 58.2094 130.4 59.9094 141.8 52.8094L141.7 53.0094Z" fill="white"/>
<path d="M160 34.6094C160 29.7094 161.1 25.9094 163.3 23.2094C165.5 20.5094 168.8 19.2094 172.7 19.2094C176.6 19.2094 179.8 20.5094 182 23.1094C184.2 25.7094 185.4 29.4094 185.4 34.0094V56.4094H190.7V34.2094C190.7 28.0094 189.1 23.2094 186 19.7094C182.9 16.2094 178.4 14.5094 172.8 14.5094C167.2 14.5094 163.7 16.3094 160.9 19.8094L160.1 20.8094V1.10938H154.8V56.4094H160.1V34.6094H160Z" fill="white"/>
<path d="M216.6 57.3097C222.3 57.4097 227.8 55.2097 231.7 51.1097C232.2 50.6097 232.6 50.1097 233.1 49.5097V56.3097H238.4V15.5097H233.1V22.4097L231.7 20.8097C227.8 16.7097 222.3 14.4097 216.6 14.6097C204.9 14.5097 195.2 23.9097 195.1 35.6097C195.1 35.7097 195.1 35.9097 195.1 36.0097C195 41.7097 197.2 47.2097 201.3 51.2097C205.3 55.3097 210.8 57.5097 216.6 57.4097V57.3097ZM205.1 24.1097C211.5 17.6097 221.9 17.6097 228.4 24.0097C228.4 24.0097 228.4 24.0097 228.5 24.1097C231.7 27.3097 233.4 31.6097 233.3 36.0097C233.3 40.5097 231.7 44.8097 228.5 48.0097C222.1 54.5097 211.7 54.5097 205.2 48.1097C205.2 48.1097 205.2 48.1097 205.1 48.0097C201.9 44.8097 200.2 40.5097 200.3 36.1097C200.3 31.6097 201.9 27.3097 205.1 24.1097Z" fill="white"/>
<path d="M251.9 56.409V35.609C251.9 31.409 253 26.909 255.3 24.709C257.3 22.709 260.1 20.709 263.6 20.409V15.809C259 16.009 255.6 17.409 253.5 20.209C252.9 21.009 252.4 21.809 252 22.809V15.709H246.8V56.609H252.1L251.9 56.409Z" fill="white"/>
<path d="M278 15.509V1.20898H272.7V15.509H265.3V20.209H272.7V56.409H278V20.209H287.7V15.509H278Z" fill="white"/>
<path d="M51.3 16.1098C51.3 16.1098 51 20.2098 51 23.0098V56.4098H57.2V2.00977H56.2L28.6 36.8098L0.900001 2.00977H0V56.4098H6.2V23.0098C6.2 20.3098 5.8 16.1098 5.8 16.1098C7.1 18.3098 8.6 20.3098 10.1 22.4098L28 45.3098H29.1L47.2 22.4098C48.7 20.4098 50.1 18.3098 51.4 16.2098L51.3 16.1098Z" fill="white"/>
</svg>
