<svg width="139" height="80" viewBox="0 0 139 80" fill="none" xmlns="http://www.w3.org/2000/svg">
<path d="M13.7679 48.9231H16.7551L14.8976 58.9615H11.9105L13.7679 48.9231ZM14.3806 45.5769H17.3678L16.9465 47.8462H13.9594L14.3806 45.5769Z" fill="white"/>
<path d="M22.6528 51.7308C22.6528 51.5192 22.7486 50.9615 21.8677 50.9615C20.9869 50.9615 20.9486 51.3654 20.8912 51.6346C20.7954 52.0962 21.4848 52.4038 22.2507 52.6346C23.8592 53.0962 25.5634 53.6154 25.1422 55.7885C24.74 58 22.6337 59.2885 20.4316 59.2885C18.2295 59.2885 16.7742 58.5961 16.9848 55.9615H19.9529C19.8954 56.8846 20.7763 56.8846 20.9103 56.8846C21.4082 56.8846 22.0018 56.5961 22.0975 56.1154C22.2316 55.4231 21.5039 55.3462 19.7422 54.5962C18.5167 54.1731 17.5976 53.3269 17.8465 51.9808C18.2295 49.9038 20.2593 48.5769 22.3273 48.5769C24.3954 48.5769 25.8124 49.0962 25.5826 51.7308H22.6528Z" fill="white"/>
<path d="M61.4863 28.0385C64.0714 28.0385 66.5607 27.3269 68.8777 25.9038C71.1947 24.4808 72.8797 22.6346 73.8755 20.4231L74.3542 19.3462H69.9883L69.7776 19.7308C69.0117 21.0192 67.8628 22.0962 66.3309 22.9423C64.7799 23.7885 63.1714 24.2115 61.5054 24.2115C58.6523 24.2115 56.3162 23.25 54.3438 21.2692C52.3715 19.2885 51.4333 16.9231 51.4333 14.0385C51.4333 11.1538 52.3907 8.78846 54.363 6.78846C56.3162 4.80769 58.6714 3.82692 61.5246 3.82692C64.3777 3.82692 64.6841 4.23077 66.1969 5.05769C67.6905 5.86538 68.8202 6.92308 69.5479 8.17308L69.7585 8.55769H74.1435L73.6648 7.48077C72.6882 5.30769 71.0415 3.5 68.7628 2.09615C66.4649 0.692307 64.0331 0 61.5054 0C57.5608 0 54.1715 1.36538 51.4524 4.07692C48.7141 6.78846 47.3163 10.1346 47.3163 14.0385C47.3163 17.9423 48.695 21.2885 51.4524 24C54.1907 26.6923 57.58 28.0577 61.5054 28.0577L61.4863 28.0385Z" fill="white"/>
<path d="M79.2179 16.7115C79.2179 14.6154 79.6775 13 80.5775 11.9038C81.4583 10.8462 82.6838 10.3269 84.3498 10.3269C86.0157 10.3269 87.2029 10.8462 88.0838 11.8846C89.0029 12.9615 89.4433 14.5 89.4433 16.4423V27.5769H93.3879V16.5C93.3879 13.4423 92.5837 11 90.9943 9.25C89.3859 7.48077 87.1455 6.57692 84.3306 6.57692C81.5158 6.57692 80.5583 7.15385 79.2179 8.32692V0.442308H75.2733V27.5962H79.2179V16.7115Z" fill="white"/>
<path d="M105.375 28.0385C108.056 28.0385 110.354 27.2115 112.23 25.5769V27.5962H116.175V7.11538H112.23V9.15385C110.354 7.51923 108.056 6.67308 105.375 6.67308C102.694 6.67308 99.8602 7.71154 97.7921 9.76923C95.7241 11.8269 94.6709 14.3846 94.6709 17.3654C94.6709 20.3462 95.7241 22.8846 97.7921 24.9423C99.8602 27 102.407 28.0385 105.375 28.0385ZM98.6155 17.4038C98.6155 15.4038 99.2666 13.7692 100.607 12.3846C101.947 11.0192 103.537 10.3462 105.471 10.3462C107.405 10.3462 108.994 11.0192 110.334 12.3846C111.675 13.75 112.326 15.3846 112.326 17.3846C112.326 19.3846 111.675 21.0192 110.334 22.4038C108.994 23.7692 107.405 24.4423 105.471 24.4423C103.537 24.4423 101.947 23.7885 100.607 22.4038C99.2666 21.0385 98.6155 19.4038 98.6155 17.4038Z" fill="white"/>
<path d="M134.481 7.11538V0.480769H130.536V7.11538H127.09V7.19231H126.994C125.06 7.26923 123.509 7.80769 122.398 8.82692V7.11538H118.473V27.5577C115.811 28.3462 112.843 29.0769 109.569 29.7308C104.456 30.75 98.941 31.4038 93.1581 31.6731C87.8348 31.9231 82.2434 31.8846 76.518 31.5577C71.1372 31.25 65.5649 30.7115 59.9735 29.9038C57.7906 29.5962 55.7034 29.25 53.463 28.8846L51.7396 28.5962C48.7716 28.1154 46.0142 27.7308 43.3525 27.3846C41.7057 27.1731 40.0207 27 38.4313 26.8654C39.293 24.9231 39.8675 23.3846 40.0398 22.9231L46.4355 7.11538H42.1462L37.6462 18.6538L33.1272 7.11538H28.8379L35.5207 23.6346L35.4824 23.75C35.4058 23.9615 35.3292 24.1731 35.2527 24.3846L35.1186 24.75C34.8314 25.4423 34.5441 26.1538 34.3527 26.5962C33.6633 26.5962 33.0314 26.5962 32.4378 26.6154C31.8633 26.6346 31.308 26.6731 30.7336 26.7308C30.2166 26.7692 29.6421 26.8462 28.991 26.9808C28.6464 27.0385 28.3017 27.1154 27.9762 27.1923V0.846154H26.406L14.0168 16.5L1.53189 0.846154H0V27.5962H4.36589V10.9231C4.51908 11.1346 4.69142 11.3462 4.84461 11.5385L13.3275 22.4423H14.553L23.1507 11.5577C23.3039 11.3654 23.4762 11.1538 23.6294 10.9231V27.5962H26.3102C26.0804 27.6731 25.8507 27.75 25.64 27.8269C24.5486 28.2308 23.323 28.8077 22.4422 29.9615C22.0018 30.5385 21.7146 31.25 21.6188 31.9808C21.5997 32.1538 21.5805 32.3269 21.5614 32.5V32.7885C21.5614 32.9231 21.5614 33.0385 21.5805 33.1538C21.638 33.5385 21.772 33.9038 21.9635 34.2885C22.3082 34.9423 22.8443 35.5192 23.5337 35.9231C24.089 36.2692 24.74 36.5 25.506 36.6154C25.9273 36.6923 26.3868 36.7308 26.8655 36.7308H27.4209C27.7272 36.7308 28.0528 36.6923 28.34 36.6538C28.6655 36.6154 28.991 36.5577 29.2974 36.4808C30.4655 36.2115 31.6336 35.6923 32.7825 34.9231C33.9505 34.1346 34.7548 33.4231 35.5016 32.5192C36.1526 31.7115 36.5931 30.9808 36.9186 30.3654L37.4739 30.4231C39.2356 30.5962 41.0355 30.7885 42.7972 31C45.4206 31.3077 48.1014 31.6923 51.0311 32.1346L52.946 32.4423C55.0523 32.7692 57.2161 33.1154 59.3799 33.4038C65.1245 34.1538 70.8308 34.6538 76.3456 34.8846C82.4732 35.1346 88.0646 35.0577 93.4454 34.6731C99.6878 34.2115 105.203 33.4038 110.277 32.1923C116.979 30.5962 122.436 28.6923 126.477 26.5577L126.898 26.3462L126.86 24.4615L125.807 24.9423C124.792 25.4038 123.681 25.8654 122.475 26.3077V17.2308C122.475 15.2885 122.992 13.5192 123.796 12.6923C124.907 11.5769 126.017 11 127.147 10.9038L127.664 10.8654H130.594V27.6538H134.538V10.8077H139V7.09615H134.538L134.481 7.11538ZM29.8336 29.5C30.1783 29.5 30.4846 29.5 30.7719 29.5385C31.2889 29.5769 31.8059 29.6154 32.3421 29.6923C32.4952 29.6923 32.6676 29.7308 32.8591 29.75C32.3038 30.6154 31.5761 31.4615 30.7144 32.25C30.0251 32.9038 29.2783 33.3654 28.4549 33.6731C28.2442 33.75 28.0336 33.8077 27.8421 33.8654C27.5932 33.9231 27.3826 33.9808 27.1528 34C26.6549 34.0769 26.2336 34.0962 25.8124 34.0577C24.9698 34 24.3188 33.6538 23.9932 33.1346C23.9167 33 23.8592 32.8654 23.8209 32.7115V32.2692C23.8592 31.9038 23.9741 31.5577 24.1847 31.2692C24.6826 30.5577 25.6209 30.1538 26.3294 29.9423C27.1336 29.7115 28.0336 29.5769 29.2783 29.5192H29.8527L29.8336 29.5Z" fill="white"/>
<path d="M123.049 49.3269C120.56 46.7115 116.539 45.4423 110.737 45.4423C104.935 45.4423 103.498 46.0769 100.626 47.3462L102.349 39.2308H87.9497L86.1306 47.8077C83.9859 46.4423 81.1902 45.7308 77.9924 45.7308C74.7946 45.7308 75.2542 45.9038 73.9521 46.25H66.6564L67.8628 40.5192H34.9271L28.3783 72.75H54.4396L52.9077 80H67.3075L68.8202 72.8846C70.2372 73.3461 71.8266 73.5769 73.5691 73.5769C76.1925 73.5769 78.7392 73.0577 81.0179 72.0769L80.8647 72.7692H95.2645L95.6092 71.1346C98.1559 72.7692 101.698 73.5962 106.16 73.5962C115.505 73.5962 121.556 70.1346 124.696 62.9808C124.715 62.9038 125.366 61.3461 125.481 59.3846L125.634 56.8269C125.768 53.7885 124.907 51.2692 123.068 49.3462L123.049 49.3269Z" fill="white"/>
<path d="M98.3474 42.5H90.5539L89.539 47.2308H97.3517L98.3474 42.5Z" fill="#CE1141"/>
<path d="M56.8523 76.7885H64.6458L66.5607 67.7308H66.6373C67.6522 69.2115 70.0649 70.3462 73.5116 70.3462C79.4286 70.3462 84.0051 67.2885 86.188 63.0385L84.8093 69.5192H92.6028L94.1347 62.3077C94.173 67.7692 98.5006 70.3269 106.122 70.3269C113.743 70.3269 119.258 67.1923 121.69 61.6538H113.437C112.326 63.9808 110.181 65.1538 107.366 65.1538C104.552 65.1538 101.909 63.1154 102.675 59.5C103.441 55.8846 106.083 53.8462 109.722 53.8462C113.36 53.8462 114.088 54.8654 114.279 56.6346H122.36C122.628 50.7692 117.879 48.6731 110.698 48.6731C103.518 48.6731 97.6581 51.3654 95.2836 56.7885L96.8347 49.4808H89.0412L87.605 56.2692C87.2604 51.5577 83.6987 48.9615 77.9541 48.9615C72.2095 48.9615 71.7883 50.1154 69.7011 52.1346H69.6245L70.1798 49.4808H62.5969L59.5714 63.8077H42.2419L43.0653 59.3077H58.5374L59.6863 53.8462H44.2142L45.0568 49.4423H62.6161L63.8224 43.75H37.5122L32.2846 69.5H58.3651L56.8332 76.75L56.8523 76.7885ZM68.3032 59.5577C68.9543 56.4615 71.2904 54.4615 74.9286 54.4615C78.5669 54.4615 80.0796 56.2308 79.3711 59.5577C78.6626 62.8846 76.3456 64.6538 72.7648 64.6538C69.184 64.6538 67.633 62.6539 68.2841 59.5577H68.3032Z" fill="#CE1141"/>
</svg>
