<svg width="21" height="21" viewBox="0 0 21 21" fill="none" xmlns="http://www.w3.org/2000/svg">
<mask id="path-1-outside-1_933_11428" maskUnits="userSpaceOnUse" x="-0.900391" y="-0.900391" width="22" height="22" fill="black">
<rect fill="white" x="-0.900391" y="-0.900391" width="22" height="22"/>
<path d="M10.4437 0.240931C10.8029 0.448092 11.0254 0.734423 11.1367 1.12529C11.1778 1.52493 11.1702 1.86741 10.9216 2.20693C10.879 2.24811 10.879 2.24811 10.8356 2.29013C10.8251 2.42026 10.8251 2.42026 10.8302 2.56574C10.831 2.61518 10.8317 2.66463 10.8325 2.71557C10.8335 2.75364 10.8345 2.79172 10.8356 2.83095C10.8846 2.83958 10.9336 2.84822 10.9841 2.85711C11.6343 2.97722 12.2612 3.14651 12.8413 3.46017C13.0349 3.55919 13.1418 3.601 13.3549 3.54077C13.4194 3.51407 13.4831 3.48545 13.5458 3.45497C13.5794 3.44348 13.613 3.432 13.6477 3.42016C13.8517 3.33292 13.9936 3.17323 14.1507 3.02336C14.2025 2.97662 14.2025 2.97662 14.2553 2.92894C14.4789 2.7161 14.5902 2.53304 14.6695 2.23891C14.7664 1.94363 14.9926 1.7358 15.2627 1.58177C15.6247 1.4188 16.0405 1.40119 16.4289 1.4867C16.8061 1.62119 17.0688 1.85889 17.2454 2.20693C17.3894 2.55287 17.3958 3.00147 17.2615 3.35357C17.1058 3.66753 16.8812 3.8858 16.5571 4.03739C16.4908 4.05321 16.4242 4.068 16.3575 4.08192C16.0719 4.16241 15.8995 4.33919 15.6967 4.54181C15.6604 4.57581 15.6241 4.60981 15.5867 4.64484C15.4014 4.82597 15.2542 4.9829 15.2179 5.24174C15.2277 5.39063 15.309 5.48481 15.4063 5.59225C15.8235 6.10464 16.0991 6.68771 16.3217 7.30051C16.3328 7.33085 16.3438 7.36119 16.3553 7.39244C16.385 7.49031 16.385 7.49031 16.4022 7.60411C16.4353 7.79382 16.4673 7.90965 16.6225 8.03658C16.7692 8.12241 16.9194 8.1976 17.0733 8.27034C17.1298 8.29847 17.1862 8.32677 17.2424 8.35523C17.3583 8.41366 17.4745 8.47138 17.591 8.5286C17.8489 8.65601 18.1007 8.79363 18.3532 8.93077C18.4479 8.98183 18.5426 9.03286 18.6373 9.08385C18.7073 9.12155 18.7073 9.12155 18.7787 9.16002C18.9038 9.22719 19.0291 9.294 19.1545 9.36061C19.2306 9.40104 19.3066 9.4416 19.3826 9.48221C19.4775 9.53294 19.5726 9.58345 19.6678 9.6337C19.71 9.65635 19.7523 9.67901 19.7958 9.70234C19.8516 9.73201 19.8516 9.73201 19.9086 9.76227C19.9986 9.82 19.9986 9.82 20.0847 9.9448C20.1046 10.1451 20.0992 10.3469 20.0981 10.548C20.098 10.5927 20.098 10.5927 20.0979 10.6382C20.0855 13.4359 19.1204 16.1744 17.0733 18.1819C16.2466 18.9731 15.2358 19.5676 14.1534 19.9708C14.1207 19.9834 14.088 19.996 14.0543 20.009C13.6644 20.1483 13.3176 20.114 12.9274 19.9942C12.8906 19.9831 12.8538 19.972 12.8159 19.9606C11.9153 19.6788 11.1171 19.2431 10.4054 18.6395C10.3693 18.6097 10.3333 18.5799 10.2961 18.5492C9.61467 17.9738 9.08426 17.2766 8.64159 16.5178C8.61481 16.4724 8.58802 16.4269 8.56042 16.38C8.38348 16.0737 8.38348 16.0737 8.38348 15.977C8.33662 15.973 8.28976 15.9691 8.24148 15.965C7.4524 15.8682 6.56755 15.4926 5.93828 15.0246C5.81759 14.9269 5.81759 14.9269 5.71729 14.9446C5.40259 15.0674 5.05987 15.4534 4.91506 15.7419C4.89063 15.8236 4.86789 15.9059 4.84717 15.9886C4.75775 16.284 4.52482 16.4913 4.2575 16.6438C3.89544 16.8067 3.47964 16.8244 3.09128 16.7388C2.66973 16.5886 2.42754 16.3205 2.23174 15.9354C2.11954 15.6277 2.1421 15.1755 2.25863 14.872C2.4145 14.5579 2.63904 14.34 2.96307 14.1882C3.03051 14.1712 3.09826 14.1554 3.16623 14.1405C3.42868 14.0667 3.58198 13.9215 3.76699 13.7331C3.81386 13.6885 3.81386 13.6885 3.86168 13.6429C3.98094 13.5275 3.98094 13.5275 4.08156 13.3977C4.06452 13.2273 3.95633 13.0947 3.86378 12.9531C3.36927 12.1721 3.06701 11.3478 2.92005 10.444C2.57416 10.4451 2.32798 10.468 2.05126 10.678C1.82111 10.8476 1.43363 10.8013 1.15626 10.7768C0.787509 10.6964 0.509889 10.4978 0.303947 10.1944C0.0779154 9.83632 0.0584013 9.39056 0.15338 8.98715C0.292454 8.62235 0.538256 8.36836 0.898149 8.19754C1.22915 8.06914 1.64084 8.04955 1.98203 8.15805C2.12768 8.22765 2.24573 8.29427 2.3608 8.40555C2.4951 8.42489 2.4951 8.42489 2.6458 8.43155C2.69693 8.43466 2.74806 8.43777 2.80074 8.44097C2.8598 8.44403 2.8598 8.44403 2.92005 8.44715C2.92898 8.39674 2.9379 8.34633 2.9471 8.29439C3.11329 7.40137 3.41079 6.47821 3.99116 5.74906C4.09198 5.63292 4.09198 5.63292 4.07365 5.53605C3.94676 5.23171 3.54754 4.90024 3.24924 4.76022C3.16471 4.73659 3.07967 4.7146 2.99415 4.69456C2.68862 4.60809 2.47428 4.38284 2.3166 4.12433C2.14809 3.77419 2.12988 3.3721 2.2183 2.99654C2.37371 2.58888 2.65093 2.35468 3.0491 2.16532C3.36734 2.05682 3.83496 2.07863 4.14878 2.19133C4.4736 2.34206 4.69887 2.5592 4.85591 2.87255C4.87343 2.93777 4.8898 3.00329 4.90514 3.06902C4.98145 3.32282 5.13166 3.47107 5.32643 3.64998C5.35723 3.6802 5.38804 3.71042 5.41978 3.74155C5.5391 3.85688 5.5391 3.85688 5.67327 3.95419C5.84948 3.93771 5.98662 3.83309 6.13304 3.74358C6.94067 3.26537 7.793 2.97307 8.72763 2.83095C8.72656 2.49646 8.70284 2.25839 8.48565 1.99079C8.31029 1.76822 8.35818 1.39352 8.38348 1.12529C8.46664 0.768685 8.67204 0.500214 8.98574 0.301058C9.40555 0.0532478 10.0001 0.0350924 10.4437 0.240931ZM9.18471 1.11229C9.09308 1.29291 9.07149 1.42752 9.1148 1.62451C9.17192 1.70273 9.17192 1.70273 9.24319 1.77564C9.40491 1.9743 9.4113 2.14776 9.41056 2.39413C9.41144 2.43231 9.41233 2.4705 9.41325 2.50984C9.41525 2.60299 9.41575 2.69617 9.41594 2.78935C9.64308 2.78935 9.87022 2.78935 10.1042 2.78935C10.1044 2.73315 10.1045 2.67694 10.1046 2.61904C10.1062 2.54407 10.1079 2.4691 10.1096 2.39413C10.1095 2.33879 10.1095 2.33879 10.1093 2.28233C10.117 2.02832 10.1697 1.88942 10.3476 1.70074C10.4359 1.58425 10.4359 1.47826 10.4249 1.33768C10.3814 1.1422 10.2695 1.03216 10.1204 0.90168C9.75041 0.729421 9.45039 0.821557 9.18471 1.11229ZM15.3875 2.43833C15.3161 2.56927 15.2968 2.64534 15.2707 2.78675C15.1874 3.08911 14.9855 3.27926 14.7604 3.49091C14.6914 3.55611 14.6247 3.62296 14.5579 3.6902C14.2963 3.94561 14.0799 4.09255 13.7075 4.17415C13.5118 4.22302 13.3881 4.32006 13.2824 4.48883C13.2129 4.65329 13.2218 4.82003 13.2446 4.99423C13.3449 5.19552 13.4667 5.31332 13.6748 5.41024C13.8897 5.4434 14.0533 5.43433 14.2502 5.34264C14.4429 5.17402 14.5289 5.03364 14.574 4.78882C14.6574 4.48645 14.8593 4.29631 15.0844 4.08465C15.1533 4.01946 15.2201 3.9526 15.2869 3.88537C15.5485 3.62995 15.7649 3.48302 16.1372 3.40141C16.333 3.35254 16.4566 3.25551 16.5623 3.08673C16.6319 2.92227 16.6229 2.75554 16.6001 2.58134C16.4999 2.38005 16.3781 2.26224 16.1699 2.16532C15.8287 2.11266 15.6151 2.18055 15.3875 2.43833ZM2.98995 3.10656C2.89514 3.297 2.88575 3.4552 2.92005 3.66298C3.02154 3.86683 3.14448 3.97408 3.35024 4.07899C3.42097 4.09185 3.49179 4.10432 3.56265 4.11653C3.87532 4.19714 4.07194 4.39237 4.29081 4.61008C4.35822 4.67674 4.42736 4.74129 4.49688 4.80588C4.761 5.05885 4.91294 5.26814 4.99733 5.62823C5.04787 5.81752 5.14821 5.93711 5.32273 6.0393C5.4928 6.10658 5.66522 6.09791 5.84535 6.07586C6.0535 5.97894 6.17532 5.86114 6.27554 5.65985C6.30983 5.45207 6.30045 5.29387 6.20563 5.10343C6.03126 4.91706 5.88611 4.83389 5.63294 4.79028C5.32027 4.70967 5.12365 4.51444 4.90478 4.29673C4.83736 4.23007 4.76823 4.16552 4.6987 4.10093C4.43459 3.84797 4.28264 3.63867 4.19826 3.27858C4.14772 3.0893 4.04738 2.9697 3.87285 2.86751C3.52147 2.7285 3.23201 2.84784 2.98995 3.10656ZM6.49063 4.3702C6.50727 4.38736 6.52391 4.40452 6.54105 4.4222C6.90494 4.81243 6.99622 5.18681 6.97174 5.70273C6.94322 5.99858 6.79237 6.24643 6.57667 6.45028C6.17293 6.74048 5.77482 6.77962 5.2861 6.74149C4.99287 6.66822 4.72446 6.48957 4.51175 6.28387C3.69372 7.53572 3.36312 9.15062 3.67826 10.6104C3.70829 10.7365 3.74293 10.8606 3.78043 10.9848C3.78965 11.0165 3.79887 11.0482 3.80837 11.0808C3.96678 11.6137 4.17748 12.1816 4.55477 12.6073C4.60002 12.561 4.60002 12.561 4.64619 12.5137C4.9706 12.2136 5.27335 12.133 5.71114 12.1344C6.08748 12.1432 6.39873 12.2572 6.66271 12.5241C6.95296 12.9303 7.01246 13.2852 6.96384 13.7721C6.88874 14.0556 6.70304 14.3156 6.49063 14.521C6.80103 14.7162 7.11873 14.8653 7.46125 14.9994C7.49914 15.0145 7.53703 15.0295 7.57607 15.045C7.61188 15.0587 7.64769 15.0724 7.68458 15.0865C7.73271 15.1049 7.73271 15.1049 7.78181 15.1238C7.87526 15.1549 7.87526 15.1549 7.9963 15.1034C7.98615 15.0759 7.976 15.0484 7.96554 15.0201C7.43294 13.5637 7.04669 11.9991 7.03913 10.4466C7.03824 10.3999 7.03735 10.3533 7.03644 10.3052C7.03611 10.2382 7.03611 10.2382 7.03577 10.1699C7.03537 10.1296 7.03496 10.0893 7.03455 10.0478C7.04988 9.9448 7.04988 9.9448 7.10118 9.87625C7.19834 9.80597 7.29834 9.74967 7.40479 9.69324C7.47379 9.65644 7.47379 9.65644 7.54418 9.6189C7.59401 9.59259 7.64383 9.56629 7.69517 9.53919C7.74753 9.51134 7.79987 9.48347 7.85221 9.45558C7.96096 9.39764 8.06978 9.33979 8.17863 9.28202C8.42669 9.15026 8.67391 9.01704 8.92122 8.88396C9.018 8.83195 9.1148 8.77995 9.21159 8.72796C9.28346 8.68935 9.28346 8.68935 9.35678 8.64995C12.7355 6.83477 12.7355 6.83476 12.8657 6.7655C12.9425 6.72377 13.0186 6.6807 13.0935 6.6359C13.264 6.53555 13.4141 6.4537 13.6214 6.46801C13.8502 6.52463 14.0519 6.64747 14.2556 6.75969C14.3048 6.78608 14.354 6.81247 14.4047 6.83966C14.549 6.91722 14.6927 6.99567 14.8363 7.0743C14.9117 7.11503 14.9871 7.15572 15.0625 7.19634C15.217 7.27971 15.371 7.36388 15.5247 7.44871C15.5388 7.42126 15.553 7.3938 15.5677 7.36551C15.5312 7.26344 15.4918 7.16757 15.4467 7.0691C15.4334 7.03983 15.4201 7.01057 15.4064 6.98042C15.2275 6.60022 14.9893 6.25619 14.7503 5.90946C14.7239 5.91798 14.6974 5.92651 14.6701 5.9353C14.1871 6.09101 13.683 6.1829 13.2033 5.9587C12.8978 5.78723 12.6913 5.53202 12.5711 5.20971C12.5486 5.07142 12.5484 4.93363 12.5483 4.79402C12.5477 4.76546 12.5472 4.73691 12.5467 4.70748C12.5461 4.51058 12.5784 4.34921 12.6424 4.1622C10.7545 3.15272 8.30138 3.23129 6.49063 4.3702ZM13.2653 7.32131C13.2157 7.34791 13.1661 7.37451 13.1151 7.40192C13.0606 7.43138 13.0061 7.46085 12.9516 7.49031C12.8952 7.52064 12.8388 7.55094 12.7824 7.58123C12.665 7.64428 12.5476 7.70742 12.4302 7.77062C12.1883 7.90081 11.9457 8.0299 11.7032 8.15905C11.1252 8.46693 10.5483 8.7767 9.97159 9.08689C9.83078 9.16263 9.68994 9.23831 9.54908 9.31396C9.48969 9.34587 9.4303 9.3778 9.37093 9.40974C9.19803 9.50274 9.02495 9.59541 8.8517 9.68779C8.74536 9.74452 8.63908 9.80134 8.5328 9.85818C8.48032 9.88621 8.4278 9.9142 8.37526 9.94215C8.30142 9.98143 8.22767 10.0209 8.15393 10.0603C8.1111 10.0832 8.06827 10.106 8.02414 10.1296C7.96777 10.1617 7.96777 10.1617 7.91027 10.1944C7.87716 10.2124 7.84405 10.2304 7.80994 10.2489C7.72634 10.3172 7.72634 10.3172 7.71893 10.4375C7.72935 10.7974 7.75848 11.1506 7.80809 11.5075C7.81187 11.535 7.81564 11.5624 7.81953 11.5908C7.95632 12.5788 8.18307 13.5345 8.51253 14.4794C8.52338 14.511 8.53423 14.5426 8.54541 14.5752C8.96229 15.7758 9.63322 16.851 10.5344 17.7659C10.5653 17.7984 10.5961 17.8309 10.6279 17.8644C11.3053 18.5564 12.1995 18.9882 13.1156 19.3051C13.1665 19.3228 13.2175 19.3404 13.27 19.3586C13.5931 19.4241 13.8555 19.3244 14.148 19.2011C14.1835 19.1863 14.219 19.1716 14.2556 19.1563C16.327 18.2749 17.7975 16.5728 18.6247 14.5648C19.1064 13.3471 19.3391 12.0225 19.3829 10.7222C19.3853 10.6845 19.3877 10.6468 19.3902 10.6079C19.3941 10.4156 19.3941 10.4156 19.2933 10.2582C19.2015 10.2011 19.1077 10.1565 19.0092 10.1112C18.9267 10.0666 18.8444 10.0216 18.7623 9.97633C18.6681 9.92586 18.5738 9.87549 18.4795 9.8252C18.4282 9.79772 18.3768 9.77023 18.3254 9.74273C18.219 9.68574 18.1125 9.6288 18.006 9.57189C17.7594 9.44005 17.5132 9.30757 17.2669 9.17517C17.1701 9.12317 17.0733 9.07117 16.9765 9.01917C16.4421 8.73204 15.9077 8.44491 15.3732 8.15779C15.3481 8.14426 15.3229 8.13074 15.2969 8.11681C15.2462 8.08954 15.1955 8.06228 15.1447 8.03501C15.0211 7.9686 14.8975 7.90221 14.7738 7.83587C14.556 7.71894 14.3383 7.60175 14.1212 7.48349C14.0849 7.4638 14.0486 7.44411 14.0113 7.42382C13.9449 7.38777 13.8787 7.35159 13.8125 7.31524C13.5633 7.18005 13.5117 7.18852 13.2653 7.32131ZM0.925036 9.09717C0.830218 9.28761 0.820836 9.44581 0.85513 9.65359C0.955331 9.85484 1.07803 9.97127 1.28532 10.0696C1.42233 10.0981 1.53544 10.0978 1.67249 10.0696C1.75338 10.0144 1.75338 10.0144 1.82877 9.94545C2.03421 9.78905 2.21358 9.78288 2.46835 9.7836C2.50783 9.78274 2.54731 9.78188 2.58799 9.781C2.68432 9.77905 2.78068 9.77857 2.87703 9.7784C2.87703 9.55874 2.87703 9.33908 2.87703 9.11277C2.81891 9.11266 2.7608 9.11256 2.70092 9.11245C2.62339 9.11088 2.54587 9.10926 2.46835 9.10757C2.43019 9.10768 2.39204 9.10779 2.35273 9.1079C2.09006 9.10043 1.94644 9.04947 1.75133 8.87742C1.63087 8.79207 1.52126 8.79206 1.3759 8.80271C1.17376 8.84478 1.05996 8.95296 0.925036 9.09717ZM5.06294 13.0883C4.99154 13.2193 4.9722 13.2953 4.94615 13.4367C4.86279 13.7391 4.66091 13.9292 4.43578 14.1409C4.36685 14.2061 4.30009 14.2729 4.23331 14.3402C3.97172 14.5956 3.7553 14.7425 3.38293 14.8241C3.1872 14.873 3.06353 14.97 2.95786 15.1388C2.88829 15.3033 2.89725 15.47 2.92005 15.6442C3.02027 15.8455 3.14209 15.9633 3.35024 16.0602C3.5651 16.0934 3.72869 16.0843 3.92562 15.9926C4.11834 15.824 4.20434 15.6836 4.24944 15.4388C4.3328 15.1364 4.53468 14.9463 4.75981 14.7346C4.82874 14.6694 4.89549 14.6026 4.96228 14.5353C5.22386 14.2799 5.44029 14.133 5.81265 14.0514C6.00839 14.0025 6.13206 13.9055 6.23773 13.7367C6.3073 13.5723 6.29834 13.4055 6.27554 13.2313C6.17532 13.03 6.0535 12.9122 5.84535 12.8153C5.50415 12.7626 5.2905 12.8305 5.06294 13.0883Z"/>
<path d="M13.8754 8.41601C14.0144 8.48823 14.1512 8.56333 14.2879 8.63958C14.3394 8.66788 14.391 8.69613 14.4426 8.72433C14.5496 8.7829 14.6565 8.84167 14.7634 8.90061C15.0088 9.03576 15.2561 9.16771 15.5032 9.3C15.5997 9.35188 15.6963 9.40378 15.7929 9.45569C16.038 9.58738 16.2832 9.71888 16.5285 9.85035C16.6732 9.92805 16.8179 10.006 16.9625 10.0839C17.1524 10.1863 17.3429 10.2876 17.5338 10.3881C17.6241 10.4362 17.7144 10.4843 17.8047 10.5324C17.8463 10.5541 17.888 10.5757 17.9309 10.598C18.3069 10.7998 18.3069 10.7998 18.3639 10.9849C18.3711 11.1416 18.358 11.2943 18.3424 11.4503C18.3381 11.4961 18.3339 11.542 18.3294 11.5892C18.1248 13.5823 17.4018 15.4407 15.9549 16.8923C15.9264 16.922 15.8979 16.9517 15.8685 16.9823C15.3027 17.5569 14.2997 18.314 13.4586 18.3911C13.2051 18.3876 12.9551 18.2432 12.7284 18.1403C12.6875 18.1219 12.6875 18.1219 12.6458 18.103C11.4266 17.5416 10.5824 16.5356 9.97521 15.3946C9.96038 15.3676 9.94554 15.3406 9.93026 15.3128C9.33823 14.2294 8.47913 12.123 8.77068 10.9017C8.88566 10.7664 9.01497 10.6877 9.17281 10.6044C9.21867 10.58 9.26454 10.5556 9.3118 10.5305C9.36126 10.5045 9.41072 10.4786 9.46167 10.4518C9.51378 10.4242 9.56586 10.3966 9.61793 10.3689C9.72614 10.3114 9.83442 10.2541 9.94276 10.1968C10.1927 10.0646 10.4415 9.93054 10.6904 9.79662C10.7383 9.77087 10.7863 9.74512 10.8356 9.71859C11.1621 9.54315 11.4883 9.36722 11.8143 9.1908C11.8796 9.15543 11.8796 9.15543 11.9463 9.11934C12.1726 8.99673 12.3984 8.87354 12.6239 8.7496C12.6922 8.71208 12.6922 8.71208 12.7619 8.67381C12.8488 8.62607 12.9356 8.57823 13.0223 8.53028C13.061 8.50902 13.0996 8.48776 13.1395 8.46586C13.1904 8.43776 13.1904 8.43776 13.2423 8.4091C13.4725 8.29159 13.6471 8.31224 13.8754 8.41601ZM13.2704 9.2077C13.2327 9.22866 13.1951 9.24963 13.1563 9.27122C13.1154 9.29445 13.0744 9.31768 13.0323 9.34161C12.9425 9.39161 12.8527 9.44156 12.7629 9.49144C12.7153 9.51794 12.6677 9.54445 12.6186 9.57176C12.3923 9.69667 12.1641 9.81822 11.9357 9.93957C11.804 10.0095 11.6725 10.0796 11.5409 10.1497C11.5147 10.1637 11.4885 10.1777 11.4615 10.192C11.1976 10.3326 10.934 10.4735 10.6706 10.6148C10.5992 10.6531 10.5277 10.6914 10.4562 10.7296C10.3681 10.7769 10.2802 10.8246 10.1926 10.8728C10.1007 10.9221 10.0074 10.9691 9.91323 11.0143C9.78098 11.0805 9.66144 11.1447 9.54502 11.2345C9.50547 11.384 9.50995 11.4243 9.54502 11.5673C9.55184 11.6099 9.55866 11.6525 9.56569 11.6964C9.59104 11.8526 9.621 12.0076 9.65257 12.1627C9.66112 12.205 9.66112 12.205 9.66984 12.2482C10.0321 14.0244 10.7467 16.0081 12.3424 17.1019C12.8873 17.4824 12.8873 17.4824 13.5156 17.6341C14.4684 17.3505 15.3652 16.5598 15.9549 15.8106C15.9835 15.7753 16.0121 15.74 16.0416 15.7035C16.2924 15.3841 16.4936 15.0416 16.6862 14.6874C16.6999 14.6623 16.7136 14.6372 16.7277 14.6114C17.2192 13.6964 17.477 12.6297 17.5896 11.6089C17.598 11.5585 17.598 11.5585 17.6066 11.5072C17.6219 11.4095 17.6219 11.4095 17.5896 11.2761C17.4763 11.1995 17.3656 11.1334 17.2454 11.0681C17.2064 11.0466 17.1673 11.0251 17.127 11.003C16.9903 10.9287 16.8531 10.8553 16.7158 10.7821C16.6644 10.7546 16.613 10.7271 16.5617 10.6996C16.4552 10.6426 16.3488 10.5857 16.2423 10.5288C15.9957 10.3969 15.7494 10.2644 15.5032 10.132C15.2282 9.98426 14.9533 9.83653 14.6781 9.68915C14.5704 9.63144 14.4627 9.57369 14.355 9.51593C14.3035 9.48835 14.252 9.46078 14.2005 9.43324C14.1292 9.39511 14.058 9.3569 13.9867 9.31869C13.9462 9.29696 13.9056 9.27522 13.8637 9.25283C13.7846 9.20911 13.7077 9.16168 13.6318 9.1128C13.4563 9.1128 13.4147 9.1262 13.2704 9.2077Z"/>
<path d="M15.4386 11.1096C15.5172 11.161 15.5172 11.161 15.5957 11.231C15.6254 11.2575 15.6552 11.2839 15.6858 11.3111C15.8628 11.4751 16.0373 11.6411 16.2102 11.8091C16.2658 11.8626 16.2658 11.8626 16.3226 11.9172C16.3577 11.9513 16.3929 11.9854 16.4292 12.0205C16.461 12.0513 16.4928 12.0821 16.5256 12.1139C16.6458 12.2388 16.6656 12.3448 16.6635 12.5158C16.6379 12.6307 16.592 12.6808 16.5098 12.7668C16.4823 12.7957 16.4549 12.8245 16.4266 12.8543C16.3006 12.982 16.1738 13.1085 16.0446 13.2331C16.0165 13.2603 15.9885 13.2874 15.9597 13.3154C15.8682 13.404 15.7767 13.4924 15.6851 13.5809C15.6211 13.6428 15.5571 13.7047 15.4931 13.7666C15.3597 13.8957 15.2261 14.0248 15.0925 14.1538C14.9211 14.3194 14.7498 14.4852 14.5786 14.651C14.4468 14.7786 14.3149 14.9061 14.183 15.0335C14.1197 15.0946 14.0565 15.1558 13.9934 15.217C13.9054 15.3021 13.8174 15.3871 13.7293 15.4721C13.7031 15.4975 13.6769 15.5229 13.65 15.549C13.429 15.7616 13.429 15.7616 13.2177 15.7898C13.0565 15.7876 12.9857 15.7486 12.8682 15.6436C12.8384 15.6171 12.8085 15.5905 12.7778 15.5632C12.6247 15.4217 12.4734 15.2788 12.3239 15.1338C12.291 15.1021 12.2582 15.0704 12.2244 15.0377C12.1557 14.9713 12.087 14.9048 12.0184 14.8383C11.9131 14.7362 11.8075 14.6343 11.7019 14.5324C11.6349 14.4677 11.568 14.4029 11.5011 14.3382C11.4695 14.3076 11.4379 14.2771 11.4053 14.2457C11.3763 14.2175 11.3472 14.1893 11.3173 14.1602C11.2917 14.1354 11.2661 14.1106 11.2397 14.0851C11.1284 13.9676 11.114 13.8548 11.1167 13.6968C11.1413 13.5847 11.1821 13.5377 11.2622 13.4538C11.2895 13.425 11.3168 13.3963 11.345 13.3666C11.5145 13.1955 11.6862 13.0267 11.8599 12.8595C11.9153 12.8057 11.9153 12.8057 11.9717 12.7509C12.007 12.7168 12.0422 12.6828 12.0785 12.6478C12.1104 12.617 12.1423 12.5862 12.1751 12.5545C12.3039 12.4386 12.413 12.4197 12.5894 12.4206C12.7776 12.4604 12.8995 12.6019 13.0295 12.7321C13.0541 12.7559 13.0786 12.7796 13.1039 12.8041C13.122 12.8215 13.14 12.839 13.1586 12.8569C13.3009 12.7969 13.3939 12.7224 13.5028 12.616C13.5361 12.5836 13.5694 12.5513 13.6037 12.518C13.657 12.4656 13.657 12.4656 13.7114 12.4121C13.7482 12.3763 13.785 12.3405 13.8229 12.3037C13.9404 12.1893 14.0577 12.0746 14.1749 11.9599C14.2924 11.8451 14.41 11.7303 14.5278 11.6157C14.601 11.5443 14.6742 11.4728 14.7472 11.4012C14.7803 11.369 14.8133 11.3368 14.8473 11.3036C14.8764 11.2751 14.9055 11.2466 14.9355 11.2173C15.0821 11.0845 15.2465 11.0703 15.4386 11.1096ZM15.1467 12.0478C15.1159 12.0779 15.085 12.1081 15.0532 12.1392C15.0181 12.1732 14.9831 12.2072 14.947 12.2423C14.9091 12.2794 14.8713 12.3166 14.8323 12.3549C14.773 12.4126 14.7136 12.4703 14.6543 12.528C14.5711 12.609 14.488 12.6903 14.405 12.7715C14.2597 12.9136 14.1142 13.0555 13.9685 13.1972C13.891 13.2728 13.8135 13.3484 13.7361 13.4242C13.7011 13.4583 13.6661 13.4925 13.63 13.5276C13.5991 13.5579 13.5682 13.5881 13.5364 13.6192C13.4098 13.7343 13.2992 13.7518 13.1254 13.7509C12.9372 13.711 12.8153 13.5695 12.6853 13.4393C12.6608 13.4156 12.6362 13.3918 12.6109 13.3673C12.5929 13.3499 12.5749 13.3325 12.5563 13.3145C12.4078 13.376 12.3132 13.4576 12.2014 13.5693C12.171 13.5995 12.1406 13.6296 12.1093 13.6607C12.075 13.6953 12.075 13.6953 12.0401 13.7305C12.109 13.8972 12.2302 14.0083 12.3603 14.1316C12.3831 14.1535 12.4059 14.1755 12.4294 14.198C12.502 14.2678 12.5748 14.3372 12.6477 14.4066C12.6971 14.4539 12.7464 14.5012 12.7957 14.5486C12.9165 14.6644 13.0374 14.78 13.1586 14.8954C13.3296 14.8288 13.4442 14.7135 13.5713 14.5889C13.6066 14.5548 13.6066 14.5548 13.6426 14.52C13.7201 14.445 13.7972 14.3697 13.8744 14.2944C13.9282 14.2423 13.9819 14.1902 14.0357 14.1381C14.1771 14.0011 14.3182 13.8638 14.4592 13.7265C14.6032 13.5864 14.7475 13.4465 14.8918 13.3066C15.1746 13.0321 15.4573 12.7574 15.7397 12.4825C15.6713 12.3427 15.5955 12.2487 15.4816 12.1393C15.4514 12.1099 15.4212 12.0805 15.3902 12.0502C15.2826 11.9609 15.2541 11.9575 15.1467 12.0478Z"/>
<path d="M5.77815 8.50957C6.02873 8.65601 6.23177 8.88356 6.31857 9.1544C6.35321 9.48039 6.36695 9.80418 6.1465 10.0696C5.93981 10.2795 5.75237 10.4276 5.4466 10.458C5.08024 10.4619 4.82685 10.4489 4.5563 10.1998C4.28176 9.91259 4.23299 9.68683 4.24055 9.29773C4.27046 8.97065 4.42778 8.79872 4.67965 8.5905C4.98355 8.38801 5.44071 8.36497 5.77815 8.50957ZM5.05489 9.222C4.96403 9.35042 4.95866 9.41766 4.98498 9.57041C5.04951 9.67441 5.04951 9.67441 5.15706 9.73682C5.31501 9.76227 5.38455 9.75708 5.51734 9.66921C5.6082 9.5408 5.61357 9.47355 5.58725 9.3208C5.52272 9.2168 5.52272 9.2168 5.41517 9.1544C5.25722 9.12894 5.18768 9.13413 5.05489 9.222Z"/>
<path d="M8.53137 6.5127C8.78195 6.65914 8.98499 6.88668 9.0718 7.15752C9.10643 7.48352 9.12018 7.80731 8.89972 8.07276C8.69304 8.28265 8.50559 8.43076 8.19982 8.46115C7.83346 8.46505 7.58007 8.45207 7.30953 8.20292C7.03499 7.91571 6.98621 7.68995 6.99377 7.30085C7.02368 6.97378 7.181 6.80185 7.43287 6.59363C7.73677 6.39114 8.19393 6.3681 8.53137 6.5127ZM7.80811 7.22513C7.71725 7.35354 7.71188 7.42079 7.7382 7.57354C7.80273 7.67754 7.80273 7.67754 7.91028 7.73994C8.06824 7.7654 8.13777 7.76021 8.27057 7.67234C8.36143 7.54392 8.3668 7.47668 8.34047 7.32393C8.27594 7.21993 8.27594 7.21993 8.1684 7.15752C8.01044 7.13207 7.94091 7.13726 7.80811 7.22513Z"/>
<path d="M10.9404 4.18302C11.191 4.32945 11.3941 4.557 11.4809 4.82784C11.5155 5.15383 11.5292 5.47762 11.3088 5.74307C11.1021 5.95296 10.9147 6.10108 10.6089 6.13146C10.2425 6.13537 9.98914 6.12239 9.7186 5.87324C9.44406 5.58603 9.39528 5.36027 9.40284 4.97117C9.43275 4.6441 9.59007 4.47217 9.84194 4.26395C10.1458 4.06145 10.603 4.03841 10.9404 4.18302ZM10.2172 4.89544C10.1263 5.02386 10.1209 5.09111 10.1473 5.24386C10.2118 5.34786 10.2118 5.34786 10.3194 5.41026C10.4773 5.43572 10.5468 5.43052 10.6796 5.34266C10.7705 5.21424 10.7759 5.147 10.7495 4.99425C10.685 4.89024 10.685 4.89024 10.5775 4.82784C10.4195 4.80238 10.35 4.80758 10.2172 4.89544Z"/>
</mask>
<path d="M10.4437 0.240931C10.8029 0.448092 11.0254 0.734423 11.1367 1.12529C11.1778 1.52493 11.1702 1.86741 10.9216 2.20693C10.879 2.24811 10.879 2.24811 10.8356 2.29013C10.8251 2.42026 10.8251 2.42026 10.8302 2.56574C10.831 2.61518 10.8317 2.66463 10.8325 2.71557C10.8335 2.75364 10.8345 2.79172 10.8356 2.83095C10.8846 2.83958 10.9336 2.84822 10.9841 2.85711C11.6343 2.97722 12.2612 3.14651 12.8413 3.46017C13.0349 3.55919 13.1418 3.601 13.3549 3.54077C13.4194 3.51407 13.4831 3.48545 13.5458 3.45497C13.5794 3.44348 13.613 3.432 13.6477 3.42016C13.8517 3.33292 13.9936 3.17323 14.1507 3.02336C14.2025 2.97662 14.2025 2.97662 14.2553 2.92894C14.4789 2.7161 14.5902 2.53304 14.6695 2.23891C14.7664 1.94363 14.9926 1.7358 15.2627 1.58177C15.6247 1.4188 16.0405 1.40119 16.4289 1.4867C16.8061 1.62119 17.0688 1.85889 17.2454 2.20693C17.3894 2.55287 17.3958 3.00147 17.2615 3.35357C17.1058 3.66753 16.8812 3.8858 16.5571 4.03739C16.4908 4.05321 16.4242 4.068 16.3575 4.08192C16.0719 4.16241 15.8995 4.33919 15.6967 4.54181C15.6604 4.57581 15.6241 4.60981 15.5867 4.64484C15.4014 4.82597 15.2542 4.9829 15.2179 5.24174C15.2277 5.39063 15.309 5.48481 15.4063 5.59225C15.8235 6.10464 16.0991 6.68771 16.3217 7.30051C16.3328 7.33085 16.3438 7.36119 16.3553 7.39244C16.385 7.49031 16.385 7.49031 16.4022 7.60411C16.4353 7.79382 16.4673 7.90965 16.6225 8.03658C16.7692 8.12241 16.9194 8.1976 17.0733 8.27034C17.1298 8.29847 17.1862 8.32677 17.2424 8.35523C17.3583 8.41366 17.4745 8.47138 17.591 8.5286C17.8489 8.65601 18.1007 8.79363 18.3532 8.93077C18.4479 8.98183 18.5426 9.03286 18.6373 9.08385C18.7073 9.12155 18.7073 9.12155 18.7787 9.16002C18.9038 9.22719 19.0291 9.294 19.1545 9.36061C19.2306 9.40104 19.3066 9.4416 19.3826 9.48221C19.4775 9.53294 19.5726 9.58345 19.6678 9.6337C19.71 9.65635 19.7523 9.67901 19.7958 9.70234C19.8516 9.73201 19.8516 9.73201 19.9086 9.76227C19.9986 9.82 19.9986 9.82 20.0847 9.9448C20.1046 10.1451 20.0992 10.3469 20.0981 10.548C20.098 10.5927 20.098 10.5927 20.0979 10.6382C20.0855 13.4359 19.1204 16.1744 17.0733 18.1819C16.2466 18.9731 15.2358 19.5676 14.1534 19.9708C14.1207 19.9834 14.088 19.996 14.0543 20.009C13.6644 20.1483 13.3176 20.114 12.9274 19.9942C12.8906 19.9831 12.8538 19.972 12.8159 19.9606C11.9153 19.6788 11.1171 19.2431 10.4054 18.6395C10.3693 18.6097 10.3333 18.5799 10.2961 18.5492C9.61467 17.9738 9.08426 17.2766 8.64159 16.5178C8.61481 16.4724 8.58802 16.4269 8.56042 16.38C8.38348 16.0737 8.38348 16.0737 8.38348 15.977C8.33662 15.973 8.28976 15.9691 8.24148 15.965C7.4524 15.8682 6.56755 15.4926 5.93828 15.0246C5.81759 14.9269 5.81759 14.9269 5.71729 14.9446C5.40259 15.0674 5.05987 15.4534 4.91506 15.7419C4.89063 15.8236 4.86789 15.9059 4.84717 15.9886C4.75775 16.284 4.52482 16.4913 4.2575 16.6438C3.89544 16.8067 3.47964 16.8244 3.09128 16.7388C2.66973 16.5886 2.42754 16.3205 2.23174 15.9354C2.11954 15.6277 2.1421 15.1755 2.25863 14.872C2.4145 14.5579 2.63904 14.34 2.96307 14.1882C3.03051 14.1712 3.09826 14.1554 3.16623 14.1405C3.42868 14.0667 3.58198 13.9215 3.76699 13.7331C3.81386 13.6885 3.81386 13.6885 3.86168 13.6429C3.98094 13.5275 3.98094 13.5275 4.08156 13.3977C4.06452 13.2273 3.95633 13.0947 3.86378 12.9531C3.36927 12.1721 3.06701 11.3478 2.92005 10.444C2.57416 10.4451 2.32798 10.468 2.05126 10.678C1.82111 10.8476 1.43363 10.8013 1.15626 10.7768C0.787509 10.6964 0.509889 10.4978 0.303947 10.1944C0.0779154 9.83632 0.0584013 9.39056 0.15338 8.98715C0.292454 8.62235 0.538256 8.36836 0.898149 8.19754C1.22915 8.06914 1.64084 8.04955 1.98203 8.15805C2.12768 8.22765 2.24573 8.29427 2.3608 8.40555C2.4951 8.42489 2.4951 8.42489 2.6458 8.43155C2.69693 8.43466 2.74806 8.43777 2.80074 8.44097C2.8598 8.44403 2.8598 8.44403 2.92005 8.44715C2.92898 8.39674 2.9379 8.34633 2.9471 8.29439C3.11329 7.40137 3.41079 6.47821 3.99116 5.74906C4.09198 5.63292 4.09198 5.63292 4.07365 5.53605C3.94676 5.23171 3.54754 4.90024 3.24924 4.76022C3.16471 4.73659 3.07967 4.7146 2.99415 4.69456C2.68862 4.60809 2.47428 4.38284 2.3166 4.12433C2.14809 3.77419 2.12988 3.3721 2.2183 2.99654C2.37371 2.58888 2.65093 2.35468 3.0491 2.16532C3.36734 2.05682 3.83496 2.07863 4.14878 2.19133C4.4736 2.34206 4.69887 2.5592 4.85591 2.87255C4.87343 2.93777 4.8898 3.00329 4.90514 3.06902C4.98145 3.32282 5.13166 3.47107 5.32643 3.64998C5.35723 3.6802 5.38804 3.71042 5.41978 3.74155C5.5391 3.85688 5.5391 3.85688 5.67327 3.95419C5.84948 3.93771 5.98662 3.83309 6.13304 3.74358C6.94067 3.26537 7.793 2.97307 8.72763 2.83095C8.72656 2.49646 8.70284 2.25839 8.48565 1.99079C8.31029 1.76822 8.35818 1.39352 8.38348 1.12529C8.46664 0.768685 8.67204 0.500214 8.98574 0.301058C9.40555 0.0532478 10.0001 0.0350924 10.4437 0.240931ZM9.18471 1.11229C9.09308 1.29291 9.07149 1.42752 9.1148 1.62451C9.17192 1.70273 9.17192 1.70273 9.24319 1.77564C9.40491 1.9743 9.4113 2.14776 9.41056 2.39413C9.41144 2.43231 9.41233 2.4705 9.41325 2.50984C9.41525 2.60299 9.41575 2.69617 9.41594 2.78935C9.64308 2.78935 9.87022 2.78935 10.1042 2.78935C10.1044 2.73315 10.1045 2.67694 10.1046 2.61904C10.1062 2.54407 10.1079 2.4691 10.1096 2.39413C10.1095 2.33879 10.1095 2.33879 10.1093 2.28233C10.117 2.02832 10.1697 1.88942 10.3476 1.70074C10.4359 1.58425 10.4359 1.47826 10.4249 1.33768C10.3814 1.1422 10.2695 1.03216 10.1204 0.90168C9.75041 0.729421 9.45039 0.821557 9.18471 1.11229ZM15.3875 2.43833C15.3161 2.56927 15.2968 2.64534 15.2707 2.78675C15.1874 3.08911 14.9855 3.27926 14.7604 3.49091C14.6914 3.55611 14.6247 3.62296 14.5579 3.6902C14.2963 3.94561 14.0799 4.09255 13.7075 4.17415C13.5118 4.22302 13.3881 4.32006 13.2824 4.48883C13.2129 4.65329 13.2218 4.82003 13.2446 4.99423C13.3449 5.19552 13.4667 5.31332 13.6748 5.41024C13.8897 5.4434 14.0533 5.43433 14.2502 5.34264C14.4429 5.17402 14.5289 5.03364 14.574 4.78882C14.6574 4.48645 14.8593 4.29631 15.0844 4.08465C15.1533 4.01946 15.2201 3.9526 15.2869 3.88537C15.5485 3.62995 15.7649 3.48302 16.1372 3.40141C16.333 3.35254 16.4566 3.25551 16.5623 3.08673C16.6319 2.92227 16.6229 2.75554 16.6001 2.58134C16.4999 2.38005 16.3781 2.26224 16.1699 2.16532C15.8287 2.11266 15.6151 2.18055 15.3875 2.43833ZM2.98995 3.10656C2.89514 3.297 2.88575 3.4552 2.92005 3.66298C3.02154 3.86683 3.14448 3.97408 3.35024 4.07899C3.42097 4.09185 3.49179 4.10432 3.56265 4.11653C3.87532 4.19714 4.07194 4.39237 4.29081 4.61008C4.35822 4.67674 4.42736 4.74129 4.49688 4.80588C4.761 5.05885 4.91294 5.26814 4.99733 5.62823C5.04787 5.81752 5.14821 5.93711 5.32273 6.0393C5.4928 6.10658 5.66522 6.09791 5.84535 6.07586C6.0535 5.97894 6.17532 5.86114 6.27554 5.65985C6.30983 5.45207 6.30045 5.29387 6.20563 5.10343C6.03126 4.91706 5.88611 4.83389 5.63294 4.79028C5.32027 4.70967 5.12365 4.51444 4.90478 4.29673C4.83736 4.23007 4.76823 4.16552 4.6987 4.10093C4.43459 3.84797 4.28264 3.63867 4.19826 3.27858C4.14772 3.0893 4.04738 2.9697 3.87285 2.86751C3.52147 2.7285 3.23201 2.84784 2.98995 3.10656ZM6.49063 4.3702C6.50727 4.38736 6.52391 4.40452 6.54105 4.4222C6.90494 4.81243 6.99622 5.18681 6.97174 5.70273C6.94322 5.99858 6.79237 6.24643 6.57667 6.45028C6.17293 6.74048 5.77482 6.77962 5.2861 6.74149C4.99287 6.66822 4.72446 6.48957 4.51175 6.28387C3.69372 7.53572 3.36312 9.15062 3.67826 10.6104C3.70829 10.7365 3.74293 10.8606 3.78043 10.9848C3.78965 11.0165 3.79887 11.0482 3.80837 11.0808C3.96678 11.6137 4.17748 12.1816 4.55477 12.6073C4.60002 12.561 4.60002 12.561 4.64619 12.5137C4.9706 12.2136 5.27335 12.133 5.71114 12.1344C6.08748 12.1432 6.39873 12.2572 6.66271 12.5241C6.95296 12.9303 7.01246 13.2852 6.96384 13.7721C6.88874 14.0556 6.70304 14.3156 6.49063 14.521C6.80103 14.7162 7.11873 14.8653 7.46125 14.9994C7.49914 15.0145 7.53703 15.0295 7.57607 15.045C7.61188 15.0587 7.64769 15.0724 7.68458 15.0865C7.73271 15.1049 7.73271 15.1049 7.78181 15.1238C7.87526 15.1549 7.87526 15.1549 7.9963 15.1034C7.98615 15.0759 7.976 15.0484 7.96554 15.0201C7.43294 13.5637 7.04669 11.9991 7.03913 10.4466C7.03824 10.3999 7.03735 10.3533 7.03644 10.3052C7.03611 10.2382 7.03611 10.2382 7.03577 10.1699C7.03537 10.1296 7.03496 10.0893 7.03455 10.0478C7.04988 9.9448 7.04988 9.9448 7.10118 9.87625C7.19834 9.80597 7.29834 9.74967 7.40479 9.69324C7.47379 9.65644 7.47379 9.65644 7.54418 9.6189C7.59401 9.59259 7.64383 9.56629 7.69517 9.53919C7.74753 9.51134 7.79987 9.48347 7.85221 9.45558C7.96096 9.39764 8.06978 9.33979 8.17863 9.28202C8.42669 9.15026 8.67391 9.01704 8.92122 8.88396C9.018 8.83195 9.1148 8.77995 9.21159 8.72796C9.28346 8.68935 9.28346 8.68935 9.35678 8.64995C12.7355 6.83477 12.7355 6.83476 12.8657 6.7655C12.9425 6.72377 13.0186 6.6807 13.0935 6.6359C13.264 6.53555 13.4141 6.4537 13.6214 6.46801C13.8502 6.52463 14.0519 6.64747 14.2556 6.75969C14.3048 6.78608 14.354 6.81247 14.4047 6.83966C14.549 6.91722 14.6927 6.99567 14.8363 7.0743C14.9117 7.11503 14.9871 7.15572 15.0625 7.19634C15.217 7.27971 15.371 7.36388 15.5247 7.44871C15.5388 7.42126 15.553 7.3938 15.5677 7.36551C15.5312 7.26344 15.4918 7.16757 15.4467 7.0691C15.4334 7.03983 15.4201 7.01057 15.4064 6.98042C15.2275 6.60022 14.9893 6.25619 14.7503 5.90946C14.7239 5.91798 14.6974 5.92651 14.6701 5.9353C14.1871 6.09101 13.683 6.1829 13.2033 5.9587C12.8978 5.78723 12.6913 5.53202 12.5711 5.20971C12.5486 5.07142 12.5484 4.93363 12.5483 4.79402C12.5477 4.76546 12.5472 4.73691 12.5467 4.70748C12.5461 4.51058 12.5784 4.34921 12.6424 4.1622C10.7545 3.15272 8.30138 3.23129 6.49063 4.3702ZM13.2653 7.32131C13.2157 7.34791 13.1661 7.37451 13.1151 7.40192C13.0606 7.43138 13.0061 7.46085 12.9516 7.49031C12.8952 7.52064 12.8388 7.55094 12.7824 7.58123C12.665 7.64428 12.5476 7.70742 12.4302 7.77062C12.1883 7.90081 11.9457 8.0299 11.7032 8.15905C11.1252 8.46693 10.5483 8.7767 9.97159 9.08689C9.83078 9.16263 9.68994 9.23831 9.54908 9.31396C9.48969 9.34587 9.4303 9.3778 9.37093 9.40974C9.19803 9.50274 9.02495 9.59541 8.8517 9.68779C8.74536 9.74452 8.63908 9.80134 8.5328 9.85818C8.48032 9.88621 8.4278 9.9142 8.37526 9.94215C8.30142 9.98143 8.22767 10.0209 8.15393 10.0603C8.1111 10.0832 8.06827 10.106 8.02414 10.1296C7.96777 10.1617 7.96777 10.1617 7.91027 10.1944C7.87716 10.2124 7.84405 10.2304 7.80994 10.2489C7.72634 10.3172 7.72634 10.3172 7.71893 10.4375C7.72935 10.7974 7.75848 11.1506 7.80809 11.5075C7.81187 11.535 7.81564 11.5624 7.81953 11.5908C7.95632 12.5788 8.18307 13.5345 8.51253 14.4794C8.52338 14.511 8.53423 14.5426 8.54541 14.5752C8.96229 15.7758 9.63322 16.851 10.5344 17.7659C10.5653 17.7984 10.5961 17.8309 10.6279 17.8644C11.3053 18.5564 12.1995 18.9882 13.1156 19.3051C13.1665 19.3228 13.2175 19.3404 13.27 19.3586C13.5931 19.4241 13.8555 19.3244 14.148 19.2011C14.1835 19.1863 14.219 19.1716 14.2556 19.1563C16.327 18.2749 17.7975 16.5728 18.6247 14.5648C19.1064 13.3471 19.3391 12.0225 19.3829 10.7222C19.3853 10.6845 19.3877 10.6468 19.3902 10.6079C19.3941 10.4156 19.3941 10.4156 19.2933 10.2582C19.2015 10.2011 19.1077 10.1565 19.0092 10.1112C18.9267 10.0666 18.8444 10.0216 18.7623 9.97633C18.6681 9.92586 18.5738 9.87549 18.4795 9.8252C18.4282 9.79772 18.3768 9.77023 18.3254 9.74273C18.219 9.68574 18.1125 9.6288 18.006 9.57189C17.7594 9.44005 17.5132 9.30757 17.2669 9.17517C17.1701 9.12317 17.0733 9.07117 16.9765 9.01917C16.4421 8.73204 15.9077 8.44491 15.3732 8.15779C15.3481 8.14426 15.3229 8.13074 15.2969 8.11681C15.2462 8.08954 15.1955 8.06228 15.1447 8.03501C15.0211 7.9686 14.8975 7.90221 14.7738 7.83587C14.556 7.71894 14.3383 7.60175 14.1212 7.48349C14.0849 7.4638 14.0486 7.44411 14.0113 7.42382C13.9449 7.38777 13.8787 7.35159 13.8125 7.31524C13.5633 7.18005 13.5117 7.18852 13.2653 7.32131ZM0.925036 9.09717C0.830218 9.28761 0.820836 9.44581 0.85513 9.65359C0.955331 9.85484 1.07803 9.97127 1.28532 10.0696C1.42233 10.0981 1.53544 10.0978 1.67249 10.0696C1.75338 10.0144 1.75338 10.0144 1.82877 9.94545C2.03421 9.78905 2.21358 9.78288 2.46835 9.7836C2.50783 9.78274 2.54731 9.78188 2.58799 9.781C2.68432 9.77905 2.78068 9.77857 2.87703 9.7784C2.87703 9.55874 2.87703 9.33908 2.87703 9.11277C2.81891 9.11266 2.7608 9.11256 2.70092 9.11245C2.62339 9.11088 2.54587 9.10926 2.46835 9.10757C2.43019 9.10768 2.39204 9.10779 2.35273 9.1079C2.09006 9.10043 1.94644 9.04947 1.75133 8.87742C1.63087 8.79207 1.52126 8.79206 1.3759 8.80271C1.17376 8.84478 1.05996 8.95296 0.925036 9.09717ZM5.06294 13.0883C4.99154 13.2193 4.9722 13.2953 4.94615 13.4367C4.86279 13.7391 4.66091 13.9292 4.43578 14.1409C4.36685 14.2061 4.30009 14.2729 4.23331 14.3402C3.97172 14.5956 3.7553 14.7425 3.38293 14.8241C3.1872 14.873 3.06353 14.97 2.95786 15.1388C2.88829 15.3033 2.89725 15.47 2.92005 15.6442C3.02027 15.8455 3.14209 15.9633 3.35024 16.0602C3.5651 16.0934 3.72869 16.0843 3.92562 15.9926C4.11834 15.824 4.20434 15.6836 4.24944 15.4388C4.3328 15.1364 4.53468 14.9463 4.75981 14.7346C4.82874 14.6694 4.89549 14.6026 4.96228 14.5353C5.22386 14.2799 5.44029 14.133 5.81265 14.0514C6.00839 14.0025 6.13206 13.9055 6.23773 13.7367C6.3073 13.5723 6.29834 13.4055 6.27554 13.2313C6.17532 13.03 6.0535 12.9122 5.84535 12.8153C5.50415 12.7626 5.2905 12.8305 5.06294 13.0883Z" fill="#00529C"/>
<path d="M13.8754 8.41601C14.0144 8.48823 14.1512 8.56333 14.2879 8.63958C14.3394 8.66788 14.391 8.69613 14.4426 8.72433C14.5496 8.7829 14.6565 8.84167 14.7634 8.90061C15.0088 9.03576 15.2561 9.16771 15.5032 9.3C15.5997 9.35188 15.6963 9.40378 15.7929 9.45569C16.038 9.58738 16.2832 9.71888 16.5285 9.85035C16.6732 9.92805 16.8179 10.006 16.9625 10.0839C17.1524 10.1863 17.3429 10.2876 17.5338 10.3881C17.6241 10.4362 17.7144 10.4843 17.8047 10.5324C17.8463 10.5541 17.888 10.5757 17.9309 10.598C18.3069 10.7998 18.3069 10.7998 18.3639 10.9849C18.3711 11.1416 18.358 11.2943 18.3424 11.4503C18.3381 11.4961 18.3339 11.542 18.3294 11.5892C18.1248 13.5823 17.4018 15.4407 15.9549 16.8923C15.9264 16.922 15.8979 16.9517 15.8685 16.9823C15.3027 17.5569 14.2997 18.314 13.4586 18.3911C13.2051 18.3876 12.9551 18.2432 12.7284 18.1403C12.6875 18.1219 12.6875 18.1219 12.6458 18.103C11.4266 17.5416 10.5824 16.5356 9.97521 15.3946C9.96038 15.3676 9.94554 15.3406 9.93026 15.3128C9.33823 14.2294 8.47913 12.123 8.77068 10.9017C8.88566 10.7664 9.01497 10.6877 9.17281 10.6044C9.21867 10.58 9.26454 10.5556 9.3118 10.5305C9.36126 10.5045 9.41072 10.4786 9.46167 10.4518C9.51378 10.4242 9.56586 10.3966 9.61793 10.3689C9.72614 10.3114 9.83442 10.2541 9.94276 10.1968C10.1927 10.0646 10.4415 9.93054 10.6904 9.79662C10.7383 9.77087 10.7863 9.74512 10.8356 9.71859C11.1621 9.54315 11.4883 9.36722 11.8143 9.1908C11.8796 9.15543 11.8796 9.15543 11.9463 9.11934C12.1726 8.99673 12.3984 8.87354 12.6239 8.7496C12.6922 8.71208 12.6922 8.71208 12.7619 8.67381C12.8488 8.62607 12.9356 8.57823 13.0223 8.53028C13.061 8.50902 13.0996 8.48776 13.1395 8.46586C13.1904 8.43776 13.1904 8.43776 13.2423 8.4091C13.4725 8.29159 13.6471 8.31224 13.8754 8.41601ZM13.2704 9.2077C13.2327 9.22866 13.1951 9.24963 13.1563 9.27122C13.1154 9.29445 13.0744 9.31768 13.0323 9.34161C12.9425 9.39161 12.8527 9.44156 12.7629 9.49144C12.7153 9.51794 12.6677 9.54445 12.6186 9.57176C12.3923 9.69667 12.1641 9.81822 11.9357 9.93957C11.804 10.0095 11.6725 10.0796 11.5409 10.1497C11.5147 10.1637 11.4885 10.1777 11.4615 10.192C11.1976 10.3326 10.934 10.4735 10.6706 10.6148C10.5992 10.6531 10.5277 10.6914 10.4562 10.7296C10.3681 10.7769 10.2802 10.8246 10.1926 10.8728C10.1007 10.9221 10.0074 10.9691 9.91323 11.0143C9.78098 11.0805 9.66144 11.1447 9.54502 11.2345C9.50547 11.384 9.50995 11.4243 9.54502 11.5673C9.55184 11.6099 9.55866 11.6525 9.56569 11.6964C9.59104 11.8526 9.621 12.0076 9.65257 12.1627C9.66112 12.205 9.66112 12.205 9.66984 12.2482C10.0321 14.0244 10.7467 16.0081 12.3424 17.1019C12.8873 17.4824 12.8873 17.4824 13.5156 17.6341C14.4684 17.3505 15.3652 16.5598 15.9549 15.8106C15.9835 15.7753 16.0121 15.74 16.0416 15.7035C16.2924 15.3841 16.4936 15.0416 16.6862 14.6874C16.6999 14.6623 16.7136 14.6372 16.7277 14.6114C17.2192 13.6964 17.477 12.6297 17.5896 11.6089C17.598 11.5585 17.598 11.5585 17.6066 11.5072C17.6219 11.4095 17.6219 11.4095 17.5896 11.2761C17.4763 11.1995 17.3656 11.1334 17.2454 11.0681C17.2064 11.0466 17.1673 11.0251 17.127 11.003C16.9903 10.9287 16.8531 10.8553 16.7158 10.7821C16.6644 10.7546 16.613 10.7271 16.5617 10.6996C16.4552 10.6426 16.3488 10.5857 16.2423 10.5288C15.9957 10.3969 15.7494 10.2644 15.5032 10.132C15.2282 9.98426 14.9533 9.83653 14.6781 9.68915C14.5704 9.63144 14.4627 9.57369 14.355 9.51593C14.3035 9.48835 14.252 9.46078 14.2005 9.43324C14.1292 9.39511 14.058 9.3569 13.9867 9.31869C13.9462 9.29696 13.9056 9.27522 13.8637 9.25283C13.7846 9.20911 13.7077 9.16168 13.6318 9.1128C13.4563 9.1128 13.4147 9.1262 13.2704 9.2077Z" fill="#00529C"/>
<path d="M15.4386 11.1096C15.5172 11.161 15.5172 11.161 15.5957 11.231C15.6254 11.2575 15.6552 11.2839 15.6858 11.3111C15.8628 11.4751 16.0373 11.6411 16.2102 11.8091C16.2658 11.8626 16.2658 11.8626 16.3226 11.9172C16.3577 11.9513 16.3929 11.9854 16.4292 12.0205C16.461 12.0513 16.4928 12.0821 16.5256 12.1139C16.6458 12.2388 16.6656 12.3448 16.6635 12.5158C16.6379 12.6307 16.592 12.6808 16.5098 12.7668C16.4823 12.7957 16.4549 12.8245 16.4266 12.8543C16.3006 12.982 16.1738 13.1085 16.0446 13.2331C16.0165 13.2603 15.9885 13.2874 15.9597 13.3154C15.8682 13.404 15.7767 13.4924 15.6851 13.5809C15.6211 13.6428 15.5571 13.7047 15.4931 13.7666C15.3597 13.8957 15.2261 14.0248 15.0925 14.1538C14.9211 14.3194 14.7498 14.4852 14.5786 14.651C14.4468 14.7786 14.3149 14.9061 14.183 15.0335C14.1197 15.0946 14.0565 15.1558 13.9934 15.217C13.9054 15.3021 13.8174 15.3871 13.7293 15.4721C13.7031 15.4975 13.6769 15.5229 13.65 15.549C13.429 15.7616 13.429 15.7616 13.2177 15.7898C13.0565 15.7876 12.9857 15.7486 12.8682 15.6436C12.8384 15.6171 12.8085 15.5905 12.7778 15.5632C12.6247 15.4217 12.4734 15.2788 12.3239 15.1338C12.291 15.1021 12.2582 15.0704 12.2244 15.0377C12.1557 14.9713 12.087 14.9048 12.0184 14.8383C11.9131 14.7362 11.8075 14.6343 11.7019 14.5324C11.6349 14.4677 11.568 14.4029 11.5011 14.3382C11.4695 14.3076 11.4379 14.2771 11.4053 14.2457C11.3763 14.2175 11.3472 14.1893 11.3173 14.1602C11.2917 14.1354 11.2661 14.1106 11.2397 14.0851C11.1284 13.9676 11.114 13.8548 11.1167 13.6968C11.1413 13.5847 11.1821 13.5377 11.2622 13.4538C11.2895 13.425 11.3168 13.3963 11.345 13.3666C11.5145 13.1955 11.6862 13.0267 11.8599 12.8595C11.9153 12.8057 11.9153 12.8057 11.9717 12.7509C12.007 12.7168 12.0422 12.6828 12.0785 12.6478C12.1104 12.617 12.1423 12.5862 12.1751 12.5545C12.3039 12.4386 12.413 12.4197 12.5894 12.4206C12.7776 12.4604 12.8995 12.6019 13.0295 12.7321C13.0541 12.7559 13.0786 12.7796 13.1039 12.8041C13.122 12.8215 13.14 12.839 13.1586 12.8569C13.3009 12.7969 13.3939 12.7224 13.5028 12.616C13.5361 12.5836 13.5694 12.5513 13.6037 12.518C13.657 12.4656 13.657 12.4656 13.7114 12.4121C13.7482 12.3763 13.785 12.3405 13.8229 12.3037C13.9404 12.1893 14.0577 12.0746 14.1749 11.9599C14.2924 11.8451 14.41 11.7303 14.5278 11.6157C14.601 11.5443 14.6742 11.4728 14.7472 11.4012C14.7803 11.369 14.8133 11.3368 14.8473 11.3036C14.8764 11.2751 14.9055 11.2466 14.9355 11.2173C15.0821 11.0845 15.2465 11.0703 15.4386 11.1096ZM15.1467 12.0478C15.1159 12.0779 15.085 12.1081 15.0532 12.1392C15.0181 12.1732 14.9831 12.2072 14.947 12.2423C14.9091 12.2794 14.8713 12.3166 14.8323 12.3549C14.773 12.4126 14.7136 12.4703 14.6543 12.528C14.5711 12.609 14.488 12.6903 14.405 12.7715C14.2597 12.9136 14.1142 13.0555 13.9685 13.1972C13.891 13.2728 13.8135 13.3484 13.7361 13.4242C13.7011 13.4583 13.6661 13.4925 13.63 13.5276C13.5991 13.5579 13.5682 13.5881 13.5364 13.6192C13.4098 13.7343 13.2992 13.7518 13.1254 13.7509C12.9372 13.711 12.8153 13.5695 12.6853 13.4393C12.6608 13.4156 12.6362 13.3918 12.6109 13.3673C12.5929 13.3499 12.5749 13.3325 12.5563 13.3145C12.4078 13.376 12.3132 13.4576 12.2014 13.5693C12.171 13.5995 12.1406 13.6296 12.1093 13.6607C12.075 13.6953 12.075 13.6953 12.0401 13.7305C12.109 13.8972 12.2302 14.0083 12.3603 14.1316C12.3831 14.1535 12.4059 14.1755 12.4294 14.198C12.502 14.2678 12.5748 14.3372 12.6477 14.4066C12.6971 14.4539 12.7464 14.5012 12.7957 14.5486C12.9165 14.6644 13.0374 14.78 13.1586 14.8954C13.3296 14.8288 13.4442 14.7135 13.5713 14.5889C13.6066 14.5548 13.6066 14.5548 13.6426 14.52C13.7201 14.445 13.7972 14.3697 13.8744 14.2944C13.9282 14.2423 13.9819 14.1902 14.0357 14.1381C14.1771 14.0011 14.3182 13.8638 14.4592 13.7265C14.6032 13.5864 14.7475 13.4465 14.8918 13.3066C15.1746 13.0321 15.4573 12.7574 15.7397 12.4825C15.6713 12.3427 15.5955 12.2487 15.4816 12.1393C15.4514 12.1099 15.4212 12.0805 15.3902 12.0502C15.2826 11.9609 15.2541 11.9575 15.1467 12.0478Z" fill="#00529C"/>
<path d="M5.77815 8.50957C6.02873 8.65601 6.23177 8.88356 6.31857 9.1544C6.35321 9.48039 6.36695 9.80418 6.1465 10.0696C5.93981 10.2795 5.75237 10.4276 5.4466 10.458C5.08024 10.4619 4.82685 10.4489 4.5563 10.1998C4.28176 9.91259 4.23299 9.68683 4.24055 9.29773C4.27046 8.97065 4.42778 8.79872 4.67965 8.5905C4.98355 8.38801 5.44071 8.36497 5.77815 8.50957ZM5.05489 9.222C4.96403 9.35042 4.95866 9.41766 4.98498 9.57041C5.04951 9.67441 5.04951 9.67441 5.15706 9.73682C5.31501 9.76227 5.38455 9.75708 5.51734 9.66921C5.6082 9.5408 5.61357 9.47355 5.58725 9.3208C5.52272 9.2168 5.52272 9.2168 5.41517 9.1544C5.25722 9.12894 5.18768 9.13413 5.05489 9.222Z" fill="#00529C"/>
<path d="M8.53137 6.5127C8.78195 6.65914 8.98499 6.88668 9.0718 7.15752C9.10643 7.48352 9.12018 7.80731 8.89972 8.07276C8.69304 8.28265 8.50559 8.43076 8.19982 8.46115C7.83346 8.46505 7.58007 8.45207 7.30953 8.20292C7.03499 7.91571 6.98621 7.68995 6.99377 7.30085C7.02368 6.97378 7.181 6.80185 7.43287 6.59363C7.73677 6.39114 8.19393 6.3681 8.53137 6.5127ZM7.80811 7.22513C7.71725 7.35354 7.71188 7.42079 7.7382 7.57354C7.80273 7.67754 7.80273 7.67754 7.91028 7.73994C8.06824 7.7654 8.13777 7.76021 8.27057 7.67234C8.36143 7.54392 8.3668 7.47668 8.34047 7.32393C8.27594 7.21993 8.27594 7.21993 8.1684 7.15752C8.01044 7.13207 7.94091 7.13726 7.80811 7.22513Z" fill="#00529C"/>
<path d="M10.9404 4.18302C11.191 4.32945 11.3941 4.557 11.4809 4.82784C11.5155 5.15383 11.5292 5.47762 11.3088 5.74307C11.1021 5.95296 10.9147 6.10108 10.6089 6.13146C10.2425 6.13537 9.98914 6.12239 9.7186 5.87324C9.44406 5.58603 9.39528 5.36027 9.40284 4.97117C9.43275 4.6441 9.59007 4.47217 9.84194 4.26395C10.1458 4.06145 10.603 4.03841 10.9404 4.18302ZM10.2172 4.89544C10.1263 5.02386 10.1209 5.09111 10.1473 5.24386C10.2118 5.34786 10.2118 5.34786 10.3194 5.41026C10.4773 5.43572 10.5468 5.43052 10.6796 5.34266C10.7705 5.21424 10.7759 5.147 10.7495 4.99425C10.685 4.89024 10.685 4.89024 10.5775 4.82784C10.4195 4.80238 10.35 4.80758 10.2172 4.89544Z" fill="#00529C"/>
<path d="M10.4437 0.240931C10.8029 0.448092 11.0254 0.734423 11.1367 1.12529C11.1778 1.52493 11.1702 1.86741 10.9216 2.20693C10.879 2.24811 10.879 2.24811 10.8356 2.29013C10.8251 2.42026 10.8251 2.42026 10.8302 2.56574C10.831 2.61518 10.8317 2.66463 10.8325 2.71557C10.8335 2.75364 10.8345 2.79172 10.8356 2.83095C10.8846 2.83958 10.9336 2.84822 10.9841 2.85711C11.6343 2.97722 12.2612 3.14651 12.8413 3.46017C13.0349 3.55919 13.1418 3.601 13.3549 3.54077C13.4194 3.51407 13.4831 3.48545 13.5458 3.45497C13.5794 3.44348 13.613 3.432 13.6477 3.42016C13.8517 3.33292 13.9936 3.17323 14.1507 3.02336C14.2025 2.97662 14.2025 2.97662 14.2553 2.92894C14.4789 2.7161 14.5902 2.53304 14.6695 2.23891C14.7664 1.94363 14.9926 1.7358 15.2627 1.58177C15.6247 1.4188 16.0405 1.40119 16.4289 1.4867C16.8061 1.62119 17.0688 1.85889 17.2454 2.20693C17.3894 2.55287 17.3958 3.00147 17.2615 3.35357C17.1058 3.66753 16.8812 3.8858 16.5571 4.03739C16.4908 4.05321 16.4242 4.068 16.3575 4.08192C16.0719 4.16241 15.8995 4.33919 15.6967 4.54181C15.6604 4.57581 15.6241 4.60981 15.5867 4.64484C15.4014 4.82597 15.2542 4.9829 15.2179 5.24174C15.2277 5.39063 15.309 5.48481 15.4063 5.59225C15.8235 6.10464 16.0991 6.68771 16.3217 7.30051C16.3328 7.33085 16.3438 7.36119 16.3553 7.39244C16.385 7.49031 16.385 7.49031 16.4022 7.60411C16.4353 7.79382 16.4673 7.90965 16.6225 8.03658C16.7692 8.12241 16.9194 8.1976 17.0733 8.27034C17.1298 8.29847 17.1862 8.32677 17.2424 8.35523C17.3583 8.41366 17.4745 8.47138 17.591 8.5286C17.8489 8.65601 18.1007 8.79363 18.3532 8.93077C18.4479 8.98183 18.5426 9.03286 18.6373 9.08385C18.7073 9.12155 18.7073 9.12155 18.7787 9.16002C18.9038 9.22719 19.0291 9.294 19.1545 9.36061C19.2306 9.40104 19.3066 9.4416 19.3826 9.48221C19.4775 9.53294 19.5726 9.58345 19.6678 9.6337C19.71 9.65635 19.7523 9.67901 19.7958 9.70234C19.8516 9.73201 19.8516 9.73201 19.9086 9.76227C19.9986 9.82 19.9986 9.82 20.0847 9.9448C20.1046 10.1451 20.0992 10.3469 20.0981 10.548C20.098 10.5927 20.098 10.5927 20.0979 10.6382C20.0855 13.4359 19.1204 16.1744 17.0733 18.1819C16.2466 18.9731 15.2358 19.5676 14.1534 19.9708C14.1207 19.9834 14.088 19.996 14.0543 20.009C13.6644 20.1483 13.3176 20.114 12.9274 19.9942C12.8906 19.9831 12.8538 19.972 12.8159 19.9606C11.9153 19.6788 11.1171 19.2431 10.4054 18.6395C10.3693 18.6097 10.3333 18.5799 10.2961 18.5492C9.61467 17.9738 9.08426 17.2766 8.64159 16.5178C8.61481 16.4724 8.58802 16.4269 8.56042 16.38C8.38348 16.0737 8.38348 16.0737 8.38348 15.977C8.33662 15.973 8.28976 15.9691 8.24148 15.965C7.4524 15.8682 6.56755 15.4926 5.93828 15.0246C5.81759 14.9269 5.81759 14.9269 5.71729 14.9446C5.40259 15.0674 5.05987 15.4534 4.91506 15.7419C4.89063 15.8236 4.86789 15.9059 4.84717 15.9886C4.75775 16.284 4.52482 16.4913 4.2575 16.6438C3.89544 16.8067 3.47964 16.8244 3.09128 16.7388C2.66973 16.5886 2.42754 16.3205 2.23174 15.9354C2.11954 15.6277 2.1421 15.1755 2.25863 14.872C2.4145 14.5579 2.63904 14.34 2.96307 14.1882C3.03051 14.1712 3.09826 14.1554 3.16623 14.1405C3.42868 14.0667 3.58198 13.9215 3.76699 13.7331C3.81386 13.6885 3.81386 13.6885 3.86168 13.6429C3.98094 13.5275 3.98094 13.5275 4.08156 13.3977C4.06452 13.2273 3.95633 13.0947 3.86378 12.9531C3.36927 12.1721 3.06701 11.3478 2.92005 10.444C2.57416 10.4451 2.32798 10.468 2.05126 10.678C1.82111 10.8476 1.43363 10.8013 1.15626 10.7768C0.787509 10.6964 0.509889 10.4978 0.303947 10.1944C0.0779154 9.83632 0.0584013 9.39056 0.15338 8.98715C0.292454 8.62235 0.538256 8.36836 0.898149 8.19754C1.22915 8.06914 1.64084 8.04955 1.98203 8.15805C2.12768 8.22765 2.24573 8.29427 2.3608 8.40555C2.4951 8.42489 2.4951 8.42489 2.6458 8.43155C2.69693 8.43466 2.74806 8.43777 2.80074 8.44097C2.8598 8.44403 2.8598 8.44403 2.92005 8.44715C2.92898 8.39674 2.9379 8.34633 2.9471 8.29439C3.11329 7.40137 3.41079 6.47821 3.99116 5.74906C4.09198 5.63292 4.09198 5.63292 4.07365 5.53605C3.94676 5.23171 3.54754 4.90024 3.24924 4.76022C3.16471 4.73659 3.07967 4.7146 2.99415 4.69456C2.68862 4.60809 2.47428 4.38284 2.3166 4.12433C2.14809 3.77419 2.12988 3.3721 2.2183 2.99654C2.37371 2.58888 2.65093 2.35468 3.0491 2.16532C3.36734 2.05682 3.83496 2.07863 4.14878 2.19133C4.4736 2.34206 4.69887 2.5592 4.85591 2.87255C4.87343 2.93777 4.8898 3.00329 4.90514 3.06902C4.98145 3.32282 5.13166 3.47107 5.32643 3.64998C5.35723 3.6802 5.38804 3.71042 5.41978 3.74155C5.5391 3.85688 5.5391 3.85688 5.67327 3.95419C5.84948 3.93771 5.98662 3.83309 6.13304 3.74358C6.94067 3.26537 7.793 2.97307 8.72763 2.83095C8.72656 2.49646 8.70284 2.25839 8.48565 1.99079C8.31029 1.76822 8.35818 1.39352 8.38348 1.12529C8.46664 0.768685 8.67204 0.500214 8.98574 0.301058C9.40555 0.0532478 10.0001 0.0350924 10.4437 0.240931ZM9.18471 1.11229C9.09308 1.29291 9.07149 1.42752 9.1148 1.62451C9.17192 1.70273 9.17192 1.70273 9.24319 1.77564C9.40491 1.9743 9.4113 2.14776 9.41056 2.39413C9.41144 2.43231 9.41233 2.4705 9.41325 2.50984C9.41525 2.60299 9.41575 2.69617 9.41594 2.78935C9.64308 2.78935 9.87022 2.78935 10.1042 2.78935C10.1044 2.73315 10.1045 2.67694 10.1046 2.61904C10.1062 2.54407 10.1079 2.4691 10.1096 2.39413C10.1095 2.33879 10.1095 2.33879 10.1093 2.28233C10.117 2.02832 10.1697 1.88942 10.3476 1.70074C10.4359 1.58425 10.4359 1.47826 10.4249 1.33768C10.3814 1.1422 10.2695 1.03216 10.1204 0.90168C9.75041 0.729421 9.45039 0.821557 9.18471 1.11229ZM15.3875 2.43833C15.3161 2.56927 15.2968 2.64534 15.2707 2.78675C15.1874 3.08911 14.9855 3.27926 14.7604 3.49091C14.6914 3.55611 14.6247 3.62296 14.5579 3.6902C14.2963 3.94561 14.0799 4.09255 13.7075 4.17415C13.5118 4.22302 13.3881 4.32006 13.2824 4.48883C13.2129 4.65329 13.2218 4.82003 13.2446 4.99423C13.3449 5.19552 13.4667 5.31332 13.6748 5.41024C13.8897 5.4434 14.0533 5.43433 14.2502 5.34264C14.4429 5.17402 14.5289 5.03364 14.574 4.78882C14.6574 4.48645 14.8593 4.29631 15.0844 4.08465C15.1533 4.01946 15.2201 3.9526 15.2869 3.88537C15.5485 3.62995 15.7649 3.48302 16.1372 3.40141C16.333 3.35254 16.4566 3.25551 16.5623 3.08673C16.6319 2.92227 16.6229 2.75554 16.6001 2.58134C16.4999 2.38005 16.3781 2.26224 16.1699 2.16532C15.8287 2.11266 15.6151 2.18055 15.3875 2.43833ZM2.98995 3.10656C2.89514 3.297 2.88575 3.4552 2.92005 3.66298C3.02154 3.86683 3.14448 3.97408 3.35024 4.07899C3.42097 4.09185 3.49179 4.10432 3.56265 4.11653C3.87532 4.19714 4.07194 4.39237 4.29081 4.61008C4.35822 4.67674 4.42736 4.74129 4.49688 4.80588C4.761 5.05885 4.91294 5.26814 4.99733 5.62823C5.04787 5.81752 5.14821 5.93711 5.32273 6.0393C5.4928 6.10658 5.66522 6.09791 5.84535 6.07586C6.0535 5.97894 6.17532 5.86114 6.27554 5.65985C6.30983 5.45207 6.30045 5.29387 6.20563 5.10343C6.03126 4.91706 5.88611 4.83389 5.63294 4.79028C5.32027 4.70967 5.12365 4.51444 4.90478 4.29673C4.83736 4.23007 4.76823 4.16552 4.6987 4.10093C4.43459 3.84797 4.28264 3.63867 4.19826 3.27858C4.14772 3.0893 4.04738 2.9697 3.87285 2.86751C3.52147 2.7285 3.23201 2.84784 2.98995 3.10656ZM6.49063 4.3702C6.50727 4.38736 6.52391 4.40452 6.54105 4.4222C6.90494 4.81243 6.99622 5.18681 6.97174 5.70273C6.94322 5.99858 6.79237 6.24643 6.57667 6.45028C6.17293 6.74048 5.77482 6.77962 5.2861 6.74149C4.99287 6.66822 4.72446 6.48957 4.51175 6.28387C3.69372 7.53572 3.36312 9.15062 3.67826 10.6104C3.70829 10.7365 3.74293 10.8606 3.78043 10.9848C3.78965 11.0165 3.79887 11.0482 3.80837 11.0808C3.96678 11.6137 4.17748 12.1816 4.55477 12.6073C4.60002 12.561 4.60002 12.561 4.64619 12.5137C4.9706 12.2136 5.27335 12.133 5.71114 12.1344C6.08748 12.1432 6.39873 12.2572 6.66271 12.5241C6.95296 12.9303 7.01246 13.2852 6.96384 13.7721C6.88874 14.0556 6.70304 14.3156 6.49063 14.521C6.80103 14.7162 7.11873 14.8653 7.46125 14.9994C7.49914 15.0145 7.53703 15.0295 7.57607 15.045C7.61188 15.0587 7.64769 15.0724 7.68458 15.0865C7.73271 15.1049 7.73271 15.1049 7.78181 15.1238C7.87526 15.1549 7.87526 15.1549 7.9963 15.1034C7.98615 15.0759 7.976 15.0484 7.96554 15.0201C7.43294 13.5637 7.04669 11.9991 7.03913 10.4466C7.03824 10.3999 7.03735 10.3533 7.03644 10.3052C7.03611 10.2382 7.03611 10.2382 7.03577 10.1699C7.03537 10.1296 7.03496 10.0893 7.03455 10.0478C7.04988 9.9448 7.04988 9.9448 7.10118 9.87625C7.19834 9.80597 7.29834 9.74967 7.40479 9.69324C7.47379 9.65644 7.47379 9.65644 7.54418 9.6189C7.59401 9.59259 7.64383 9.56629 7.69517 9.53919C7.74753 9.51134 7.79987 9.48347 7.85221 9.45558C7.96096 9.39764 8.06978 9.33979 8.17863 9.28202C8.42669 9.15026 8.67391 9.01704 8.92122 8.88396C9.018 8.83195 9.1148 8.77995 9.21159 8.72796C9.28346 8.68935 9.28346 8.68935 9.35678 8.64995C12.7355 6.83477 12.7355 6.83476 12.8657 6.7655C12.9425 6.72377 13.0186 6.6807 13.0935 6.6359C13.264 6.53555 13.4141 6.4537 13.6214 6.46801C13.8502 6.52463 14.0519 6.64747 14.2556 6.75969C14.3048 6.78608 14.354 6.81247 14.4047 6.83966C14.549 6.91722 14.6927 6.99567 14.8363 7.0743C14.9117 7.11503 14.9871 7.15572 15.0625 7.19634C15.217 7.27971 15.371 7.36388 15.5247 7.44871C15.5388 7.42126 15.553 7.3938 15.5677 7.36551C15.5312 7.26344 15.4918 7.16757 15.4467 7.0691C15.4334 7.03983 15.4201 7.01057 15.4064 6.98042C15.2275 6.60022 14.9893 6.25619 14.7503 5.90946C14.7239 5.91798 14.6974 5.92651 14.6701 5.9353C14.1871 6.09101 13.683 6.1829 13.2033 5.9587C12.8978 5.78723 12.6913 5.53202 12.5711 5.20971C12.5486 5.07142 12.5484 4.93363 12.5483 4.79402C12.5477 4.76546 12.5472 4.73691 12.5467 4.70748C12.5461 4.51058 12.5784 4.34921 12.6424 4.1622C10.7545 3.15272 8.30138 3.23129 6.49063 4.3702ZM13.2653 7.32131C13.2157 7.34791 13.1661 7.37451 13.1151 7.40192C13.0606 7.43138 13.0061 7.46085 12.9516 7.49031C12.8952 7.52064 12.8388 7.55094 12.7824 7.58123C12.665 7.64428 12.5476 7.70742 12.4302 7.77062C12.1883 7.90081 11.9457 8.0299 11.7032 8.15905C11.1252 8.46693 10.5483 8.7767 9.97159 9.08689C9.83078 9.16263 9.68994 9.23831 9.54908 9.31396C9.48969 9.34587 9.4303 9.3778 9.37093 9.40974C9.19803 9.50274 9.02495 9.59541 8.8517 9.68779C8.74536 9.74452 8.63908 9.80134 8.5328 9.85818C8.48032 9.88621 8.4278 9.9142 8.37526 9.94215C8.30142 9.98143 8.22767 10.0209 8.15393 10.0603C8.1111 10.0832 8.06827 10.106 8.02414 10.1296C7.96777 10.1617 7.96777 10.1617 7.91027 10.1944C7.87716 10.2124 7.84405 10.2304 7.80994 10.2489C7.72634 10.3172 7.72634 10.3172 7.71893 10.4375C7.72935 10.7974 7.75848 11.1506 7.80809 11.5075C7.81187 11.535 7.81564 11.5624 7.81953 11.5908C7.95632 12.5788 8.18307 13.5345 8.51253 14.4794C8.52338 14.511 8.53423 14.5426 8.54541 14.5752C8.96229 15.7758 9.63322 16.851 10.5344 17.7659C10.5653 17.7984 10.5961 17.8309 10.6279 17.8644C11.3053 18.5564 12.1995 18.9882 13.1156 19.3051C13.1665 19.3228 13.2175 19.3404 13.27 19.3586C13.5931 19.4241 13.8555 19.3244 14.148 19.2011C14.1835 19.1863 14.219 19.1716 14.2556 19.1563C16.327 18.2749 17.7975 16.5728 18.6247 14.5648C19.1064 13.3471 19.3391 12.0225 19.3829 10.7222C19.3853 10.6845 19.3877 10.6468 19.3902 10.6079C19.3941 10.4156 19.3941 10.4156 19.2933 10.2582C19.2015 10.2011 19.1077 10.1565 19.0092 10.1112C18.9267 10.0666 18.8444 10.0216 18.7623 9.97633C18.6681 9.92586 18.5738 9.87549 18.4795 9.8252C18.4282 9.79772 18.3768 9.77023 18.3254 9.74273C18.219 9.68574 18.1125 9.6288 18.006 9.57189C17.7594 9.44005 17.5132 9.30757 17.2669 9.17517C17.1701 9.12317 17.0733 9.07117 16.9765 9.01917C16.4421 8.73204 15.9077 8.44491 15.3732 8.15779C15.3481 8.14426 15.3229 8.13074 15.2969 8.11681C15.2462 8.08954 15.1955 8.06228 15.1447 8.03501C15.0211 7.9686 14.8975 7.90221 14.7738 7.83587C14.556 7.71894 14.3383 7.60175 14.1212 7.48349C14.0849 7.4638 14.0486 7.44411 14.0113 7.42382C13.9449 7.38777 13.8787 7.35159 13.8125 7.31524C13.5633 7.18005 13.5117 7.18852 13.2653 7.32131ZM0.925036 9.09717C0.830218 9.28761 0.820836 9.44581 0.85513 9.65359C0.955331 9.85484 1.07803 9.97127 1.28532 10.0696C1.42233 10.0981 1.53544 10.0978 1.67249 10.0696C1.75338 10.0144 1.75338 10.0144 1.82877 9.94545C2.03421 9.78905 2.21358 9.78288 2.46835 9.7836C2.50783 9.78274 2.54731 9.78188 2.58799 9.781C2.68432 9.77905 2.78068 9.77857 2.87703 9.7784C2.87703 9.55874 2.87703 9.33908 2.87703 9.11277C2.81891 9.11266 2.7608 9.11256 2.70092 9.11245C2.62339 9.11088 2.54587 9.10926 2.46835 9.10757C2.43019 9.10768 2.39204 9.10779 2.35273 9.1079C2.09006 9.10043 1.94644 9.04947 1.75133 8.87742C1.63087 8.79207 1.52126 8.79206 1.3759 8.80271C1.17376 8.84478 1.05996 8.95296 0.925036 9.09717ZM5.06294 13.0883C4.99154 13.2193 4.9722 13.2953 4.94615 13.4367C4.86279 13.7391 4.66091 13.9292 4.43578 14.1409C4.36685 14.2061 4.30009 14.2729 4.23331 14.3402C3.97172 14.5956 3.7553 14.7425 3.38293 14.8241C3.1872 14.873 3.06353 14.97 2.95786 15.1388C2.88829 15.3033 2.89725 15.47 2.92005 15.6442C3.02027 15.8455 3.14209 15.9633 3.35024 16.0602C3.5651 16.0934 3.72869 16.0843 3.92562 15.9926C4.11834 15.824 4.20434 15.6836 4.24944 15.4388C4.3328 15.1364 4.53468 14.9463 4.75981 14.7346C4.82874 14.6694 4.89549 14.6026 4.96228 14.5353C5.22386 14.2799 5.44029 14.133 5.81265 14.0514C6.00839 14.0025 6.13206 13.9055 6.23773 13.7367C6.3073 13.5723 6.29834 13.4055 6.27554 13.2313C6.17532 13.03 6.0535 12.9122 5.84535 12.8153C5.50415 12.7626 5.2905 12.8305 5.06294 13.0883Z" stroke="#00529C" stroke-width="0.2" mask="url(#path-1-outside-1_933_11428)"/>
<path d="M13.8754 8.41601C14.0144 8.48823 14.1512 8.56333 14.2879 8.63958C14.3394 8.66788 14.391 8.69613 14.4426 8.72433C14.5496 8.7829 14.6565 8.84167 14.7634 8.90061C15.0088 9.03576 15.2561 9.16771 15.5032 9.3C15.5997 9.35188 15.6963 9.40378 15.7929 9.45569C16.038 9.58738 16.2832 9.71888 16.5285 9.85035C16.6732 9.92805 16.8179 10.006 16.9625 10.0839C17.1524 10.1863 17.3429 10.2876 17.5338 10.3881C17.6241 10.4362 17.7144 10.4843 17.8047 10.5324C17.8463 10.5541 17.888 10.5757 17.9309 10.598C18.3069 10.7998 18.3069 10.7998 18.3639 10.9849C18.3711 11.1416 18.358 11.2943 18.3424 11.4503C18.3381 11.4961 18.3339 11.542 18.3294 11.5892C18.1248 13.5823 17.4018 15.4407 15.9549 16.8923C15.9264 16.922 15.8979 16.9517 15.8685 16.9823C15.3027 17.5569 14.2997 18.314 13.4586 18.3911C13.2051 18.3876 12.9551 18.2432 12.7284 18.1403C12.6875 18.1219 12.6875 18.1219 12.6458 18.103C11.4266 17.5416 10.5824 16.5356 9.97521 15.3946C9.96038 15.3676 9.94554 15.3406 9.93026 15.3128C9.33823 14.2294 8.47913 12.123 8.77068 10.9017C8.88566 10.7664 9.01497 10.6877 9.17281 10.6044C9.21867 10.58 9.26454 10.5556 9.3118 10.5305C9.36126 10.5045 9.41072 10.4786 9.46167 10.4518C9.51378 10.4242 9.56586 10.3966 9.61793 10.3689C9.72614 10.3114 9.83442 10.2541 9.94276 10.1968C10.1927 10.0646 10.4415 9.93054 10.6904 9.79662C10.7383 9.77087 10.7863 9.74512 10.8356 9.71859C11.1621 9.54315 11.4883 9.36722 11.8143 9.1908C11.8796 9.15543 11.8796 9.15543 11.9463 9.11934C12.1726 8.99673 12.3984 8.87354 12.6239 8.7496C12.6922 8.71208 12.6922 8.71208 12.7619 8.67381C12.8488 8.62607 12.9356 8.57823 13.0223 8.53028C13.061 8.50902 13.0996 8.48776 13.1395 8.46586C13.1904 8.43776 13.1904 8.43776 13.2423 8.4091C13.4725 8.29159 13.6471 8.31224 13.8754 8.41601ZM13.2704 9.2077C13.2327 9.22866 13.1951 9.24963 13.1563 9.27122C13.1154 9.29445 13.0744 9.31768 13.0323 9.34161C12.9425 9.39161 12.8527 9.44156 12.7629 9.49144C12.7153 9.51794 12.6677 9.54445 12.6186 9.57176C12.3923 9.69667 12.1641 9.81822 11.9357 9.93957C11.804 10.0095 11.6725 10.0796 11.5409 10.1497C11.5147 10.1637 11.4885 10.1777 11.4615 10.192C11.1976 10.3326 10.934 10.4735 10.6706 10.6148C10.5992 10.6531 10.5277 10.6914 10.4562 10.7296C10.3681 10.7769 10.2802 10.8246 10.1926 10.8728C10.1007 10.9221 10.0074 10.9691 9.91323 11.0143C9.78098 11.0805 9.66144 11.1447 9.54502 11.2345C9.50547 11.384 9.50995 11.4243 9.54502 11.5673C9.55184 11.6099 9.55866 11.6525 9.56569 11.6964C9.59104 11.8526 9.621 12.0076 9.65257 12.1627C9.66112 12.205 9.66112 12.205 9.66984 12.2482C10.0321 14.0244 10.7467 16.0081 12.3424 17.1019C12.8873 17.4824 12.8873 17.4824 13.5156 17.6341C14.4684 17.3505 15.3652 16.5598 15.9549 15.8106C15.9835 15.7753 16.0121 15.74 16.0416 15.7035C16.2924 15.3841 16.4936 15.0416 16.6862 14.6874C16.6999 14.6623 16.7136 14.6372 16.7277 14.6114C17.2192 13.6964 17.477 12.6297 17.5896 11.6089C17.598 11.5585 17.598 11.5585 17.6066 11.5072C17.6219 11.4095 17.6219 11.4095 17.5896 11.2761C17.4763 11.1995 17.3656 11.1334 17.2454 11.0681C17.2064 11.0466 17.1673 11.0251 17.127 11.003C16.9903 10.9287 16.8531 10.8553 16.7158 10.7821C16.6644 10.7546 16.613 10.7271 16.5617 10.6996C16.4552 10.6426 16.3488 10.5857 16.2423 10.5288C15.9957 10.3969 15.7494 10.2644 15.5032 10.132C15.2282 9.98426 14.9533 9.83653 14.6781 9.68915C14.5704 9.63144 14.4627 9.57369 14.355 9.51593C14.3035 9.48835 14.252 9.46078 14.2005 9.43324C14.1292 9.39511 14.058 9.3569 13.9867 9.31869C13.9462 9.29696 13.9056 9.27522 13.8637 9.25283C13.7846 9.20911 13.7077 9.16168 13.6318 9.1128C13.4563 9.1128 13.4147 9.1262 13.2704 9.2077Z" stroke="#00529C" stroke-width="0.2" mask="url(#path-1-outside-1_933_11428)"/>
<path d="M15.4386 11.1096C15.5172 11.161 15.5172 11.161 15.5957 11.231C15.6254 11.2575 15.6552 11.2839 15.6858 11.3111C15.8628 11.4751 16.0373 11.6411 16.2102 11.8091C16.2658 11.8626 16.2658 11.8626 16.3226 11.9172C16.3577 11.9513 16.3929 11.9854 16.4292 12.0205C16.461 12.0513 16.4928 12.0821 16.5256 12.1139C16.6458 12.2388 16.6656 12.3448 16.6635 12.5158C16.6379 12.6307 16.592 12.6808 16.5098 12.7668C16.4823 12.7957 16.4549 12.8245 16.4266 12.8543C16.3006 12.982 16.1738 13.1085 16.0446 13.2331C16.0165 13.2603 15.9885 13.2874 15.9597 13.3154C15.8682 13.404 15.7767 13.4924 15.6851 13.5809C15.6211 13.6428 15.5571 13.7047 15.4931 13.7666C15.3597 13.8957 15.2261 14.0248 15.0925 14.1538C14.9211 14.3194 14.7498 14.4852 14.5786 14.651C14.4468 14.7786 14.3149 14.9061 14.183 15.0335C14.1197 15.0946 14.0565 15.1558 13.9934 15.217C13.9054 15.3021 13.8174 15.3871 13.7293 15.4721C13.7031 15.4975 13.6769 15.5229 13.65 15.549C13.429 15.7616 13.429 15.7616 13.2177 15.7898C13.0565 15.7876 12.9857 15.7486 12.8682 15.6436C12.8384 15.6171 12.8085 15.5905 12.7778 15.5632C12.6247 15.4217 12.4734 15.2788 12.3239 15.1338C12.291 15.1021 12.2582 15.0704 12.2244 15.0377C12.1557 14.9713 12.087 14.9048 12.0184 14.8383C11.9131 14.7362 11.8075 14.6343 11.7019 14.5324C11.6349 14.4677 11.568 14.4029 11.5011 14.3382C11.4695 14.3076 11.4379 14.2771 11.4053 14.2457C11.3763 14.2175 11.3472 14.1893 11.3173 14.1602C11.2917 14.1354 11.2661 14.1106 11.2397 14.0851C11.1284 13.9676 11.114 13.8548 11.1167 13.6968C11.1413 13.5847 11.1821 13.5377 11.2622 13.4538C11.2895 13.425 11.3168 13.3963 11.345 13.3666C11.5145 13.1955 11.6862 13.0267 11.8599 12.8595C11.9153 12.8057 11.9153 12.8057 11.9717 12.7509C12.007 12.7168 12.0422 12.6828 12.0785 12.6478C12.1104 12.617 12.1423 12.5862 12.1751 12.5545C12.3039 12.4386 12.413 12.4197 12.5894 12.4206C12.7776 12.4604 12.8995 12.6019 13.0295 12.7321C13.0541 12.7559 13.0786 12.7796 13.1039 12.8041C13.122 12.8215 13.14 12.839 13.1586 12.8569C13.3009 12.7969 13.3939 12.7224 13.5028 12.616C13.5361 12.5836 13.5694 12.5513 13.6037 12.518C13.657 12.4656 13.657 12.4656 13.7114 12.4121C13.7482 12.3763 13.785 12.3405 13.8229 12.3037C13.9404 12.1893 14.0577 12.0746 14.1749 11.9599C14.2924 11.8451 14.41 11.7303 14.5278 11.6157C14.601 11.5443 14.6742 11.4728 14.7472 11.4012C14.7803 11.369 14.8133 11.3368 14.8473 11.3036C14.8764 11.2751 14.9055 11.2466 14.9355 11.2173C15.0821 11.0845 15.2465 11.0703 15.4386 11.1096ZM15.1467 12.0478C15.1159 12.0779 15.085 12.1081 15.0532 12.1392C15.0181 12.1732 14.9831 12.2072 14.947 12.2423C14.9091 12.2794 14.8713 12.3166 14.8323 12.3549C14.773 12.4126 14.7136 12.4703 14.6543 12.528C14.5711 12.609 14.488 12.6903 14.405 12.7715C14.2597 12.9136 14.1142 13.0555 13.9685 13.1972C13.891 13.2728 13.8135 13.3484 13.7361 13.4242C13.7011 13.4583 13.6661 13.4925 13.63 13.5276C13.5991 13.5579 13.5682 13.5881 13.5364 13.6192C13.4098 13.7343 13.2992 13.7518 13.1254 13.7509C12.9372 13.711 12.8153 13.5695 12.6853 13.4393C12.6608 13.4156 12.6362 13.3918 12.6109 13.3673C12.5929 13.3499 12.5749 13.3325 12.5563 13.3145C12.4078 13.376 12.3132 13.4576 12.2014 13.5693C12.171 13.5995 12.1406 13.6296 12.1093 13.6607C12.075 13.6953 12.075 13.6953 12.0401 13.7305C12.109 13.8972 12.2302 14.0083 12.3603 14.1316C12.3831 14.1535 12.4059 14.1755 12.4294 14.198C12.502 14.2678 12.5748 14.3372 12.6477 14.4066C12.6971 14.4539 12.7464 14.5012 12.7957 14.5486C12.9165 14.6644 13.0374 14.78 13.1586 14.8954C13.3296 14.8288 13.4442 14.7135 13.5713 14.5889C13.6066 14.5548 13.6066 14.5548 13.6426 14.52C13.7201 14.445 13.7972 14.3697 13.8744 14.2944C13.9282 14.2423 13.9819 14.1902 14.0357 14.1381C14.1771 14.0011 14.3182 13.8638 14.4592 13.7265C14.6032 13.5864 14.7475 13.4465 14.8918 13.3066C15.1746 13.0321 15.4573 12.7574 15.7397 12.4825C15.6713 12.3427 15.5955 12.2487 15.4816 12.1393C15.4514 12.1099 15.4212 12.0805 15.3902 12.0502C15.2826 11.9609 15.2541 11.9575 15.1467 12.0478Z" stroke="#00529C" stroke-width="0.2" mask="url(#path-1-outside-1_933_11428)"/>
<path d="M5.77815 8.50957C6.02873 8.65601 6.23177 8.88356 6.31857 9.1544C6.35321 9.48039 6.36695 9.80418 6.1465 10.0696C5.93981 10.2795 5.75237 10.4276 5.4466 10.458C5.08024 10.4619 4.82685 10.4489 4.5563 10.1998C4.28176 9.91259 4.23299 9.68683 4.24055 9.29773C4.27046 8.97065 4.42778 8.79872 4.67965 8.5905C4.98355 8.38801 5.44071 8.36497 5.77815 8.50957ZM5.05489 9.222C4.96403 9.35042 4.95866 9.41766 4.98498 9.57041C5.04951 9.67441 5.04951 9.67441 5.15706 9.73682C5.31501 9.76227 5.38455 9.75708 5.51734 9.66921C5.6082 9.5408 5.61357 9.47355 5.58725 9.3208C5.52272 9.2168 5.52272 9.2168 5.41517 9.1544C5.25722 9.12894 5.18768 9.13413 5.05489 9.222Z" stroke="#00529C" stroke-width="0.2" mask="url(#path-1-outside-1_933_11428)"/>
<path d="M8.53137 6.5127C8.78195 6.65914 8.98499 6.88668 9.0718 7.15752C9.10643 7.48352 9.12018 7.80731 8.89972 8.07276C8.69304 8.28265 8.50559 8.43076 8.19982 8.46115C7.83346 8.46505 7.58007 8.45207 7.30953 8.20292C7.03499 7.91571 6.98621 7.68995 6.99377 7.30085C7.02368 6.97378 7.181 6.80185 7.43287 6.59363C7.73677 6.39114 8.19393 6.3681 8.53137 6.5127ZM7.80811 7.22513C7.71725 7.35354 7.71188 7.42079 7.7382 7.57354C7.80273 7.67754 7.80273 7.67754 7.91028 7.73994C8.06824 7.7654 8.13777 7.76021 8.27057 7.67234C8.36143 7.54392 8.3668 7.47668 8.34047 7.32393C8.27594 7.21993 8.27594 7.21993 8.1684 7.15752C8.01044 7.13207 7.94091 7.13726 7.80811 7.22513Z" stroke="#00529C" stroke-width="0.2" mask="url(#path-1-outside-1_933_11428)"/>
<path d="M10.9404 4.18302C11.191 4.32945 11.3941 4.557 11.4809 4.82784C11.5155 5.15383 11.5292 5.47762 11.3088 5.74307C11.1021 5.95296 10.9147 6.10108 10.6089 6.13146C10.2425 6.13537 9.98914 6.12239 9.7186 5.87324C9.44406 5.58603 9.39528 5.36027 9.40284 4.97117C9.43275 4.6441 9.59007 4.47217 9.84194 4.26395C10.1458 4.06145 10.603 4.03841 10.9404 4.18302ZM10.2172 4.89544C10.1263 5.02386 10.1209 5.09111 10.1473 5.24386C10.2118 5.34786 10.2118 5.34786 10.3194 5.41026C10.4773 5.43572 10.5468 5.43052 10.6796 5.34266C10.7705 5.21424 10.7759 5.147 10.7495 4.99425C10.685 4.89024 10.685 4.89024 10.5775 4.82784C10.4195 4.80238 10.35 4.80758 10.2172 4.89544Z" stroke="#00529C" stroke-width="0.2" mask="url(#path-1-outside-1_933_11428)"/>
</svg>
